<?xml version="1.0" encoding="UTF-8" standalone="no"?>

<!DOCTYPE svg PUBLIC "-//W3C//DTD SVG 1.1//EN"
  "http://www.w3.org/Graphics/SVG/1.1/DTD/svg11.dtd"
[
    <!ENTITY ns_flows "http://ns.adobe.com/Flows/1.0/">
	<!ENTITY ns_svg "http://www.w3.org/2000/svg">
	<!ENTITY ns_xlink "http://www.w3.org/1999/xlink">
]>

<svg id="gene"  
xmlns="http://www.w3.org/2000/svg"
xmlns:xlink="http://www.w3.org/1999/xlink"
xmlns:xul="http://www.mozilla.org/keymaster/gatekeeper/there.is.only.xul"

   xmlns:dc="http://purl.org/dc/elements/1.1/"
   xmlns:cc="http://web.resource.org/cc/"
   xmlns:rdf="http://www.w3.org/1999/02/22-rdf-syntax-ns#"
   xmlns:svg="http://www.w3.org/2000/svg"
 

   xmlns:sodipodi="http://inkscape.sourceforge.net/DTD/sodipodi-0.dtd"
   xmlns:inkscape="http://www.inkscape.org/namespaces/inkscape"


>


<script id="scrpt"  language="javascript" ><![CDATA[
var brsrici="ei"


function affichN(){
//brsrici=document.getElementById("totalsvg").getAttribute("name")
if(brsrici=="ei"){window.SVGaffichN()}else{
top.frames.Num0.frames.couches.zoom.SVGaffichN()
}
}
var strokewidthpas
var strokepas
var opacpas
function passon(a){
strokepas=a.getAttribute('stroke')
a.setAttribute('stroke','navy');
opacpas=a.getAttribute('fill-opacity')
a.setAttribute('fill-opacity','0.5')  
}
function passout(a){
a.setAttribute('fill-opacity',opacpas)
a.setAttribute('stroke',strokepas);
}
function svggeneral(){

brsrici=document.getElementById("totalsvg").getAttribute("name")
if(brsrici=="ei"){window.SVGgeneral()}else{
top.frames.Num0.frames[2].indic1()
}}
function svgdown(a){
//brsrici=document.getElementById("totalsvg").getAttribute("name")
if(brsrici=="ei"){window.SVGdown()}else{
top.frames.Num0.frames.couches.zoom.selxsvg();top.frames.Num0.frames.couches.zoom.rien();
}}
function svgclick1(){
//brsrici=document.getElementById("totalsvg").getAttribute("name")
if(brsrici=="ei"){window.SVGclick1()}else{
top.frames.Num0.frames.couches.zoom.valNoDatx(NoDatx);top.frames.Num0.frames.couches.zoom.transDATA();top.frames.Num0.frames.couches.zoom.carte()
}
}
function svgclick2(){
//brsrici=document.getElementById("totalsvg").getAttribute("name")
if(brsrici=="ei"){window.SVGclick2()}else{
top.frames.Num0.frames.couches.zoom.valNoDatx2(NoDatx);top.frames.Num0.frames.couches.zoom.transDATA();top.frames.Num0.frames.couches.zoom.carte()
}}
function svgout(){
//brsrici=document.getElementById("totalsvg").getAttribute("name")
if(brsrici=="ei"){window.SVGout()}else{
//top.frames.Num0.frames.couches.zoom0()
//<image x="10" Y="10" width="300" height="300" xlink:href="fonds france contour.jpg" ></image>
}}
]]></script>

  <metadata
     id="metadata7">
    <rdf:RDF>
      <cc:Work
         rdf:about="">
        <dc:format>image/svg+xml</dc:format>
        <dc:type
           rdf:resource="http://purl.org/dc/dcmitype/StillImage" />
      </cc:Work>
    </rdf:RDF>
  </metadata>

<defs>
<radialGradient id="grad1" >
 <stop class="begin" offset="0" style="stop-color:#5555AA"/>
 <stop class="end" offset="1" style="stop-color:white"/>
</radialGradient>
</defs>

<g space="preserve" opacity="1" transform="matrix(0.3, 0, 0, 0.3, 0, 0)"  name="ns" id="totalsvg">






	 
	 

	
<rect y="-150" x="-150" height="800" width="800" style="fill: url(#grad1) ; fill-opacity: 1; fill-rule: evenodd; stroke: rgb(0, 0, 0); stroke-width: 0.5; stroke-linecap: butt; stroke-linejoin: miter; stroke-opacity: 1;"  transform="matrix(1, 0, 0, 1, 0, 0)" fill="#EBEFF8" id="rectmove"></rect>


<g space="preserve" opacity="1" transform="matrix(1, 0, 0, 1, -160, -15)"   id="calageAires">




<image opacity="0" href="transparent.png" height="0" width="0" y="-60" x="0" transform="matrix(1, 0, 0, 1, 0, 0)" id="imagesfond1"/>

<image opacity="0" href="transparent.png" height="0" width="0" y="-60" x="0" transform="matrix(1, 0, 0, 1, 0, 0)" id="imagesfond2"/>


<g onmouseout="javascript:passout(this)" onmouseover="javascript:passon(this)" ident="1" title="ARDENNES" transform="matrix(1, 0, 0, 1, 0, 0)" stroke-miterlimit="10" stroke-linecap="butt" stroke-linejoin="miter" stroke-width="0.5" fill="#EFF2F9" stroke="#7f7f7f"  onclick="tailCarte='../800-ARDENNES';parent.cartechoisie(tailCarte);parent.document.getElementById('menucartelaX').style.display='none'" style="color:blue;cursor:pointer" id="1"><path stroke-width="1" stroke="gray" id="p1" d="M 352.10324133611687 186.72988392484353 L 368.1113411273486 186.72988392484353 L 385.71463131524007 200.06794697286017 L 389.4506993736952 204.8700463465554 L 395.31883006263047 207.5400830897704 L 406.528139039666 203.80401503131526 L 409.7273348643006 204.33868350730694 L 413.4623010438413 212.33997870563684 L 419.8617916492693 210.72587807933206 L 438.00636450939453 210.74038079331945 L 442.80846388308976 207.00541461377878 L 448.67769645093944 211.27394739039676 L 458.28189519832983 202.7368818371608 L 455.6140622129436 200.60261544885185 L 457.7483286012526 190.99841670146145 L 461.4832947807933 189.931283507307 L 463.08399457202506 176.59211565762013 L 458.81546179540715 168.58861670146143 L 464.15112776617957 153.64875198329855 L 480.15812860125254 160.05155114822554 L 492.4301603340292 147.779519415449 L 460.41616158663885 124.83615281837166 L 445.47629686847597 118.43335365344473 L 436.4056647181628 121.63475323590819 L 436.4056647181628 101.89278914405014 L 433.7378317327766 97.09068977035497 L 427.3350325678497 93.8892901878915 L 435.87209812108557 65.6102576200418 L 429.4692989561587 59.74102505219213 L 415.5965674321503 75.21445929018802 L 416.66370062630483 89.62075741127353 L 405.4587991649269 90.6878906054281 L 391.0525010438413 99.22495615866404 L 372.911236743215 94.95642338204601 L 369.70983716075153 97.62425636743222 L 368.10913736951983 104.0270555323591 L 371.3105369519833 105.62775532359092 L 367.0420041753653 126.43685260960342 L 370.77697035490604 130.1718217118999 L 358.50493862212943 141.91028684759925 L 355.8371056367432 151.5144855949896 L 349.9678701461378 149.91378580375795 L 347.8336037578288 151.5144855949896 L 352.1021394572025 160.5851177453028 L 351.56857286012524 170.1893164926932 L 348.9007369519833 170.7228830897704 L 348.9007369519833 175.52498246346562 L 352.63570605427975 179.79351524008354 L 352.10324133611687 186.72988392484353 352.10324133611687 186.72988392484353 "></path><title>ARDENNES</title></g>
<g onmouseout="javascript:passout(this)" onmouseover="javascript:passon(this)" ident="1" title="MARNE" transform="matrix(1, 0, 0, 1, 0, 0)" stroke-miterlimit="10" stroke-linecap="butt" stroke-linejoin="miter" stroke-width="0.5" fill="#EFF2F9" stroke="#7f7f7f"   onclick="tailCarte='../800-MARNE';parent.cartechoisie(tailCarte);parent.document.getElementById('menucartelaX').style.display='none'" style="color:blue;cursor:pointer"  id="2"><path stroke-width="1" stroke="gray" id="p2" d="M 368.10913736951983 186.72988392484353 L 385.71683507306886 200.0690488517746 L 389.4518012526096 204.87114822546982 L 395.3210338204593 207.53898121085604 L 406.5259323590814 203.80401503131526 L 409.7273348643006 204.33758162839257 L 413.4623010438413 212.3410805845512 L 419.86510020876824 210.74038079331945 L 438.00526263048016 210.74038079331945 L 442.8095657620041 207.00431273486436 L 444.9427302713988 208.6061144050105 L 448.676594572025 211.27284551148233 L 451.3455294363257 215.00891356993748 L 448.1441298538622 219.81101294363265 L 457.2147620041753 249.69074530271408 L 455.6140622129436 252.35857828810026 L 457.7483286012526 253.959278079332 L 457.2147620041753 258.7613774530272 L 446.5434300626305 266.23130981210863 L 448.1441298538622 275.83550855949903 L 443.342030480167 284.3725741127349 L 449.74482964509394 284.9061407098121 L 456.68119540709813 295.5774726513571 L 455.0816004175365 300.91093486430066 L 435.3385315240083 303.0452012526097 L 432.66959665970774 307.8338997912318 L 440.14063089770355 309.45020709812115 L 439.6070643006263 313.7187389979124 L 432.6706985386221 316.38657227557417 L 433.7378317327766 327.05790480167025 L 421.99936659707726 325.99077160751574 L 418.26440041753654 324.39007152400836 L 405.99236576200417 325.45720471816287 L 389.4518012526096 321.72223853862215 L 382.51543549060546 315.3194390814197 L 384.11393152400836 304.1156430062631 L 381.44830229645095 297.7084334029228 L 357.97357578288097 302.51273653444684 L 336.09734530271396 320.652900125261 L 331.2963478079332 330.77506000000005 L 309.9670818371607 327.59036864300634 L 300.3439702296451 315.8508004592902 L 295.544075782881 311.58447260960344 L 290.7419761169102 314.25230588726527 L 290.7419761169102 297.71173903966604 L 283.8056100626305 292.37607306889356 L 287.0070099373695 284.9061407098121 L 292.34267620041754 283.83900751565767 L 296.61120897703546 268.36557620041765 L 311.5510751565762 252.89214488517752 L 310.4839419624217 248.09004551148234 L 302.48044183716075 248.62361210855957 L 302.48044183716075 243.82151273486437 L 307.81610897703547 240.6201102296452 L 304.0811419206681 230.4823448851775 L 320.62170730688933 226.21381210855958 L 309.41680876826723 218.21031315240094 L 308.3496755741127 201.6697486430063 L 336.62870521920667 188.33058371607524 L 349.43430354906053 194.73338288100217 L 352.1021394572025 186.72988392484353 368.10913736951983 186.72988392484353 "></path><title>MARNE</title></g>
<g onmouseout="javascript:passout(this)" onmouseover="javascript:passon(this)" ident="1" title="AUBE" transform="matrix(1, 0, 0, 1, 0, 0)" stroke-miterlimit="10" stroke-linecap="butt" stroke-linejoin="miter" stroke-width="0.5" fill="#EFF2F9" stroke="#7f7f7f"   onclick="tailCarte='../800-AUBE';parent.cartechoisie(tailCarte);parent.document.getElementById('menucartelaX').style.display='none'" style="color:blue;cursor:pointer"  id="3"><path id="p3" d="M 309.9503753653445 327.59147139874744 L 331.29303924843424 330.7928709812109 L 336.0951386221294 320.6551053444677 L 357.9713720250522 302.51384133611697 L 381.44830229645095 297.71173903966604 L 384.11613528183716 304.11454112734873 L 382.5310400835073 315.3060382463466 L 389.4585878914405 321.71893085594996 L 406.002460960334 325.4538970354907 L 418.2699127348643 324.3755682254698 L 421.99936659707726 325.99077160751574 L 419.8673039665971 338.2650089979124 L 440.15844217119 357.47230475991654 L 441.7402288100209 377.7434258872652 L 441.74133068893525 395.35112359081427 L 431.60576910229645 393.7526304801671 L 423.61677286012525 400.155429645094 L 429.46819707724427 406.558228810021 L 427.3350325678497 410.29429686847607 L 413.99586764091856 409.22716367432156 L 410.7944680584551 414.56283256784974 L 411.32803465553235 418.8313653444677 L 338.7629716075156 427.90199749478086 L 341.96437118997915 421.4991983298539 L 339.2965382045929 415.62996576200425 L 336.0951386221294 418.8313653444677 L 322.75597369519835 394.820865553236 L 323.8231068893528 392.1530325678498 L 321.1552739039666 387.35093319415455 L 314.75247473903966 394.820865553236 L 310.4839419624217 385.75023340292285 L 304.61470851774527 386.81736659707735 L 304.61470851774527 385.2166668058456 L 308.88324217119 381.48170062630487 L 307.81610897703547 373.47820167014623 L 295.01050918580376 355.8705025052193 L 287.0070099373695 358.5383354906055 L 283.2720434655532 338.7963704634656 L 292.8762427974948 322.25580513569946 L 300.3461754488518 315.85300567849697 309.9503753653445 327.59147139874744 "></path><title>AUBE</title></g>
<g onmouseout="javascript:passout(this)" onmouseover="javascript:passon(this)" ident="1" title="HAUTE-MARNE" transform="matrix(1, 0, 0, 1, 0, 0)" stroke-miterlimit="10" stroke-linecap="butt" stroke-linejoin="miter" stroke-width="0.5" fill="#EFF2F9" stroke="#7f7f7f"   onclick="tailCarte='../800-HAUTE-MARNE';parent.cartechoisie(tailCarte);parent.document.getElementById('menucartelaX').style.display='none'" style="color:blue;cursor:pointer"  id="4"><path id="p4" d="M 429.4692989561587 406.55933068893535 L 423.60006638830896 400.1565315240084 L 431.60356534446765 393.7537323590815 L 441.74133068893525 395.35443215031324 L 441.74133068893525 377.74673444676415 L 440.14063089770355 357.471202296451 L 419.86510020876824 338.26280383716085 L 421.99936659707726 325.9896688517746 L 433.7378317327766 327.0601100208769 L 432.67180041753653 316.3843670563675 L 439.6248755741127 313.72094421711904 L 440.1562354906054 309.4513089770355 L 432.6706985386221 307.84950730688945 L 435.3385315240083 303.0474079331942 L 455.08049561586637 300.91314154488526 L 457.2147620041753 313.7187389979124 L 461.4832947807933 311.05090688935286 L 510.0378580375783 341.99777022129445 L 502.0343590814196 347.3334363674322 L 503.63505887265137 355.8705025052193 L 508.4371582463466 353.20266922755746 L 529.2462584551148 364.941134947808 L 536.7161908141962 374.0117682672235 L 537.7833240083507 379.3474342379959 L 530.3133916492693 395.8879987473905 L 546.8539561586639 411.3614300626306 L 545.2532563674322 416.69709895615875 L 554.3238885177452 414.56283256784974 L 556.9917215031315 424.16703131524014 L 536.7161908141962 440.17402922755747 L 537.2497574112734 459.9159933194155 L 529.7798250521921 464.1845260960335 L 523.9105924843424 458.848860125261 L 506.3028918580376 463.65095949895624 L 500.96722588726516 478.05726054279756 L 497.76582630480164 475.38942755741135 L 490.2958939457202 480.1915269311065 L 488.6951941544885 476.99012734864306 L 490.8294605427975 473.2551611691024 L 480.15812860125254 465.25165929018794 L 475.3560292275574 469.5201920668059 L 457.7483286012526 459.38242672233827 L 451.8790960334029 448.17752818371616 L 459.34902839248434 443.37542881002094 L 447.07699665970773 424.16703131524014 L 443.342030480167 430.0362638830899 L 441.207764091858 427.3684308977036 L 444.4091636743215 423.6334647181629 L 443.87559707724427 419.36493194154497 L 437.47279791231733 417.7642321503132 L 440.14063089770355 413.49569645093953 L 436.4056647181628 411.3614300626306 L 431.0699987473904 412.9621298538623 L 427.3350325678497 410.29429686847607 429.4692989561587 406.55933068893535 "></path><title>HAUTE-MARNE</title></g>



</g>
</g>








<script><![CDATA[


]]></script>


</svg>