<?xml version="1.0" encoding="UTF-8" standalone="no"?>

<!DOCTYPE svg PUBLIC "-//W3C//DTD SVG 1.1//EN"
  "http://www.w3.org/Graphics/SVG/1.1/DTD/svg11.dtd"
[
    <!ENTITY ns_flows "http://ns.adobe.com/Flows/1.0/">
	<!ENTITY ns_svg "http://www.w3.org/2000/svg">
	<!ENTITY ns_xlink "http://www.w3.org/1999/xlink">
]>

<svg id="gene"  
xmlns="http://www.w3.org/2000/svg"
xmlns:xlink="http://www.w3.org/1999/xlink"
xmlns:xul="http://www.mozilla.org/keymaster/gatekeeper/there.is.only.xul"

   xmlns:dc="http://purl.org/dc/elements/1.1/"
   xmlns:cc="http://web.resource.org/cc/"
   xmlns:rdf="http://www.w3.org/1999/02/22-rdf-syntax-ns#"
   xmlns:svg="http://www.w3.org/2000/svg"
 

   xmlns:sodipodi="http://inkscape.sourceforge.net/DTD/sodipodi-0.dtd"
   xmlns:inkscape="http://www.inkscape.org/namespaces/inkscape"


>


<script id="scrpt"  language="javascript" ><![CDATA[
var brsrici="ei"


function affichN(){
//brsrici=document.getElementById("totalsvg").getAttribute("name")
if(brsrici=="ei"){window.SVGaffichN()}else{
top.frames.Num0.frames.couches.zoom.SVGaffichN()
}
}
var strokewidthpas
var strokepas
var opacpas
function passon(a){
strokepas=a.getAttribute('stroke')
a.setAttribute('stroke','navy');
opacpas=a.getAttribute('fill-opacity')
a.setAttribute('fill-opacity','0.5')  
}
function passout(a){
a.setAttribute('fill-opacity',opacpas)
a.setAttribute('stroke',strokepas);
}
function svggeneral(){

brsrici=document.getElementById("totalsvg").getAttribute("name")
if(brsrici=="ei"){window.SVGgeneral()}else{
top.frames.Num0.frames[2].indic1()
}}
function svgdown(a){
//brsrici=document.getElementById("totalsvg").getAttribute("name")
if(brsrici=="ei"){window.SVGdown()}else{
top.frames.Num0.frames.couches.zoom.selxsvg();top.frames.Num0.frames.couches.zoom.rien();
}}
function svgclick1(){
//brsrici=document.getElementById("totalsvg").getAttribute("name")
if(brsrici=="ei"){window.SVGclick1()}else{
top.frames.Num0.frames.couches.zoom.valNoDatx(NoDatx);top.frames.Num0.frames.couches.zoom.transDATA();top.frames.Num0.frames.couches.zoom.carte()
}
}
function svgclick2(){
//brsrici=document.getElementById("totalsvg").getAttribute("name")
if(brsrici=="ei"){window.SVGclick2()}else{
top.frames.Num0.frames.couches.zoom.valNoDatx2(NoDatx);top.frames.Num0.frames.couches.zoom.transDATA();top.frames.Num0.frames.couches.zoom.carte()
}}
function svgout(){
//brsrici=document.getElementById("totalsvg").getAttribute("name")
if(brsrici=="ei"){window.SVGout()}else{
//top.frames.Num0.frames.couches.zoom0()
//<image x="10" Y="10" width="300" height="300" xlink:href="fonds france contour.jpg" ></image>
}}
]]></script>

  <metadata
     id="metadata7">
    <rdf:RDF>
      <cc:Work
         rdf:about="">
        <dc:format>image/svg+xml</dc:format>
        <dc:type
           rdf:resource="http://purl.org/dc/dcmitype/StillImage" />
      </cc:Work>
    </rdf:RDF>
  </metadata>

<defs>
<radialGradient id="grad1" >
 <stop class="begin" offset="0" style="stop-color:#5555AA"/>
 <stop class="end" offset="1" style="stop-color:white"/>
</radialGradient>
</defs>

<g space="preserve" opacity="1" transform="matrix(0.3, 0, 0, 0.3, 0, 0)"  name="ns" id="totalsvg">






	 
	 

	
<rect y="-150" x="-150" height="800" width="800" style="fill: url(#grad1) ; fill-opacity: 1; fill-rule: evenodd; stroke: rgb(0, 0, 0); stroke-width: 0.5; stroke-linecap: butt; stroke-linejoin: miter; stroke-opacity: 1;"  transform="matrix(1, 0, 0, 1, 0, 0)" fill="#EBEFF8" id="rectmove"></rect>


<g space="preserve" opacity="1" transform="matrix(1, 0, 0, 1, -160, -15)"   id="calageAires">




<image opacity="0" href="transparent.png" height="0" width="0" y="-60" x="0" transform="matrix(1, 0, 0, 1, 0, 0)" id="imagesfond1"/>

<image opacity="0" href="transparent.png" height="0" width="0" y="-60" x="0" transform="matrix(1, 0, 0, 1, 0, 0)" id="imagesfond2"/>


<g onmouseout="javascript:passout(this)" onmouseover="javascript:passon(this)" ident="1" title="EURE et LOIRE" transform="matrix(1, 0, 0, 1, 0, 0)" stroke-miterlimit="10" stroke-linecap="butt" stroke-linejoin="miter" stroke-width="0.5" fill="#EFF2F9" stroke="#7f7f7f"  onclick="tailCarte='../800-EURE-ET-LOIRE';parent.cartechoisie(tailCarte);parent.document.getElementById('menucartelaX').style.display='none'" style="color:blue;cursor:pointer" id="1"><path stroke-width="1" stroke="gray" id="p1" d="M 340.1455710545455 99.51337963636365 L 379.3729754181818 82.85514109090917 L 390.65756901818185 87.15404727272733 L 400.33008043636363 82.85514109090917 L 398.18063345454544 75.86945672727279 L 408.9278653090909 68.88374181818187 L 408.39050356363634 60.8233156363637 L 411.6146740363637 59.748604363636446 L 418.0630149818182 64.04748000000012 L 426.1234381090909 91.9903090909092 L 421.28718545454547 96.28918472727275 L 442.7816522181819 121.00781890909104 L 446.0058226909091 134.97924872727276 L 456.21569279999994 141.9649330909092 L 459.4398632727273 139.27812436363644 L 464.2761189818182 152.71216800000008 L 465.88820421818184 167.22092290909097 L 461.58931025454547 182.26706400000006 L 452.4541605818182 197.8505607272728 L 428.8102468363636 199.99998327272738 L 413.76412101818187 206.98569818181824 L 413.22675927272724 214.5087687272728 L 405.70369483636364 210.2098625454546 L 403.55424785454545 210.74721818181825 L 403.55424785454545 215.58348000000007 L 385.8213133090909 218.80764436363643 L 368.6257405090909 201.61208072727277 L 368.08837876363634 196.77581890909102 L 355.72906167272725 194.6263658181819 L 361.64003781818184 191.40220145454555 L 357.8785056 188.17803709090919 L 350.8928059636364 194.6263658181819 L 337.9961240727273 193.55165454545465 L 340.1455710545455 189.79013454545458 L 347.6686354909091 188.71539272727279 L 335.30931534545454 180.11761090909096 L 337.4587623272727 177.96815781818185 L 335.8466770909091 165.0715003636364 L 332.0851479272727 160.23523854545465 L 334.23459185454544 157.0110741818183 L 340.6829328 154.32426545454558 L 351.43016770909094 145.72648363636375 L 354.11697643636364 136.59131563636373 L 351.96752945454546 121.54520509090918 L 340.1455710545455 111.87268145454556 L 340.1455710545455 99.51337963636365 340.1455710545455 99.51337963636365 "></path><title>EURE et LOIRE</title></g>
<g onmouseout="javascript:passout(this)" onmouseover="javascript:passon(this)" ident="1" title="LOIR et CHER" transform="matrix(1, 0, 0, 1, 0, 0)" stroke-miterlimit="10" stroke-linecap="butt" stroke-linejoin="miter" stroke-width="0.5" fill="#EFF2F9" stroke="#7f7f7f"   onclick="tailCarte='../358-LOIR-ET-CHER';parent.cartechoisie(tailCarte);parent.document.getElementById('menucartelaX').style.display='none'" style="color:blue;cursor:pointer"  id="2"><path stroke-width="1" stroke="gray" id="p2" d="M 350.8928059636364 194.6263658181819 L 357.8785056 188.17803709090919 L 361.64003781818184 191.40220145454555 L 355.72906167272725 194.6263658181819 L 368.08837876363634 196.77581890909102 L 368.6257405090909 201.61208072727277 L 385.8213133090909 218.80764436363643 L 403.55424785454545 215.58348000000007 L 403.55424785454545 210.74721818181825 L 405.70369483636364 210.2098625454546 L 413.22675927272724 214.5087687272728 L 418.60037672727276 213.9714130909092 L 413.22675927272724 223.10655054545458 L 421.8245472 230.62961192727278 L 414.3014827636364 240.30212334545465 L 418.60037672727276 247.82518778181827 L 415.3762062545454 249.97463476363643 L 421.28718545454547 255.88561090909099 L 423.43663243636365 252.6614404363637 L 434.1838642909091 256.9603344000001 L 437.9453965090909 268.78229280000005 L 443.8563757090909 269.8570162909092 L 447.0805461818182 266.09548407272734 L 447.6179079272727 263.94603709090916 L 457.8277780363636 264.48339883636373 L 459.97722501818185 269.3196545454546 L 466.42556596363636 265.0207605818183 L 487.9200327272727 265.55812232727277 L 493.2936501818182 271.46910152727276 L 493.2936501818182 275.23063069090915 L 482.0090535272727 279.5295246545455 L 479.3222448 285.9778656000001 L 486.3079474909091 285.9778656000001 L 488.9947562181818 292.42620654545465 L 487.3826709818182 296.1877387636364 L 491.6815649454545 297.2624592000001 L 492.75628843636366 306.39760887272735 L 490.6068414545455 310.1591410909092 L 485.7705857454546 306.93497061818186 L 478.78488305454545 310.1591410909092 L 477.17279781818183 315.5327585454546 L 482.54641527272724 325.74262865454557 L 467.50028945454545 331.6536078545455 L 461.58931025454547 328.4294373818183 L 454.0662458181818 334.87777832727284 L 455.1409693090909 338.6393105454546 L 452.9915223272727 341.3261192727274 L 448.69262836363635 339.7140340363637 L 433.6465025454546 329.5041608727273 L 427.73552334545457 332.72833134545465 L 426.1234381090909 330.57888436363646 L 413.76412101818187 332.72833134545465 L 413.76412101818187 338.6393105454546 L 407.8531418181818 334.34041658181826 L 391.19493076363636 342.93820450909095 L 379.3729754181818 327.3547138909091 L 368.6257405090909 329.5041608727273 L 364.3268465454546 322.51845818181823 L 367.01365527272725 311.23386458181824 L 365.40157003636364 306.39760887272735 L 367.5510170181818 303.17343840000007 L 366.47629352727273 297.7998209454546 L 362.1773995636364 297.7998209454546 L 360.56531432727274 287.5899508363637 L 362.71476130909093 283.2910568727273 L 357.34114385454546 275.23063069090915 L 354.65433818181816 278.992162909091 L 352.5048912 273.0811867636364 L 346.59391200000005 272.0064632727274 L 339.07084756363633 276.8427159272728 L 337.9961240727273 263.40867534545464 L 312.7401250909091 259.6471431272728 L 310.59068116363636 254.81088741818186 L 329.9357009454545 237.61531461818188 L 328.8609774545455 226.3307210181819 L 331.5477861818182 224.71863578181822 L 334.23459185454544 227.94280625454556 L 337.4587623272727 220.41974181818188 L 336.38403883636363 213.43402690909096 L 337.4587623272727 206.98569818181824 L 333.6972331636364 203.76153381818187 L 333.6972331636364 200.5373694545455 L 338.5334858181818 199.46262763636372 L 337.9961240727273 193.55165454545465 350.8928059636364 194.6263658181819 "></path><title>LOIR et CHER</title></g>
<g onmouseout="javascript:passout(this)" onmouseover="javascript:passon(this)" ident="1" title="LOIRET" transform="matrix(1, 0, 0, 1, 0, 0)" stroke-miterlimit="10" stroke-linecap="butt" stroke-linejoin="miter" stroke-width="0.5" fill="#EFF2F9" stroke="#7f7f7f"   onclick="tailCarte='../358-LOIRET';parent.cartechoisie(tailCarte);parent.document.getElementById('menucartelaX').style.display='none'" style="color:blue;cursor:pointer"  id="3"><path id="p3" d="M 493.2936501818182 271.46910152727276 L 487.9200327272727 265.55812232727277 L 466.42556596363636 265.0207605818183 L 459.97722501818185 269.3196545454546 L 457.8277780363636 264.48339883636373 L 447.6179079272727 263.94603709090916 L 447.0805461818182 266.09548407272734 L 443.8563757090909 269.8570162909092 L 437.9453965090909 268.78229280000005 L 434.1838642909091 256.9603344000001 L 423.43663243636365 252.6614404363637 L 421.28718545454547 255.88561090909099 L 415.3762062545454 249.97463476363643 L 418.60037672727276 247.82518778181827 L 414.3014827636364 240.30212334545465 L 421.8245472 230.62961192727278 L 413.22675927272724 223.10655054545458 L 418.60037672727276 213.9714130909092 L 413.22675927272724 214.5087687272728 L 413.76412101818187 206.98569818181824 L 428.8102468363636 199.99998327272738 L 452.4541605818182 197.8505607272728 L 461.58931025454547 182.26706400000006 L 465.88820421818184 167.22092290909097 L 490.06947970909096 158.08578545454554 L 513.7133934545454 161.30994981818185 L 523.9232727272727 182.26706400000006 L 521.2364640000001 187.64068145454553 L 515.325490909091 191.40220145454555 L 546.4924538181818 190.8648458181819 L 546.4924538181818 186.56597018181822 L 554.0155243636364 185.49122836363642 L 554.0155243636364 189.79013454545458 L 561.0012087272728 187.10332581818193 L 571.211088 185.49122836363642 L 590.5561047272727 210.74721818181825 L 586.7945847272726 222.56918880000006 L 575.5099941818182 229.5548884363637 L 578.1968029090908 247.2878260363637 L 559.9264974545455 252.1240786909092 L 559.3891418181819 259.10978138181827 L 561.0012087272728 260.18450487272736 L 569.0616349090909 265.55812232727277 L 573.8978967272727 283.2910568727273 L 559.3891418181819 285.9778656000001 L 561.538594909091 289.20203607272737 L 554.5528800000001 293.50093003636374 L 547.567165090909 287.0525890909091 L 545.4177425454546 295.65037701818187 L 538.9693832727272 297.2624592000001 L 538.9693832727272 291.8888448000001 L 512.6386821818181 275.7679924363637 L 507.8024142545455 280.60424814545456 L 493.2936501818182 275.23063069090915 493.2936501818182 271.46910152727276 "></path><title>LOIRET</title></g>
<g onmouseout="javascript:passout(this)" onmouseover="javascript:passon(this)" ident="1" title="CHER" transform="matrix(1, 0, 0, 1, 0, 0)" stroke-miterlimit="10" stroke-linecap="butt" stroke-linejoin="miter" stroke-width="0.5" fill="#EFF2F9" stroke="#7f7f7f"   onclick="tailCarte='../358-CHER';parent.cartechoisie(tailCarte);parent.document.getElementById('menucartelaX').style.display='none'" style="color:blue;cursor:pointer"  id="4"><path id="p4" d="M 452.9915223272727 341.3261192727274 L 455.1409693090909 338.6393105454546 L 454.0662458181818 334.87777832727284 L 461.58931025454547 328.4294373818183 L 467.50028945454545 331.6536078545455 L 482.54641527272724 325.74262865454557 L 477.17279781818183 315.5327585454546 L 478.78488305454545 310.1591410909092 L 485.7705857454546 306.93497061818186 L 490.6068414545455 310.1591410909092 L 492.75628843636366 306.39760887272735 L 491.6815649454545 297.2624592000001 L 487.3826709818182 296.1877387636364 L 488.9947562181818 292.42620654545465 L 486.3079474909091 285.9778656000001 L 479.3222448 285.9778656000001 L 482.0090535272727 279.5295246545455 L 493.2936501818182 275.23063069090915 L 507.8024142545455 280.60424814545456 L 512.6386821818181 275.7679924363637 L 538.9693832727272 291.8888448000001 L 538.9693832727272 297.2624592000001 L 545.4177425454546 295.65037701818187 L 547.567165090909 287.0525890909091 L 554.5528800000001 293.50093003636374 L 561.538594909091 289.20203607272737 L 569.0616349090909 303.17343840000007 L 562.0759505454546 320.9063729454546 L 563.1506618181818 323.5931816727274 L 576.0473498181818 334.34041658181826 L 583.0330341818182 367.6568386909091 L 584.6451316363637 400.435902109091 L 580.8836116363636 407.42160480000007 L 572.8231854545455 409.03369003636374 L 549.7166181818183 421.39300712727277 L 545.9550981818182 417.63147490909097 L 531.4463127272727 433.2149655272728 L 532.5210545454545 447.18636785454555 L 524.997984 454.70943229090915 L 505.11560552727275 453.63470880000006 L 496.51781760000006 469.755558109091 L 482.54641527272724 469.2181963636364 L 482.54641527272724 463.84457890909096 L 484.1585005090909 434.2896890181819 L 473.4112656 414.94466618181826 L 476.6354360727273 411.1831370181819 L 470.72445992727273 403.66007258181827 L 482.0090535272727 390.22602894545463 L 478.2475213090909 390.22602894545463 L 472.87390385454546 385.38977629090914 L 477.17279781818183 376.79198836363645 L 469.6497364363637 368.1942004363637 L 471.26182167272725 364.9700330181819 L 470.72445992727273 358.5216920727274 L 465.3508424727273 362.2832242909092 L 465.3508424727273 355.8348833454546 L 455.1409693090909 359.0590538181819 L 442.7816522181819 354.222798109091 L 448.69262836363635 339.7140340363637 452.9915223272727 341.3261192727274 "></path><title>CHER</title></g>
<g onmouseout="javascript:passout(this)" onmouseover="javascript:passon(this)" ident="1" title="INDRE" transform="matrix(1, 0, 0, 1, 0, 0)" stroke-miterlimit="10" stroke-linecap="butt" stroke-linejoin="miter" stroke-width="0.5" fill="#EFF2F9" stroke="#7f7f7f"   onclick="tailCarte='../358-INDRE';parent.cartechoisie(tailCarte);parent.document.getElementById('menucartelaX').style.display='none'" style="color:blue;cursor:pointer"  id="5"><path id="p5" d="M 407.8531418181818 334.34041658181826 L 413.76412101818187 338.6393105454546 L 413.76412101818187 332.72833134545465 L 426.1234381090909 330.57888436363646 L 427.73552334545457 332.72833134545465 L 433.6465025454546 329.5041608727273 L 448.69262836363635 339.7140340363637 L 442.7816522181819 354.222798109091 L 455.1409693090909 359.0590538181819 L 465.3508424727273 355.8348833454546 L 465.3508424727273 362.2832242909092 L 470.72445992727273 358.5216920727274 L 471.26182167272725 364.9700330181819 L 469.6497364363637 368.1942004363637 L 477.17279781818183 376.79198836363645 L 472.87390385454546 385.38977629090914 L 478.2475213090909 390.22602894545463 L 482.0090535272727 390.22602894545463 L 470.72445992727273 403.66007258181827 L 476.6354360727273 411.1831370181819 L 473.4112656 414.94466618181826 L 484.1585005090909 434.2896890181819 L 482.54641527272724 469.2181963636364 L 446.0058226909091 467.06874938181824 L 441.1695669818182 463.30721716363644 L 436.87067301818183 463.30721716363644 L 433.6465025454546 474.5918138181819 L 430.4223320727273 470.2929198545455 L 425.58607941818184 474.5918138181819 L 422.36190894545456 472.9797285818183 L 422.89927069090913 469.755558109091 L 413.76412101818187 474.5918138181819 L 413.22675927272724 469.2181963636364 L 400.33008043636363 479.96543127272736 L 393.8817394909091 473.5170903272728 L 385.8213133090909 472.9797285818183 L 384.7465898181818 477.81598429090917 L 378.29825192727276 477.81598429090917 L 374.5367197090909 476.2038990545455 L 375.0740814545455 468.6808346181819 L 369.16310225454544 463.30721716363644 L 369.16310225454544 456.85887927272734 L 362.71476130909093 449.87317658181826 L 356.26642341818183 450.4105383272728 L 355.19169992727274 445.5742826181819 L 348.20599723636366 443.96219738181827 L 342.2950180363637 435.9017712000001 L 343.36974152727277 426.2292628363637 L 342.8323797818182 423.00509236363644 L 339.07084756363633 416.01938967272736 L 346.05655025454547 415.4820279272728 L 350.35544421818184 417.63147490909097 L 355.19169992727274 413.86994269090917 L 353.57961469090907 407.42160480000007 L 361.10267607272726 376.79198836363645 L 368.08837876363634 370.88100916363646 L 375.61144320000005 368.7315621818183 L 383.1345045818182 372.4930944000001 L 393.34437774545455 352.61071287272733 L 391.19493076363636 342.93820450909095 407.8531418181818 334.34041658181826 "></path><title>INDRE</title></g>
<g onmouseout="javascript:passout(this)" onmouseover="javascript:passon(this)" ident="1" title="INDRE et LOIRE" transform="matrix(1, 0, 0, 1, 0, 0)" stroke-miterlimit="10" stroke-linecap="butt" stroke-linejoin="miter" stroke-width="0.5" fill="#EFF2F9" stroke="#7f7f7f"   onclick="tailCarte='../358-INDRE-ET-LOIRE';parent.cartechoisie(tailCarte);parent.document.getElementById('menucartelaX').style.display='none'" style="color:blue;cursor:pointer"  id="6"><path id="p6" d="M 346.05655025454547 415.4820279272728 L 350.35544421818184 417.63147490909097 L 355.19169992727274 413.86994269090917 L 353.57961469090907 407.42160480000007 L 361.10267607272726 376.79198836363645 L 368.08837876363634 370.88100916363646 L 375.61144320000005 368.7315621818183 L 383.1345045818182 372.4930944000001 L 393.34437774545455 352.61071287272733 L 391.19493076363636 342.93820450909095 L 379.3729754181818 327.3547138909091 L 368.6257405090909 329.5041608727273 L 364.3268465454546 322.51845818181823 L 367.01365527272725 311.23386458181824 L 365.40157003636364 306.39760887272735 L 367.5510170181818 303.17343840000007 L 366.47629352727273 297.7998209454546 L 362.1773995636364 297.7998209454546 L 360.56531432727274 287.5899508363637 L 362.71476130909093 283.2910568727273 L 356.80378516363635 275.23063069090915 L 354.65433818181816 278.992162909091 L 352.5048912 273.0811867636364 L 346.59391200000005 272.0064632727274 L 339.07084756363633 276.8427159272728 L 337.9961240727273 263.40867534545464 L 312.7401250909091 259.6471431272728 L 293.3951053090909 270.93173978181824 L 287.48412916363634 267.70756930909096 L 284.79732043636363 269.8570162909092 L 287.48412916363634 277.38007767272734 L 285.3346821818182 280.0668864000001 L 270.8259150545455 271.46910152727276 L 261.1534066909091 308.009694109091 L 260.6160449454546 311.23386458181824 L 251.48089527272728 329.5041608727273 L 249.86881003636364 347.23709541818187 L 265.4522976 362.2832242909092 L 274.5874472727273 363.8953095272728 L 275.66217076363637 381.62824407272734 L 306.2917872 378.40407360000006 L 307.3665106909091 376.2546266181819 L 304.14234021818186 372.4930944000001 L 311.1280398545455 370.3436474181819 L 318.11374254545456 375.71726487272736 L 320.26318952727274 387.5392232727273 L 326.7115304727273 396.67436989090913 L 339.07084756363633 416.01938967272736 346.05655025454547 415.4820279272728 "></path><title>INDRE et LOIRE</title></g>



</g>
</g>








<script><![CDATA[


]]></script>


</svg>