<?xml version="1.0" encoding="UTF-8" standalone="no"?>

<!DOCTYPE svg PUBLIC "-//W3C//DTD SVG 1.1//EN"
  "http://www.w3.org/Graphics/SVG/1.1/DTD/svg11.dtd"
[
    <!ENTITY ns_flows "http://ns.adobe.com/Flows/1.0/">
	<!ENTITY ns_svg "http://www.w3.org/2000/svg">
	<!ENTITY ns_xlink "http://www.w3.org/1999/xlink">
]>

<svg id="gene"  
xmlns="http://www.w3.org/2000/svg"
xmlns:xlink="http://www.w3.org/1999/xlink"
xmlns:xul="http://www.mozilla.org/keymaster/gatekeeper/there.is.only.xul"

   xmlns:dc="http://purl.org/dc/elements/1.1/"
   xmlns:cc="http://web.resource.org/cc/"
   xmlns:rdf="http://www.w3.org/1999/02/22-rdf-syntax-ns#"
   xmlns:svg="http://www.w3.org/2000/svg"
 

   xmlns:sodipodi="http://inkscape.sourceforge.net/DTD/sodipodi-0.dtd"
   xmlns:inkscape="http://www.inkscape.org/namespaces/inkscape"


>


<script id="scrpt"  language="javascript" ><![CDATA[
var brsrici="ei"


function affichN(){
//brsrici=document.getElementById("totalsvg").getAttribute("name")
if(brsrici=="ei"){window.SVGaffichN()}else{
top.frames.Num0.frames.couches.zoom.SVGaffichN()
}
}
var strokewidthpas
var strokepas
var opacpas
function passon(a){
strokepas=a.getAttribute('stroke')
a.setAttribute('stroke','navy');
opacpas=a.getAttribute('fill-opacity')
a.setAttribute('fill-opacity','0.5')  
}
function passout(a){
a.setAttribute('fill-opacity',opacpas)
a.setAttribute('stroke',strokepas);
}
function svggeneral(){

brsrici=document.getElementById("totalsvg").getAttribute("name")
if(brsrici=="ei"){window.SVGgeneral()}else{
top.frames.Num0.frames[2].indic1()
}}
function svgdown(a){
//brsrici=document.getElementById("totalsvg").getAttribute("name")
if(brsrici=="ei"){window.SVGdown()}else{
top.frames.Num0.frames.couches.zoom.selxsvg();top.frames.Num0.frames.couches.zoom.rien();
}}
function svgclick1(){
//brsrici=document.getElementById("totalsvg").getAttribute("name")
if(brsrici=="ei"){window.SVGclick1()}else{
top.frames.Num0.frames.couches.zoom.valNoDatx(NoDatx);top.frames.Num0.frames.couches.zoom.transDATA();top.frames.Num0.frames.couches.zoom.carte()
}
}
function svgclick2(){
//brsrici=document.getElementById("totalsvg").getAttribute("name")
if(brsrici=="ei"){window.SVGclick2()}else{
top.frames.Num0.frames.couches.zoom.valNoDatx2(NoDatx);top.frames.Num0.frames.couches.zoom.transDATA();top.frames.Num0.frames.couches.zoom.carte()
}}
function svgout(){
//brsrici=document.getElementById("totalsvg").getAttribute("name")
if(brsrici=="ei"){window.SVGout()}else{
//top.frames.Num0.frames.couches.zoom0()
//<image x="10" Y="10" width="300" height="300" xlink:href="fonds france contour.jpg" ></image>
}}
]]></script>

  <metadata
     id="metadata7">
    <rdf:RDF>
      <cc:Work
         rdf:about="">
        <dc:format>image/svg+xml</dc:format>
        <dc:type
           rdf:resource="http://purl.org/dc/dcmitype/StillImage" />
      </cc:Work>
    </rdf:RDF>
  </metadata>

<defs>
<radialGradient id="grad1" >
 <stop class="begin" offset="0" style="stop-color:#5555AA"/>
 <stop class="end" offset="1" style="stop-color:white"/>
</radialGradient>
</defs>

<g space="preserve" opacity="1" transform="matrix(0.3, 0, 0, 0.3, 0, 0)"  name="ns" id="totalsvg">






	 
	 

	
<rect y="-150" x="-150" height="800" width="800" style="fill: url(#grad1) ; fill-opacity: 1; fill-rule: evenodd; stroke: rgb(0, 0, 0); stroke-width: 0.5; stroke-linecap: butt; stroke-linejoin: miter; stroke-opacity: 1;"  transform="matrix(1, 0, 0, 1, 0, 0)" fill="#EBEFF8" id="rectmove"></rect>


<g space="preserve" opacity="1" transform="matrix(1, 0, 0, 1, -160, -15)"   id="calageAires">




<image opacity="0" href="transparent.png" height="0" width="0" y="-60" x="0" transform="matrix(1, 0, 0, 1, 0, 0)" id="imagesfond1"/>

<image opacity="0" href="transparent.png" height="0" width="0" y="-60" x="0" transform="matrix(1, 0, 0, 1, 0, 0)" id="imagesfond2"/>


<g onmouseout="javascript:passout(this)" onmouseover="javascript:passon(this)" ident="1" title="CORSE du SUD" transform="matrix(1, 0, 0, 1, 0, 0)" stroke-miterlimit="10" stroke-linecap="butt" stroke-linejoin="miter" stroke-width="0.5" fill="#EFF2F9" stroke="#7f7f7f"  onclick="tailCarte='../358-CORSE-DU-SUD';parent.cartechoisie(tailCarte);parent.document.getElementById('menucartelaX').style.display='none'" style="color:blue;cursor:pointer" id="1"><path stroke-width="1" stroke="gray" id="p1" d="M 482.2166003062787 351.7535568147015 L 470.2074946401225 362.1222505359878 L 469.6468718223583 358.3162594180705 L 454.88418376722814 357.2294274119449 L 459.24975895865236 345.7181085758041 L 457.07140290964776 340.27561286370604 L 452.1540712098009 339.71603200612566 L 453.80230750382844 310.7275548238898 L 441.21406493108725 311.83680826952536 L 435.73715237366 304.71948055130173 L 433.0286797856049 290.5046448698316 L 426.45424548238896 286.67987917304754 L 419.34187350689126 266.982130015314 L 393.1069754977029 252.76911776416546 L 384.3463672281776 241.28621807044416 L 384.89317120980087 234.18270918836146 L 378.882228330781 238.02207519142428 L 331.8491972434916 222.14413598774894 L 324.7446464012251 225.43774318529867 L 326.38506059724347 233.63981577335383 L 332.9467180245023 228.71857029096483 L 339.5083754517611 233.63981577335383 L 334.5871325421133 238.01425405819305 L 335.6807421133231 240.20147320061264 L 351.53808009188356 247.856738591118 L 350.444472128637 250.59076171516088 L 324.7446464012251 258.792834303216 L 332.3999133996937 283.3990488514549 L 347.71044707503825 292.1479254211333 L 353.1784952526799 291.0543174578868 L 361.92737182235834 306.36485145482396 L 344.9764233078101 317.300947166922 L 347.1636424502297 323.315797396631 L 342.78920416539046 327.6902356814702 L 336.7743516845329 325.5030165390506 L 334.0403275957121 328.23704287902 L 337.86796093415006 333.70508912710574 L 336.22754673813165 340.8135505359878 L 359.7401526799387 341.9071617151609 L 363.0209797856049 336.9859194486984 L 370.6762483920367 336.9859194486984 L 373.9570754977029 345.7347960183768 L 366.3018101071975 357.76449969372135 L 367.9422252679939 362.1389379785606 L 366.3018101071975 368.1537914241961 L 356.45932235834607 370.3410105666157 L 358.6465415007657 374.7154488514549 L 348.8040569678407 382.3707142419603 L 354.81891041347626 388.93237166921904 L 365.2081989280245 384.0111294027566 L 370.12944441041344 387.8387637059725 L 365.75500612557425 392.21320199081174 L 371.22305237366 393.85361393568155 L 374.5038826952526 391.66639479326193 L 394.7356589586524 397.1344442572742 L 394.7356589586524 401.5088825421134 L 388.72080551301684 402.05568652373665 L 385.98678238897395 408.61734395099546 L 370.6762483920367 412.4449782542114 L 367.9422252679939 422.83426998468616 L 372.31666355283306 431.58314333843805 L 419.88867748851453 456.18936110260347 L 425.90353093415 450.7213116385912 L 425.35672695252674 458.9233842266463 L 433.5587963246554 461.1106033690659 L 428.6375540581929 473.14030833078107 L 436.2928226646248 472.04669875957126 L 452.15016064318525 479.7019654364472 L 457.61820689127103 473.14030833078107 L 457.61820689127103 464.3914304747321 L 452.6969646248085 468.7658700459419 L 453.24376860643184 458.9233842266463 L 463.0862563552833 452.3617267993875 L 465.27347549770286 446.34687335375196 L 463.63306033690657 439.2384119448699 L 481.13081347626337 422.28746278713635 L 470.74152174578865 419.5534396630935 L 465.27347549770286 425.0214891271057 L 464.7266715160796 418.4598316998469 L 469.10110980091883 415.72580535987754 L 467.4606946401225 412.4449782542114 L 470.1947177641654 412.4449782542114 L 477.30317917304745 415.72580535987754 L 477.8499831546707 410.8045630934151 L 482.2244214395099 410.8045630934151 L 484.41164058192953 402.6024905053599 L 481.67761745788664 399.32166339969376 L 488.23927488514545 393.85361393568155 L 486.59885972434915 371.98142251148556 L 488.23927488514545 363.7793531393569 L 487.7002920367534 352.8265699846861 482.2166003062787 351.7535568147015  "></path><title>CORSE du SUD</title></g>
<g onmouseout="javascript:passout(this)" onmouseover="javascript:passon(this)" ident="1" title="HAUTE CORSE" transform="matrix(1, 0, 0, 1, 0, 0)" stroke-miterlimit="10" stroke-linecap="butt" stroke-linejoin="miter" stroke-width="0.5" fill="#EFF2F9" stroke="#7f7f7f"   onclick="tailCarte='../358-HAUTE-CORSE';parent.cartechoisie(tailCarte);parent.document.getElementById('menucartelaX').style.display='none'" style="color:blue;cursor:pointer"  id="2"><path stroke-width="1" stroke="gray" id="p2" d="M 331.85310845329246 222.156912863706 L 378.87832098009187 238.01425405819305 L 384.89317120980087 234.1866197549771 L 384.3463672281776 241.29508116385918 L 393.095243797856 252.77798085758047 L 419.34187350689126 266.99490689127117 L 426.45033491577334 286.67987917304754 L 433.01199234303215 290.50751026033697 L 435.746015467075 304.7244362940276 L 441.21406493108725 311.83289770290975 L 453.7905758039816 310.73928973966315 L 452.15016064318525 339.7199425727413 L 457.07140290964776 340.26674655436454 L 459.2586220520674 345.7347960183768 L 454.88418376722814 357.2176957120981 L 469.6479137825421 358.3113036753447 L 470.1947177641654 362.1389379785606 L 482.2244214395099 351.7496462480858 L 487.6924709035222 352.8432574272589 L 490.426494027565 336.43911225114863 L 488.23927488514545 329.8774548238898 L 515.5795157733537 291.0543174578868 L 515.5795157733537 244.02910428790207 L 510.65827029096477 219.96969372128643 L 511.2050774885146 197.55069831546717 L 509.0178583460949 170.21046707503837 L 499.72217457886677 157.63394333843803 L 493.7073243491577 148.33827565084232 L 498.0817626339969 122.09165237366011 L 504.6434200612557 114.43636447166932 L 494.80093231240426 68.50476569678415 L 489.3328860643185 59.75590199081165 L 475.66276401225116 61.396313935681576 L 475.66276401225116 82.7217013782543 L 470.1947177641654 89.83015313935692 L 472.381936906585 100.21946094946406 L 468.00749862174575 106.23430474732015 L 474.5691560490046 118.26399234303227 L 474.0223520673813 131.9341240428791 L 470.1947177641654 137.40216385911185 L 465.27347549770286 146.6978637059725 L 457.61820689127103 137.40216385911185 L 452.15016064318525 129.74690811638595 L 447.77572235834606 133.5745359877489 L 440.667260949464 130.84051607963255 L 428.6375540581929 134.12133996937223 L 419.88867748851453 143.4170398162329 L 420.98228866768756 149.97868759571213 L 410.59299693721283 155.44672741194495 L 397.4696820826952 157.08713935681476 L 374.5038826952526 166.92964318529874 L 372.31666355283306 174.03809494640132 L 365.2081989280245 175.67850689127113 L 365.2081989280245 172.3976830015315 L 358.6465415007657 171.3040750382849 L 357.0061295558958 172.3976830015315 L 356.45932235834607 182.24016431852993 L 353.7252992343032 186.61460260336918 L 346.0700328790199 187.7082137825422 L 343.88281373660027 197.0038943338439 L 349.89766493108726 199.19111347626347 L 346.0700328790199 209.03359800918844 L 343.88281373660027 214.50164747320065 L 338.4147658805513 211.22081715160806 L 331.85310845329246 222.156912863706 331.85310845329246 222.156912863706 "></path><title>HAUTE CORSE</title></g>



</g>
</g>








<script><![CDATA[


]]></script>


</svg>