<?xml version="1.0" encoding="UTF-8" standalone="no"?>

<!DOCTYPE svg PUBLIC "-//W3C//DTD SVG 1.1//EN"
  "http://www.w3.org/Graphics/SVG/1.1/DTD/svg11.dtd"
[
    <!ENTITY ns_flows "http://ns.adobe.com/Flows/1.0/">
	<!ENTITY ns_svg "http://www.w3.org/2000/svg">
	<!ENTITY ns_xlink "http://www.w3.org/1999/xlink">
]>

<svg id="gene"  
xmlns="http://www.w3.org/2000/svg"
xmlns:xlink="http://www.w3.org/1999/xlink"
xmlns:xul="http://www.mozilla.org/keymaster/gatekeeper/there.is.only.xul"

   xmlns:dc="http://purl.org/dc/elements/1.1/"
   xmlns:cc="http://web.resource.org/cc/"
   xmlns:rdf="http://www.w3.org/1999/02/22-rdf-syntax-ns#"
   xmlns:svg="http://www.w3.org/2000/svg"
 

   xmlns:sodipodi="http://inkscape.sourceforge.net/DTD/sodipodi-0.dtd"
   xmlns:inkscape="http://www.inkscape.org/namespaces/inkscape"


>


<script id="scrpt"  language="javascript" ><![CDATA[
var brsrici="ei"


function affichN(){
//brsrici=document.getElementById("totalsvg").getAttribute("name")
if(brsrici=="ei"){window.SVGaffichN()}else{
top.frames.Num0.frames.couches.zoom.SVGaffichN()
}
}
var strokewidthpas
var strokepas
var opacpas
function passon(a){
strokepas=a.getAttribute('stroke')
a.setAttribute('stroke','navy');
opacpas=a.getAttribute('fill-opacity')
a.setAttribute('fill-opacity','0.5')  
}
function passout(a){
a.setAttribute('fill-opacity',opacpas)
a.setAttribute('stroke',strokepas);
}
function svggeneral(){

brsrici=document.getElementById("totalsvg").getAttribute("name")
if(brsrici=="ei"){window.SVGgeneral()}else{
top.frames.Num0.frames[2].indic1()
}}
function svgdown(a){
//brsrici=document.getElementById("totalsvg").getAttribute("name")
if(brsrici=="ei"){window.SVGdown()}else{
top.frames.Num0.frames.couches.zoom.selxsvg();top.frames.Num0.frames.couches.zoom.rien();
}}
function svgclick1(){
//brsrici=document.getElementById("totalsvg").getAttribute("name")
if(brsrici=="ei"){window.SVGclick1()}else{
top.frames.Num0.frames.couches.zoom.valNoDatx(NoDatx);top.frames.Num0.frames.couches.zoom.transDATA();top.frames.Num0.frames.couches.zoom.carte()
}
}
function svgclick2(){
//brsrici=document.getElementById("totalsvg").getAttribute("name")
if(brsrici=="ei"){window.SVGclick2()}else{
top.frames.Num0.frames.couches.zoom.valNoDatx2(NoDatx);top.frames.Num0.frames.couches.zoom.transDATA();top.frames.Num0.frames.couches.zoom.carte()
}}
function svgout(){
//brsrici=document.getElementById("totalsvg").getAttribute("name")
if(brsrici=="ei"){window.SVGout()}else{
//top.frames.Num0.frames.couches.zoom0()
//<image x="10" Y="10" width="300" height="300" xlink:href="fonds france contour.jpg" ></image>
}}
]]></script>

  <metadata
     id="metadata7">
    <rdf:RDF>
      <cc:Work
         rdf:about="">
        <dc:format>image/svg+xml</dc:format>
        <dc:type
           rdf:resource="http://purl.org/dc/dcmitype/StillImage" />
      </cc:Work>
    </rdf:RDF>
  </metadata>

<defs>
<radialGradient id="grad1" >
 <stop class="begin" offset="0" style="stop-color:#5555AA"/>
 <stop class="end" offset="1" style="stop-color:white"/>
</radialGradient>
</defs>

<g space="preserve" opacity="1" transform="matrix(0.3, 0, 0, 0.3, 0, 0)"  name="ns" id="totalsvg">






	 
	 

	
<rect y="-150" x="-150" height="800" width="800" style="fill: url(#grad1) ; fill-opacity: 1; fill-rule: evenodd; stroke: rgb(0, 0, 0); stroke-width: 0.5; stroke-linecap: butt; stroke-linejoin: miter; stroke-opacity: 1;"  transform="matrix(1, 0, 0, 1, 0, 0)" fill="#EBEFF8" id="rectmove"></rect>


<g space="preserve" opacity="1" transform="matrix(1, 0, 0, 1, -160, -15)"   id="calageAires">




<image opacity="0" href="transparent.png" height="0" width="0" y="-60" x="0" transform="matrix(1, 0, 0, 1, 0, 0)" id="imagesfond1"/>

<image opacity="0" href="transparent.png" height="0" width="0" y="-60" x="0" transform="matrix(1, 0, 0, 1, 0, 0)" id="imagesfond2"/>


<g onmouseout="javascript:passout(this)" onmouseover="javascript:passon(this)" ident="1" title="DORDOGNE" transform="matrix(1, 0, 0, 1, 0, 0)" stroke-miterlimit="10" stroke-linecap="butt" stroke-linejoin="miter" stroke-width="0.5" fill="#EFF2F9" stroke="#7f7f7f"  onclick="tailCarte='../800-DORDOGNE';parent.cartechoisie(tailCarte);parent.document.getElementById('menucartelaX').style.display='none'" style="color:blue;cursor:pointer" id="1"><path stroke-width="1" stroke="gray" id="p1" d="M 441.7346792428198 143.10157480417763 L 450.6460237597911 126.949770234987 L 458.6025646214099 130.05284373368147 L 472.60610208877284 117.4019036553525 L 472.446959921671 103.00054503916454 L 510.2405831592689 59.95561135770242 L 525.5171647519583 64.72954464751967 L 524.0849812010445 73.87959281984342 L 529.0976154046997 78.25568028720636 L 535.0650313315928 71.49260013054834 L 549.0685468668407 73.6408644908617 L 556.3090041775457 84.62091736292439 L 560.3668593994778 83.10917232375988 L 565.2203514360314 86.21221840731073 L 560.2077144908617 92.65703890339432 L 580.1786788511749 110.24102976501314 L 571.187742689295 131.40544386422988 L 589.8061096605744 145.170283159269 L 592.2726227154047 180.4973549608356 L 556.7068499999999 223.06491148825074 L 542.6397998694516 214.95626044386432 L 531.1798613577023 220.2087332898173 L 527.0415509138381 215.83167532637083 L 530.0656989556136 209.86295992167106 L 524.9723956919061 204.92880979112277 L 521.5503305483028 208.11212741514368 L 510.80665652741516 208.35087493472594 L 509.6924941253264 204.37173681462144 L 480.00810313315924 209.86295992167106 L 473.88023459530024 195.37887610966067 L 471.4126194516971 189.3291407310706 L 475.2317463446475 183.91868537859017 L 469.4234725848564 179.70171540469988 L 463.0582355091384 186.38521214099222 L 439.6659736292428 181.05431553524812 L 451.83950913838123 149.78507154047008 L 449.13428146214096 143.18113355091396 L 441.7346792428198 143.10157480417763 441.7346792428198 143.10157480417763  "></path><title>DORDOGNE</title></g>
<g onmouseout="javascript:passout(this)" onmouseover="javascript:passon(this)" ident="1" title="GIRONDE" transform="matrix(1, 0, 0, 1, 0, 0)" stroke-miterlimit="10" stroke-linecap="butt" stroke-linejoin="miter" stroke-width="0.5" fill="#EFF2F9" stroke="#7f7f7f"   onclick="tailCarte='../800-GIRONDE';parent.cartechoisie(tailCarte);parent.document.getElementById('menucartelaX').style.display='none'" style="color:blue;cursor:pointer"  id="2"><path stroke-width="1" stroke="gray" id="p2" d="M 340.1067336814621 77.12370626631866 L 337.4010234986945 81.18227154047003 L 363.02562924281983 106.1702428198434 L 379.41900783289816 110.78585639686696 L 384.51211096605743 111.1837323759791 L 385.5466488250653 107.84138772845955 L 387.1382349869451 109.67173237597922 L 387.05864882506523 114.76483550913838 L 400.90548955613576 117.55010443864234 L 405.2027859007833 137.20624151436039 L 407.51059268929504 133.70475195822456 L 427.485046997389 145.80083420365537 L 433.4535156657963 142.29931723237604 L 441.73162793733684 143.0865211488251 L 444.9172840731071 142.54461422976505 L 449.1342266318538 143.1771556135771 L 451.8377765013055 149.7886163185379 L 439.6659736292428 181.05431553524812 L 463.0582355091384 186.38521214099222 L 469.4234725848564 179.70171540469988 L 475.2337229765013 183.910611618799 L 471.4126194516971 189.33153133159277 L 473.88023459530024 195.37887610966067 L 453.4274326370757 203.33717154047002 L 461.4653060052219 209.38546214099222 L 449.2095497389034 225.36482271540478 L 441.82513002610966 224.5857693211489 L 440.9210909921671 244.0904925587468 L 442.7633365535248 251.64393485639692 L 432.97465535248045 253.23559503916454 L 437.43128851174936 265.09343063968674 L 427.4834541775457 270.58465182767634 L 422.39222075718016 266.5230552610967 L 417.21955887728456 265.5680797127938 L 417.21955887728456 274.1626806266319 L 412.04686684073107 275.7542963968669 L 399.8711874673629 273.0485672976502 L 400.9852731070496 261.90743455613585 L 374.96273381201047 244.39989712793744 L 376.23601370757183 238.3518285900784 L 371.3020582245431 236.04400261096612 L 369.0738321148825 238.19266174934734 L 354.11285639686685 241.0575278067886 L 346.07529830287206 237.07854869451705 L 334.45666174934723 239.5455113577024 L 339.9476600522193 230.87134073107057 L 339.0722835509138 226.73319477806794 L 335.3320382506527 227.36980456919068 L 329.44313765013055 223.47042258485646 L 327.6923838250653 229.43892140992176 L 323.47462402088775 225.45992036553534 L 321.56472062663187 223.47043080939955 L 317.5857415143603 226.81277545691916 L 317.5061967493473 230.4734373368147 L 311.4581279373368 232.0650234986946 L 311.298955613577 221.08306527415152 L 315.19834856396864 215.91037597911236 L 312.57222454308095 210.260224543081 L 328.48814099216713 90.89096083550919 L 328.48814099216713 85.08166449086167 L 338.3560026109661 72.7468237597912 L 338.3560026109661 72.7468237597912 340.1067336814621 77.12370626631866 "></path><title>GIRONDE</title></g>
<g onmouseout="javascript:passout(this)" onmouseover="javascript:passon(this)" ident="1" title="LOT-et-GARONNE" transform="matrix(1, 0, 0, 1, 0, 0)" stroke-miterlimit="10" stroke-linecap="butt" stroke-linejoin="miter" stroke-width="0.5" fill="#EFF2F9" stroke="#7f7f7f"   onclick="tailCarte='../358-LOT-et-GARONNE';parent.cartechoisie(tailCarte);parent.document.getElementById('menucartelaX').style.display='none'" style="color:blue;cursor:pointer"  id="3"><path id="p3" d="M 547.0964330287206 229.4403223237599 L 544.8681054830288 227.4507642297651 L 543.75394308094 228.24658472584863 L 548.4493429503916 244.3223067885118 L 551.075571148825 244.7998018276763 L 551.5530661879895 254.1110099216711 L 539.1381375979113 256.3393155352481 L 536.9894071801566 251.4051873368147 L 534.5223321148824 251.72351005221938 L 531.5777812010444 262.1488813707573 L 540.0135524804177 267.3217579112272 L 536.5119093994778 272.4150589817233 L 537.6260745430809 273.5292227545692 L 534.7610796344647 279.4183426762403 L 530.3044464751958 278.86127161879904 L 529.429028851175 281.5670730665797 L 533.7265116187989 286.2624539921672 L 530.9411138381201 288.57035678851184 L 525.688640992167 286.02372750000006 L 523.3807382506527 285.7053828524805 L 523.6990828981723 290.6395117362925 L 519.1628526109661 291.2761796475196 L 517.0936973890339 295.81240938642304 L 517.3324449086163 297.56321968668414 L 511.6024770234987 299.95071928198445 L 510.8862317232376 302.33819749347265 L 509.13542389033944 303.0544408746737 L 502.8483830287206 295.65323706266327 L 497.9142328981724 298.1998875979113 L 494.41258981723234 297.9611398041776 L 487.09098368146215 299.3140513707573 L 486.1359716710183 301.7015295822455 L 481.44059099216713 302.41777296344657 L 479.68978041775455 304.8848480287207 L 473.7210622715405 304.646100234987 L 473.0843949086162 306.3173350652742 L 463.6936335509139 303.92985685378596 L 464.3302789817232 302.8952685509139 L 459.5553231070496 303.134016618799 L 457.008672845953 305.91941494778075 L 456.69032819843346 309.10273339425595 L 453.9845275456919 308.7048346605745 L 454.4620225848564 305.91941494778075 L 453.109109921671 304.80525117493477 L 447.6974866840731 307.7498218276763 L 446.18540169712793 302.41777296344657 L 446.18306044386424 302.4157867362925 L 453.7457772845953 287.1378697519583 L 443.7979237597911 285.8645551762403 L 439.89836357702353 282.9995813224544 L 431.06467245430804 281.8853963851176 L 426.8467868146214 282.12416553524815 L 425.9713691906005 271.5396432767625 L 427.4834541775457 270.58465182767634 L 437.43128851174936 265.09343063968674 L 432.97465535248045 253.23559503916454 L 442.7633365535248 251.64393485639692 L 440.9329507832898 244.0835784595301 L 441.80834373368145 224.5857693211489 L 449.2095497389034 225.381609007833 L 461.4653060052219 209.38546214099222 L 453.4274326370757 203.33717154047002 L 473.88023459530024 195.37887610966067 L 480.00810313315924 209.86295992167106 L 509.6924941253264 204.37173681462144 L 510.80665652741516 208.35087493472594 L 521.5503305483028 208.11212741514368 L 524.9723956919061 204.92880979112277 L 530.0656989556136 209.86295992167106 L 527.0415509138381 215.83167532637083 L 530.6227691906006 219.81081344647527 L 542.6397998694516 214.95626044386432 L 556.7068499999999 223.06491148825074 547.0964330287206 229.4403223237599 "></path><title>LOT-et-GARONNE</title></g>
<g onmouseout="javascript:passout(this)" onmouseover="javascript:passon(this)" ident="1" title="LANDES" transform="matrix(1, 0, 0, 1, 0, 0)" stroke-miterlimit="10" stroke-linecap="butt" stroke-linejoin="miter" stroke-width="0.5" fill="#EFF2F9" stroke="#7f7f7f"   onclick="tailCarte='../358-LANDES';parent.cartechoisie(tailCarte);parent.document.getElementById('menucartelaX').style.display='none'" style="color:blue;cursor:pointer"  id="4"><path id="p4" d="M 447.0619378590078 317.5336198433421 L 445.23161788511743 319.9210127937338 L 437.0348902088773 314.9074875979113 L 440.13852297650135 311.0876753263708 L 435.84120744125323 307.18826400783297 L 428.9973595300261 313.8729744125327 L 416.1850127937337 317.6132169712795 L 414.354659921671 318.88646945169717 L 419.52735195822453 323.50208851174943 L 418.25407206266317 324.0591614882507 L 418.6519754569191 331.6988161879896 L 414.9117328981723 331.778383159269 L 415.3096362924282 340.213847389034 L 417.93576579634464 340.7708902088774 L 418.01533550913837 342.2829066579635 L 412.04686684073107 346.18231879895563 L 410.2961110966057 356.84600639686687 L 408.8636643603133 355.8910327676241 L 408.6249278067885 359.47213864229775 L 411.80813028720627 359.7904421671019 L 411.0826351174935 363.6128890339426 L 407.984682767624 364.16740966057444 L 402.17554268929507 368.9420584856398 L 395.491037075718 366.79348433420375 L 390.1593289817232 368.38503211488256 L 389.8410199738903 366.47517258485647 L 392.3079058746737 363.61038328981726 L 390.4776379895561 361.85967963446484 L 378.7797332898172 369.1808087467364 L 377.98395939947784 367.03219895561364 L 374.3233962140992 369.57867924281993 L 368.11635274151433 366.47517258485647 L 370.26492689295037 364.08784817232385 L 360.8747851174935 368.14628459530036 L 356.6571955613577 363.05332676240215 L 333.10222973890336 368.7829053524805 L 332.62476485639684 373.00052780678857 L 320.36983351174933 370.93151240208886 L 316.15221105744126 374.6716370757181 L 314.08322882506525 372.84137193211495 L 318.2212577154047 370.05614412532645 L 311.6958723368146 365.8385545691907 L 301.03249041775456 372.52306292428204 L 296.41699691906007 371.4089772845954 L 292.75643291122714 372.4434685378591 L 287.82262930809395 371.8864421671019 L 286.62898327676237 369.4991177545693 L 282.8888257049608 368.70334386422985 L 283.2867290992167 366.6343284595301 L 281.45643105744125 365.5202428198434 L 279.1486684073107 367.1117933420366 L 276.60222101827674 366.71388994778073 L 283.28690154046996 355.2543928198434 L 285.7538943603133 349.9225613577024 L 286.54967263707573 344.67029960835515 L 302.78362613577025 278.7684104960836 L 311.4581279373368 232.0650234986946 L 317.5061967493473 230.4734373368147 L 317.9836698563969 236.7602424281985 L 320.05272885117495 237.23771553524813 L 327.6923838250653 229.43892140992176 L 329.44313765013055 223.47042258485646 L 335.3320382506527 227.36980456919068 L 339.0722835509138 226.73319477806794 L 339.9476600522193 230.87134073107057 L 334.45666174934723 239.5455113577024 L 346.07529830287206 237.07854869451705 L 354.11285639686685 241.0575278067886 L 369.0738321148825 238.19266174934734 L 371.3020582245431 236.04400261096612 L 376.23601370757183 238.3518285900784 L 374.96273381201047 244.39989712793744 L 400.9852731070496 261.90743455613585 L 399.8711874673629 273.0485672976502 L 412.04686684073107 275.7542963968669 L 417.21955887728456 274.1626806266319 L 417.21955887728456 265.5680797127938 L 422.39222075718016 266.5230552610967 L 427.4834541775457 270.58465182767634 L 425.9713691906005 271.5396432767625 L 426.8467868146214 282.12416553524815 L 431.06467245430804 281.8853963851176 L 439.89836357702353 282.9995813224544 L 443.7979237597911 285.8645551762403 L 453.7457772845953 287.1378697519583 L 446.18540169712793 302.41777296344657 L 447.6974866840731 307.7498218276763 L 448.89122428198436 307.1927507702351 447.0619378590078 317.5336198433421 "></path><title>Landes</title></g>
<g onmouseout="javascript:passout(this)" onmouseover="javascript:passon(this)" ident="1" title="PYRENEES-ATLANTIQUES" transform="matrix(1, 0, 0, 1, 0, 0)" stroke-miterlimit="10" stroke-linecap="butt" stroke-linejoin="miter" stroke-width="0.5" fill="#EFF2F9" stroke="#7f7f7f"   onclick="tailCarte='../800-PYRENEES-ATLANTIQUES';parent.cartechoisie(tailCarte);parent.document.getElementById('menucartelaX').style.display='none'" style="color:blue;cursor:pointer"  id="5"><path id="p5" d="M 427.64033733681464 365.0427779373369 L 427.5607429503916 370.77235652741524 L 430.74384125326367 370.2948916449087 L 435.4389285900783 381.3561783289818 L 430.42553224543076 382.47026122715414 L 431.30090052219316 389.9505462140993 L 437.1896349869452 385.33502036553534 L 437.4283496083551 396.39630430809405 L 439.8952684073107 399.81815287206274 L 438.14456475195817 402.36463041775465 L 434.0860954308094 401.88716553524813 L 431.85792689295033 407.6963385117494 L 434.96143355091385 410.32238028720633 L 428.9135761096606 424.00970600522203 L 423.6614624020888 423.37308524804183 L 414.74875261096605 435.30970731070505 L 416.101585770235 441.5167836814622 L 411.72481018276767 444.3019785900784 L 409.33751592689293 442.94914543080944 L 407.8255597911227 443.58576618798963 L 408.1438386422976 445.81393472584864 L 407.1889088772846 447.72382441253274 L 404.80158446475195 448.1216976501306 L 405.2790493472585 458.1484601827677 L 400.10649712793736 460.9336879895562 L 399.8677825065274 472.870307310705 L 397.48045809399474 472.3132507832899 L 392.2283443864229 477.72451762402096 L 381.1670577023499 473.1090246736293 L 375.43747911227155 480.1914364229766 L 356.816348694517 462.3660826370758 L 354.98605339425586 451.7822608355092 L 348.46069817232376 454.09002375979117 L 302.62404011749345 438.81111736292434 L 296.25784186684075 434.43437193211497 L 300.8733356396867 427.51111331592693 L 295.3825056657963 428.2273284595301 L 292.51771637075717 431.09211775456924 L 291.2444767754569 440.2435120104439 L 282.0930509921671 437.21956684073115 L 279.06910691906006 431.9674531331593 L 285.9923633420365 423.2935237597912 L 289.7324888381201 407.37802950391654 L 286.70854449086164 404.3540514360314 L 285.1169950652741 405.30898120104445 L 278.27333302872063 403.0012511749348 L 277.0000915143603 401.01179725848573 L 270.6338949086162 401.33010900783296 L 269.59937075718017 406.82097023498704 L 264.66556605744125 405.38857558746747 L 264.7451604438642 398.7836287206267 L 257.1057223237598 397.35123407310715 L 253.20641161879894 399.3406879895562 L 252.72894673629241 394.32729164490866 L 247.79514203655353 391.3033464751959 L 258.9359902088773 385.01670861618805 L 260.44797650130545 386.4491032637077 L 260.76628825065274 384.69839960835515 L 262.3578360313316 383.7435027415144 L 262.99445678851174 384.141373237598 L 269.28106174934726 377.9343297650131 L 276.60222101827674 366.71388994778073 L 279.1486684073107 367.1117933420366 L 281.45643105744125 365.5202428198434 L 283.2867290992167 366.6343284595301 L 282.8888257049608 368.70334386422985 L 286.62898327676237 369.4991177545693 L 287.83819507832897 371.88207767624027 L 292.75643291122714 372.4434685378591 L 296.41699691906007 371.4089772845954 L 301.03249041775456 372.52306292428204 L 311.70639947780677 365.81993968668417 L 318.2212577154047 370.05614412532645 L 314.08380673629244 372.84387493472593 L 316.15221105744126 374.6716370757181 L 320.36983351174933 370.93151240208886 L 332.62476485639684 373.00052780678857 L 333.10222973890336 368.7829053524805 L 356.6571955613577 363.05332676240215 L 360.8747851174935 368.14628459530036 L 370.26492689295037 364.08784817232385 L 368.11635274151433 366.47517258485647 L 374.3233962140992 369.57867924281993 L 377.98395939947784 367.03219895561364 L 378.7797332898172 369.1808087467364 L 390.4776379895561 361.85967963446484 L 392.3079058746737 363.61038328981726 L 389.8522190600522 366.45899765013064 L 390.1593289817232 368.38503211488256 L 395.491037075718 366.79348433420375 L 402.17554268929507 368.9420584856398 L 407.984682767624 364.16740966057444 L 411.0882223237598 363.61038328981726 427.64033733681464 365.0427779373369 "></path><title>PYRENEES-ATLANTIQUES</title></g>



</g>
</g>








<script><![CDATA[


]]></script>


</svg>