<?xml version="1.0" encoding="UTF-8" standalone="no"?>

<!DOCTYPE svg PUBLIC "-//W3C//DTD SVG 1.1//EN"
  "http://www.w3.org/Graphics/SVG/1.1/DTD/svg11.dtd"
[
    <!ENTITY ns_flows "http://ns.adobe.com/Flows/1.0/">
	<!ENTITY ns_svg "http://www.w3.org/2000/svg">
	<!ENTITY ns_xlink "http://www.w3.org/1999/xlink">
]>

<svg id="gene"  
xmlns="http://www.w3.org/2000/svg"
xmlns:xlink="http://www.w3.org/1999/xlink"
xmlns:xul="http://www.mozilla.org/keymaster/gatekeeper/there.is.only.xul"

   xmlns:dc="http://purl.org/dc/elements/1.1/"
   xmlns:cc="http://web.resource.org/cc/"
   xmlns:rdf="http://www.w3.org/1999/02/22-rdf-syntax-ns#"
   xmlns:svg="http://www.w3.org/2000/svg"
 

   xmlns:sodipodi="http://inkscape.sourceforge.net/DTD/sodipodi-0.dtd"
   xmlns:inkscape="http://www.inkscape.org/namespaces/inkscape"


>


<script id="scrpt"  language="javascript" ><![CDATA[
var brsrici="ei"


function affichN(){
//brsrici=document.getElementById("totalsvg").getAttribute("name")
if(brsrici=="ei"){window.SVGaffichN()}else{
top.frames.Num0.frames.couches.zoom.SVGaffichN()
}
}
var strokewidthpas
var strokepas
var opacpas
function passon(a){
strokepas=a.getAttribute('stroke')
a.setAttribute('stroke','navy');
opacpas=a.getAttribute('fill-opacity')
a.setAttribute('fill-opacity','0.5')  
}
function passout(a){
a.setAttribute('fill-opacity',opacpas)
a.setAttribute('stroke',strokepas);
}
function svggeneral(){

brsrici=document.getElementById("totalsvg").getAttribute("name")
if(brsrici=="ei"){window.SVGgeneral()}else{
top.frames.Num0.frames[2].indic1()
}}
function svgdown(a){
//brsrici=document.getElementById("totalsvg").getAttribute("name")
if(brsrici=="ei"){window.SVGdown()}else{
top.frames.Num0.frames.couches.zoom.selxsvg();top.frames.Num0.frames.couches.zoom.rien();
}}
function svgclick1(){
//brsrici=document.getElementById("totalsvg").getAttribute("name")
if(brsrici=="ei"){window.SVGclick1()}else{
top.frames.Num0.frames.couches.zoom.valNoDatx(NoDatx);top.frames.Num0.frames.couches.zoom.transDATA();top.frames.Num0.frames.couches.zoom.carte()
}
}
function svgclick2(){
//brsrici=document.getElementById("totalsvg").getAttribute("name")
if(brsrici=="ei"){window.SVGclick2()}else{
top.frames.Num0.frames.couches.zoom.valNoDatx2(NoDatx);top.frames.Num0.frames.couches.zoom.transDATA();top.frames.Num0.frames.couches.zoom.carte()
}}
function svgout(){
//brsrici=document.getElementById("totalsvg").getAttribute("name")
if(brsrici=="ei"){window.SVGout()}else{
//top.frames.Num0.frames.couches.zoom0()
//<image x="10" Y="10" width="300" height="300" xlink:href="fonds france contour.jpg" ></image>
}}
]]></script>

  <metadata
     id="metadata7">
    <rdf:RDF>
      <cc:Work
         rdf:about="">
        <dc:format>image/svg+xml</dc:format>
        <dc:type
           rdf:resource="http://purl.org/dc/dcmitype/StillImage" />
      </cc:Work>
    </rdf:RDF>
  </metadata>

<defs>
<radialGradient id="grad1" >
 <stop class="begin" offset="0" style="stop-color:#5555AA"/>
 <stop class="end" offset="1" style="stop-color:white"/>
</radialGradient>
</defs>

<g space="preserve" opacity="1" transform="matrix(0.3, 0, 0, 0.3, 0, 0)"  name="ns" id="totalsvg">






	 
	 

	
<rect y="-150" x="-150" height="800" width="800" style="fill: url(#grad1) ; fill-opacity: 1; fill-rule: evenodd; stroke: rgb(0, 0, 0); stroke-width: 0.5; stroke-linecap: butt; stroke-linejoin: miter; stroke-opacity: 1;"  transform="matrix(1, 0, 0, 1, 0, 0)" fill="#EBEFF8" id="rectmove"></rect>


<g space="preserve" opacity="1" transform="matrix(1, 0, 0, 1, -160, -15)"   id="calageAires">




<image opacity="0" href="transparent.png" height="0" width="0" y="-60" x="0" transform="matrix(1, 0, 0, 1, 0, 0)" id="imagesfond1"/>

<image opacity="0" href="transparent.png" height="0" width="0" y="-60" x="0" transform="matrix(1, 0, 0, 1, 0, 0)" id="imagesfond2"/>


<g onmouseout="javascript:passout(this)" onmouseover="javascript:passon(this)" ident="1" title="PYRENEES-ORIENTALES" transform="matrix(1, 0, 0, 1, 0, 0)" stroke-miterlimit="10" stroke-linecap="butt" stroke-linejoin="miter" stroke-width="0.5" fill="#EFF2F9" stroke="#7f7f7f"  onclick="tailCarte='../358-PYRENEES-ORIENTALES';parent.cartechoisie(tailCarte);parent.document.getElementById('menucartelaX').style.display='none'" style="color:blue;cursor:pointer" id="1"><path stroke-width="1" stroke="gray" id="p1" d="M 395.6064095526914 398.2327978771798 L 397.7521669446551 447.04879924184996 L 407.4080815769522 449.7309975739197 L 407.4080815769522 455.0953942380592 L 410.090279909022 456.70471387414716 L 411.69959954510995 462.6055482941623 L 405.79876194086427 462.6055482941623 L 401.50724715693707 464.7513088703564 L 395.6064095526914 457.2411548142533 L 383.268299772555 457.77759257012895 L 372.53950644427596 460.45979090219873 L 365.02935238817287 466.89706626232 L 361.2742753601213 464.7513088703564 L 350.5454829871114 470.65214329037155 L 352.69124165276725 478.6987382865808 L 338.7438119181198 476.0165399545111 L 336.0616139044731 480.30805792266875 L 318.89554648976497 467.9699449583018 L 303.33879775587565 464.21486793025025 L 288.854926762699 467.43350720242614 L 274.9074973464746 477.08941865049286 L 269.00666292645946 471.1885842304777 L 265.78802683851404 459.9233499620926 L 263.10582850644425 460.99623184230484 L 259.35075147839274 458.8504712661108 L 259.35075147839274 457.77759257012895 L 241.1118040940106 453.48607460197127 L 242.72112373009855 443.2937222137984 L 257.7414318423048 437.9293287338894 L 261.4965088703563 435.7835681576953 L 270.07954162244124 432.5649320697499 L 272.761739954511 426.66409446550426 L 290.46424639878694 426.66409446550426 L 295.2922021228203 428.8098550416983 L 304.9481164366945 420.22681910538296 L 307.6303144503412 422.372579681577 L 315.1404691432904 415.9353043214557 L 311.9218314632297 399.8421143290372 L 362.3471540561031 398.2327978771798 L 364.4929114480667 391.2590815769523 L 374.1488260803639 386.96756360879465 L 389.16913419257014 394.4777208491282 L 384.3411784685368 399.8421143290372 L 389.16913419257014 404.67007323730104 L 393.4606521607278 404.13363229719494 L 395.6064095526914 398.2327978771798 395.6064095526914 398.2327978771798 "></path><title>PYRENEES-ORIENTALES</title></g>
<g onmouseout="javascript:passout(this)" onmouseover="javascript:passon(this)" ident="1" title="HERAULT" transform="matrix(1, 0, 0, 1, 0, 0)" stroke-miterlimit="10" stroke-linecap="butt" stroke-linejoin="miter" stroke-width="0.5" fill="#EFF2F9" stroke="#7f7f7f"   onclick="tailCarte='../358-HERAULT';parent.cartechoisie(tailCarte);parent.document.getElementById('menucartelaX').style.display='none'" style="color:blue;cursor:pointer"  id="2"><path stroke-width="1" stroke="gray" id="p2" d="M 411.69959954510995 332.78716462471573 L 391.8513325246399 329.5685269446551 L 389.70557513267624 322.59481191811983 L 377.3674621683093 320.98549323730106 L 375.2217047763457 311.86601986353304 L 373.07594738438206 313.475339499621 L 375.2217047763457 319.3761742380592 L 366.6386720242608 324.74057026535263 L 360.7378356937073 333.8600436391206 L 354.837 327.95920794541325 L 354.837 320.98549323730106 L 351.61836231993937 320.98549323730106 L 351.61836231993937 324.74057026535263 L 344.1082079454132 327.95920794541325 L 341.9624492797574 321.52193258529195 L 337.6709325852919 317.23041589082646 L 340.3531305989386 306.5016231993935 L 351.0819226535254 298.45502820318427 L 350.00904363912053 290.40843639120556 L 345.18108695981806 282.3618413949963 L 350.00904363912053 267.8779710386657 L 357.5191980136467 268.95084973464753 L 361.81071502653526 275.92456603487494 L 388.63269643669446 259.831379226687 L 394.5335308567096 261.44069567854444 L 397.7521669446551 261.44069567854444 L 396.67928824867323 239.44667445034125 L 405.79876194086427 243.73818923426845 L 418.13687490523125 240.51955314632303 L 415.45467657316146 235.6915942380592 L 421.8919519332828 229.79075981804405 L 431.5478633813495 227.1085614859743 L 436.912260045489 224.96280409401066 L 440.6673370735405 228.71788112206224 L 437.9851387414708 234.6187155420774 L 441.74021576952237 235.15515648218351 L 444.4224141015921 230.3272007581502 L 448.1774911296436 228.18144018195608 L 450.8596894617134 235.6915942380592 L 456.76052388172855 237.30091387414714 L 457.29696482183465 231.93651721000765 L 461.0520418498862 227.1085614859743 L 466.9528762699014 227.1085614859743 L 468.02575815011375 220.671286125853 L 480.3638679302502 216.37977134192573 L 485.72826459438966 224.42636315390456 L 482.50962532221376 230.86363851402587 L 485.72826459438966 234.08227778620173 L 493.2384186504928 230.86363851402587 L 520.5968397270659 255.00342031842314 L 528.6434315390447 266.8050923426839 L 522.7425971190295 275.38812509476884 L 517.3782004548901 278.60676436694473 L 516.3053217589082 283.4347200909781 L 504.5036497346474 282.8982823351024 L 487.33758423047766 295.772833055345 L 474.46303351023505 305.42874450341174 L 463.1977992418499 312.9388985595149 L 449.25036982562546 329.03208727824114 L 435.8393813495072 326.8863289310084 L 419.20975360121304 339.224439666414 411.69959954510995 332.78716462471573 "></path><title>HERAULT</title></g>
<g onmouseout="javascript:passout(this)" onmouseover="javascript:passon(this)" ident="1" title="AUDE" transform="matrix(1, 0, 0, 1, 0, 0)" stroke-miterlimit="10" stroke-linecap="butt" stroke-linejoin="miter" stroke-width="0.5" fill="#EFF2F9" stroke="#7f7f7f"   onclick="tailCarte='../800-AUDE';parent.cartechoisie(tailCarte);parent.document.getElementById('menucartelaX').style.display='none'" style="color:blue;cursor:pointer"  id="3"><path id="p3" d="M 295.2922021228203 428.8098550416983 L 304.9481164366945 420.22681910538296 L 307.6303144503412 422.372579681577 L 315.1404691432904 415.9353043214557 L 311.9218314632297 399.8421143290372 L 362.3471540561031 398.2327978771798 L 364.4929114480667 391.2590815769523 L 374.1488260803639 386.96756360879465 L 389.16913419257014 394.4777208491282 L 391.31489476876425 388.0404454890069 L 394.5335308567096 388.57688324488254 L 393.9970899166035 397.6963569370736 L 395.6064095526914 398.2327978771798 L 398.2886078847612 386.96756360879465 L 395.6064095526914 383.7489275208492 L 396.67928824867323 374.0930141622442 L 403.11656360879454 357.99982608036396 L 410.090279909022 346.7345942638363 L 419.20975360121304 339.224439666414 L 411.69959954510995 332.78716462471573 L 391.8513325246399 329.5685269446551 L 389.70557513267624 322.59481191811983 L 377.3674621683093 320.98549323730106 L 375.2217047763457 311.86601986353304 L 373.07594738438206 313.475339499621 L 375.2217047763457 319.3761742380592 L 366.6386720242608 324.74057026535263 L 360.7378356937073 333.8600436391206 L 354.837 327.95920794541325 L 354.837 320.98549323730106 L 351.61836231993937 320.98549323730106 L 351.61836231993937 324.74057026535263 L 344.1082079454132 327.95920794541325 L 341.9624492797574 321.52193258529195 L 337.6709325852919 317.23041589082646 L 340.3531305989386 306.5016231993935 L 323.7235028506444 303.81942486732385 L 319.96842550416983 308.11094283548147 L 310.3125127824109 301.67366747536016 L 303.8752374222896 299.5279100833966 L 301.1930394086429 304.35586580742995 L 297.97440045489003 312.9388985595149 L 294.2193234268385 308.11094283548147 L 283.49053328279 308.64738059135715 L 276.51681698256255 302.2101084154663 L 276.51681698256255 306.5016231993935 L 260.4236301743745 305.96518544351784 L 258.8143105382866 302.2101084154663 L 250.23127778620167 310.79314116755125 L 251.84059423805914 317.76685555724043 L 245.40331887793783 316.6939762244125 L 237.89316482183472 330.104966292646 L 244.33044018195602 345.66171505837764 L 255.059233510235 351.5625507202427 L 267.3973432903715 352.6354300530706 L 271.6888612585292 378.92097052312363 L 265.78802683851404 379.4574101895376 L 267.9337842304776 383.7489275208492 L 271.6888612585292 386.43112585291897 L 270.6159825625474 395.01415860500384 L 257.7414318423048 398.2327978771798 L 270.07954162244124 414.8624256254739 L 282.95409234268385 411.643786353298 L 294.7557643669446 423.9818961334345 L 290.46424639878694 426.66409446550426 295.2922021228203 428.8098550416983 "></path><title>AUDE</title></g>
<g onmouseout="javascript:passout(this)" onmouseover="javascript:passon(this)" ident="1" title="GARD" transform="matrix(1, 0, 0, 1, 0, 0)" stroke-miterlimit="10" stroke-linecap="butt" stroke-linejoin="miter" stroke-width="0.5" fill="#EFF2F9" stroke="#7f7f7f"   onclick="tailCarte='../358-GARD';parent.cartechoisie(tailCarte);parent.document.getElementById('menucartelaX').style.display='none'" style="color:blue;cursor:pointer"  id="4"><path id="p4" d="M 436.912260045489 224.96280409401066 L 440.6673370735405 228.71788112206224 L 437.9851387414708 234.6187155420774 L 441.74021576952237 235.15515648218351 L 444.4224141015921 230.3272007581502 L 448.1774911296436 228.18144018195608 L 450.8596894617134 235.6915942380592 L 456.76052388172855 237.30091387414714 L 457.29696482183465 231.93651721000765 L 461.0520418498862 227.1085614859743 L 466.9528762699014 227.1085614859743 L 468.02575815011375 220.671286125853 L 480.3638679302502 216.37977134192573 L 485.72826459438966 224.42636315390456 L 482.50962532221376 230.86363851402587 L 485.72826459438966 234.08227778620173 L 493.2384186504928 230.86363851402587 L 520.5968397270659 255.00342031842314 L 528.6434315390447 266.8050923426839 L 522.7425971190295 275.38812509476884 L 517.3782004548901 278.60676436694473 L 516.3053217589082 283.4347200909781 L 521.6697184230478 286.653359363154 L 520.0603987869598 293.6270724791509 L 532.9349495072024 296.8457117513268 L 534.0078282031842 290.9448741470812 L 559.7569296436694 275.38812509476884 L 559.7569296436694 271.63304806671727 L 555.4654116755117 272.1694890068235 L 554.9289739196361 270.0237316148598 L 561.9026870356331 258.222059590599 L 566.7306459438969 257.1491808946172 L 576.9229983320697 259.29493828658076 L 579.6051966641395 231.400079454132 L 602.1356588324488 212.62469112964374 L 600.5263391963608 205.65097801364675 L 590.333986808188 195.45862562547387 L 587.1153507202425 197.06794526156182 L 583.8967114480668 192.77642729340414 L 585.5060310841546 177.75611918119796 L 577.4594360879454 163.8086897649735 L 554.39253297953 155.22565382865815 L 552.783213343442 166.49088491281282 L 546.8823789234268 164.3451275208492 L 548.4916985595148 156.29853252464 L 539.3722248673238 158.44429310083405 L 533.4713904473085 168.63664548900687 L 516.3053217589082 158.98073085670967 L 513.0866824867323 159.51717179681583 L 508.258726762699 161.66292918877946 L 506.6494071266111 158.44429310083405 L 508.7951677028052 156.29853252464 L 507.7222890068234 143.42398180439733 L 502.8943300985595 138.59602608036397 L 496.9934956785444 148.78837846853685 L 490.556220318423 150.9341390447309 L 498.06637437452616 170.24596512509487 L 500.21213495072027 171.31884382107665 L 498.06637437452616 174.0010421531464 L 495.9206169825625 182.04763396512516 L 499.67569401061405 185.80271099317673 L 495.3841760424564 186.33915193328284 L 489.48334162244123 191.70354859742235 L 479.2909892342684 192.23998635329798 L 464.8071188779378 183.120512661107 L 461.5884827899924 184.72983229719495 L 460.5156040940106 192.77642729340414 L 443.3495354056103 192.77642729340414 L 431.5478633813495 184.72983229719495 L 426.7199076573161 192.23998635329798 L 426.18346671720997 195.45862562547387 L 420.2826322971948 196.5315043214557 L 422.42838968915845 202.43233874147086 L 425.1105880212282 201.35946004548907 L 428.3292272934041 205.11453707354065 L 441.2037780136467 207.79673540561038 L 431.01142562547386 220.671286125853 L 429.4021059893859 227.64500242608042 436.912260045489 224.96280409401066 "></path><title>GARD</title></g>
<g onmouseout="javascript:passout(this)" onmouseover="javascript:passon(this)" ident="1" title="LOZERE" transform="matrix(1, 0, 0, 1, 0, 0)" stroke-miterlimit="10" stroke-linecap="butt" stroke-linejoin="miter" stroke-width="0.5" fill="#EFF2F9" stroke="#7f7f7f"   onclick="tailCarte='../358-LOZERE';parent.cartechoisie(tailCarte);parent.document.getElementById('menucartelaX').style.display='none'" style="color:blue;cursor:pointer"  id="5"><path id="p5" d="M 443.3495354056103 192.77642729340414 L 460.5156040940106 192.77642729340414 L 461.5884827899924 184.72983229719495 L 464.8071188779378 183.120512661107 L 479.2909892342684 192.23998635329798 L 489.48334162244123 191.70354859742235 L 495.3841760424564 186.33915193328284 L 499.67569401061405 185.80271099317673 L 495.9206169825625 182.04763396512516 L 498.06637437452616 174.0010421531464 L 500.21213495072027 171.31884382107665 L 498.06637437452616 170.24596512509487 L 490.556220318423 150.9341390447309 L 496.9934956785444 148.78837846853685 L 502.8943300985595 138.59602608036397 L 485.19182365428355 89.78002153146332 L 472.31727293404094 80.12411008339654 L 462.6613614859742 80.66054783927223 L 461.5884827899924 73.6868347232753 L 454.614766489765 72.07751508718735 L 454.0783287338893 81.73342971948455 L 442.8130944655042 84.41562805155422 L 433.15718301743743 61.885162699014415 L 428.86566504927976 59.739405307050845 L 413.8453569370735 67.24955936315399 L 414.3817978771797 73.15039378316914 L 408.48096027293406 76.90547081122065 L 403.11656360879454 69.39531675511756 L 386.48693586050035 110.16472630780902 L 397.2157291887794 122.50283927217595 L 395.6064095526914 133.7680703563306 L 405.26232418498864 141.81466535253986 L 404.1894423047763 167.56376679302508 L 402.58012585291885 173.46460121304028 L 405.26232418498864 171.31884382107665 L 414.91823563305536 178.29255693707364 L 412.2360373009856 183.120512661107 L 428.3292272934041 178.8289978771798 L 431.5478633813495 184.72983229719495 443.3495354056103 192.77642729340414 "></path><title>LOZERE</title></g>



</g>
</g>








<script><![CDATA[


]]></script>


</svg>