<?xml version="1.0" encoding="UTF-8" standalone="no"?>

<!DOCTYPE svg PUBLIC "-//W3C//DTD SVG 1.1//EN"
  "http://www.w3.org/Graphics/SVG/1.1/DTD/svg11.dtd"
[
    <!ENTITY ns_flows "http://ns.adobe.com/Flows/1.0/">
	<!ENTITY ns_svg "http://www.w3.org/2000/svg">
	<!ENTITY ns_xlink "http://www.w3.org/1999/xlink">
]>

<svg id="gene"  
xmlns="http://www.w3.org/2000/svg"
xmlns:xlink="http://www.w3.org/1999/xlink"
xmlns:xul="http://www.mozilla.org/keymaster/gatekeeper/there.is.only.xul"

   xmlns:dc="http://purl.org/dc/elements/1.1/"
   xmlns:cc="http://web.resource.org/cc/"
   xmlns:rdf="http://www.w3.org/1999/02/22-rdf-syntax-ns#"
   xmlns:svg="http://www.w3.org/2000/svg"
 

   xmlns:sodipodi="http://inkscape.sourceforge.net/DTD/sodipodi-0.dtd"
   xmlns:inkscape="http://www.inkscape.org/namespaces/inkscape"


>


<script id="scrpt"  language="javascript" ><![CDATA[
var brsrici="ei"


function affichN(){
//brsrici=document.getElementById("totalsvg").getAttribute("name")
if(brsrici=="ei"){window.SVGaffichN()}else{
top.frames.Num0.frames.couches.zoom.SVGaffichN()
}
}
var strokewidthpas
var strokepas
var opacpas
function passon(a){
strokepas=a.getAttribute('stroke')
a.setAttribute('stroke','navy');
opacpas=a.getAttribute('fill-opacity')
a.setAttribute('fill-opacity','0.5')  
}
function passout(a){
a.setAttribute('fill-opacity',opacpas)
a.setAttribute('stroke',strokepas);
}
function svggeneral(){

brsrici=document.getElementById("totalsvg").getAttribute("name")
if(brsrici=="ei"){window.SVGgeneral()}else{
top.frames.Num0.frames[2].indic1()
}}
function svgdown(a){
//brsrici=document.getElementById("totalsvg").getAttribute("name")
if(brsrici=="ei"){window.SVGdown()}else{
top.frames.Num0.frames.couches.zoom.selxsvg();top.frames.Num0.frames.couches.zoom.rien();
}}
function svgclick1(){
//brsrici=document.getElementById("totalsvg").getAttribute("name")
if(brsrici=="ei"){window.SVGclick1()}else{
top.frames.Num0.frames.couches.zoom.valNoDatx(NoDatx);top.frames.Num0.frames.couches.zoom.transDATA();top.frames.Num0.frames.couches.zoom.carte()
}
}
function svgclick2(){
//brsrici=document.getElementById("totalsvg").getAttribute("name")
if(brsrici=="ei"){window.SVGclick2()}else{
top.frames.Num0.frames.couches.zoom.valNoDatx2(NoDatx);top.frames.Num0.frames.couches.zoom.transDATA();top.frames.Num0.frames.couches.zoom.carte()
}}
function svgout(){
//brsrici=document.getElementById("totalsvg").getAttribute("name")
if(brsrici=="ei"){window.SVGout()}else{
//top.frames.Num0.frames.couches.zoom0()
//<image x="10" Y="10" width="300" height="300" xlink:href="fonds france contour.jpg" ></image>
}}
]]></script>

  <metadata
     id="metadata7">
    <rdf:RDF>
      <cc:Work
         rdf:about="">
        <dc:format>image/svg+xml</dc:format>
        <dc:type
           rdf:resource="http://purl.org/dc/dcmitype/StillImage" />
      </cc:Work>
    </rdf:RDF>
  </metadata>

<defs>
<radialGradient id="grad1" >
 <stop class="begin" offset="0" style="stop-color:#5555AA"/>
 <stop class="end" offset="1" style="stop-color:white"/>
</radialGradient>
</defs>

<g space="preserve" opacity="1" transform="matrix(0.3, 0, 0, 0.3, 0, 0)"  name="ns" id="totalsvg">






	 
	 

	
<rect y="-150" x="-150" height="800" width="800" style="fill: url(#grad1) ; fill-opacity: 1; fill-rule: evenodd; stroke: rgb(0, 0, 0); stroke-width: 0.5; stroke-linecap: butt; stroke-linejoin: miter; stroke-opacity: 1;"  transform="matrix(1, 0, 0, 1, 0, 0)" fill="#EBEFF8" id="rectmove"></rect>


<g space="preserve" opacity="1" transform="matrix(1, 0, 0, 1, -160, -15)"   id="calageAires">




<image opacity="0" href="transparent.png" height="0" width="0" y="-60" x="0" transform="matrix(1, 0, 0, 1, 0, 0)" id="imagesfond1"/>

<image opacity="0" href="transparent.png" height="0" width="0" y="-60" x="0" transform="matrix(1, 0, 0, 1, 0, 0)" id="imagesfond2"/>


<g onmouseout="javascript:passout(this)" onmouseover="javascript:passon(this)" ident="1" title="MAYENNE" transform="matrix(1, 0, 0, 1, 0, 0)" stroke-miterlimit="10" stroke-linecap="butt" stroke-linejoin="miter" stroke-width="0.5" fill="#EFF2F9" stroke="#7f7f7f"  onclick="tailCarte='../358-MAYENNE';parent.cartechoisie(tailCarte);parent.document.getElementById('menucartelaX').style.display='none'" style="color:blue;cursor:pointer" id="1"><path stroke-width="1" stroke="gray" id="p1" d="M 369.481513632 194.56197264000008 L 405.46475424000005 203.69205024000001 L 403.31650128 197.78435376000004 L 412.44657551999995 202.08085968000006 L 412.98363792 204.76617504000006 L 418.354272 206.37736560000008 L 418.354272 204.22911264000004 L 442.52212032 211.74799968000008 L 458.09695344 207.45149376000006 L 458.09695344 202.61792208000008 L 464.54171568000004 203.15498448000005 L 466.15290288 206.91442800000004 L 476.35710528 205.8403032000001 L 474.74591807999997 199.39554432000006 L 470.4494088 199.93260672000008 L 469.0228368 194.56197264000008 L 478.15291104 187.04308896000003 L 478.15291104 184.3577702400001 L 472.24521456 181.13539248000006 L 475.46759568 175.2276960000001 L 489.43124159999996 172.5423806400001 L 485.13473568 154.81929120000007 L 496.41306288000004 152.13397584000006 L 496.41306288000004 133.3367582400001 L 507.69139344 123.66962160000014 L 510.3767088 95.20526736000005 L 521.1179736 93.59407680000015 L 518.78510544 81.7786838400001 L 509.11796544 80.16749664000008 L 508.04384064 68.88916608000011 L 510.729156 66.20385071999999 L 502.13614416 59.75909184000005 L 494.61725712000003 63.51853200000005 L 491.39487936 70.50035664000006 L 486.02424528 68.35210368000008 L 464.00464992 69.9632942400001 L 446.28156384 78.55630608000007 L 444.67037328000004 72.6486096000001 L 436.07736144 74.79686256000008 L 439.2997392 79.09336848000004 L 431.78085552 79.09336848000004 L 423.18784032 68.35210368000008 L 414.05776608 68.88916608000011 L 414.05776608 65.66678496000009 L 408.687132 64.5926601600001 L 407.0759448 69.42622848000013 L 402.77943552 69.42622848000013 L 396.8717424 65.12972256000006 L 394.72348944 69.9632942400001 L 395.79761424000003 75.3339249600001 L 393.11229888 82.31574960000006 L 396.8717424 100.57589808000006 L 389.35285536000004 110.78010048000004 L 397.9458672 161.80111248000009 L 384.51928704 163.4123030400001 L 380.22277776 165.56055600000008 L 369.481513632 194.56197264000008 369.481513632 194.56197264000008 "></path><title>MAYENNE</title></g>
<g onmouseout="javascript:passout(this)" onmouseover="javascript:passon(this)" ident="1" title="SARTHE" transform="matrix(1, 0, 0, 1, 0, 0)" stroke-miterlimit="10" stroke-linecap="butt" stroke-linejoin="miter" stroke-width="0.5" fill="#EFF2F9" stroke="#7f7f7f"   onclick="tailCarte='../800-SARTHE';parent.cartechoisie(tailCarte);parent.document.getElementById('menucartelaX').style.display='none'" style="color:blue;cursor:pointer"  id="2"><path stroke-width="1" stroke="gray" id="p2" d="M 546.3599467199999 236.4529104000001 L 542.0634408 243.43473168000003 L 537.76693488 238.60116336000004 L 509.83964640000005 226.24870800000008 L 508.22845584 232.69346688000007 L 498.02425344000005 230.0081515200001 L 496.41306288000004 222.4892644800001 L 500.7095688 217.1186304000001 L 497.48719104 213.35918688000004 L 495.33893808 217.1186304000001 L 478.68997344 215.50744320000007 L 476.35710528 205.8403032000001 L 474.74591807999997 199.39554432000006 L 470.4494088 199.93260672000008 L 469.0228368 194.56197264000008 L 478.15291104 187.04308896000003 L 478.15291104 184.3577702400001 L 472.24521456 181.13539248000006 L 475.46759568 175.2276960000001 L 489.43124159999996 172.5423806400001 L 485.13473568 154.81929120000007 L 496.41306288000004 152.13397584000006 L 496.41306288000004 133.3367582400001 L 507.69139344 123.66962160000014 L 510.3767088 95.20526736000005 L 521.1179736 93.59407680000015 L 528.09979824 91.44582384000006 L 530.2480512 94.66820496000008 L 536.1557443199999 94.13113920000006 L 534.00749136 91.44582384000006 L 551.1935184000001 79.09336848000004 L 563.00891136 75.87098736000002 L 573.21311376 80.7045590400001 L 573.7501761599999 89.29757088000008 L 575.89842912 107.02066032000005 L 589.86207504 111.85422864000009 L 594.1585809600001 120.44724048000012 L 603.8257176000001 122.05843104000002 L 604.8998457600001 118.29898752000008 L 608.12222688 117.22486272000003 L 612.4187328 120.44724048000012 L 619.4005540799999 133.87382400000007 L 624.2341223999999 131.7255710400001 L 640.3460212800001 139.78152048000004 L 640.3460212800001 143.00389824000007 L 631.7530094399999 143.54096064000004 L 630.1418188800001 153.20810064000005 L 625.30825056 153.74516304000008 L 624.7711881600001 159.65285952000005 L 630.1418188800001 162.3381782400001 L 627.99356592 169.31999952000007 L 631.7530094399999 179.52420192000005 L 625.84531296 179.52420192000005 L 624.2341223999999 189.7284043200001 L 621.5488070399999 182.74658304000008 L 617.78936352 188.11721376000008 L 621.5488070399999 198.32141616000007 L 595.76977152 219.80394912000008 L 600.06627744 226.24870800000008 L 578.04668208 238.06410096000008 L 571.6019231999999 232.69346688000007 L 568.9166044799999 234.84171984000008 L 573.21311376 245.04592224000007 L 552.80470896 239.1382257600001 546.3599467199999 236.4529104000001 "></path><title>SARTHE</title></g>
<g onmouseout="javascript:passout(this)" onmouseover="javascript:passon(this)" ident="1" title="MAINE-ET-LOIRE" transform="matrix(1, 0, 0, 1, 0, 0)" stroke-miterlimit="10" stroke-linecap="butt" stroke-linejoin="miter" stroke-width="0.5" fill="#EFF2F9" stroke="#7f7f7f"   onclick="tailCarte='../800-MAINE-ET-LOIRE';parent.cartechoisie(tailCarte);parent.document.getElementById('menucartelaX').style.display='none'" style="color:blue;cursor:pointer"  id="3"><path id="p3" d="M 378.25914 336.34667976000003 L 378.79620576 333.12429998400006 L 370.740255648 327.21660384000006 L 364.29549643200005 325.6054132800001 L 364.832559504 319.6977168000001 L 373.42557201600005 311.10470496000005 L 370.20319224 297.1410590400001 L 363.221369616 299.8263777600001 L 358.387800288 287.4739224000001 L 349.257724368 288.0109848000001 L 355.70248392 281.5662259200001 L 405.64936944 272.43614832000003 L 400.81579776 255.78718704000005 L 376.647951792 249.87949056000005 L 376.110888384 238.60116336000004 L 392.22278592 239.67528816000006 L 395.98222943999997 235.37878224000008 L 379.33326816 230.0081515200001 L 375.036761904 211.21093392000006 L 368.05493928 206.91442800000004 L 368.05493928 200.46966912000005 L 369.481513632 194.56197264000008 L 405.46475424000005 203.69205024000001 L 403.31650128 197.78435376000004 L 412.44657551999995 202.08085968000006 L 412.98363792 204.76617504000006 L 418.354272 206.37736560000008 L 418.354272 204.22911264000004 L 442.52212032 211.74799968000008 L 458.09695344 207.45149376000006 L 458.09695344 202.61792208000008 L 464.54171568000004 203.15498448000005 L 466.15290288 206.91442800000004 L 476.35710528 205.8403032000001 L 478.68997344 215.50744320000007 L 495.33893808 217.1186304000001 L 497.48719104 213.35918688000004 L 500.7095688 217.1186304000001 L 496.41306288000004 222.4892644800001 L 498.02425344000005 230.0081515200001 L 508.22845584 232.69346688000007 L 509.83964640000005 226.24870800000008 L 537.76693488 238.60116336000004 L 542.0634408 243.43473168000003 L 546.3599467199999 236.4529104000001 L 552.80470896 239.1382257600001 L 542.0634408 283.71447888000006 L 530.7851135999999 297.6781248000001 L 524.87741712 321.30890736000003 L 522.19210176 317.0124014400001 L 514.67321472 328.8277937280001 L 514.67321472 334.1984264640001 L 507.69139344 333.12429998400006 L 504.46901232000005 339.5690592000001 L 498.02425344000005 336.88374283200005 L 501.2466312 332.58723657600007 L 486.74592288 330.4389836160001 L 467.41164624000004 332.0501735040001 L 467.41164624000004 335.80961635200003 L 458.8186344 339.03199612800006 L 459.8927592 334.1984264640001 L 448.0773696 337.95786931200007 L 448.0773696 342.25437556800006 L 441.09554496 347.62500864000003 L 407.26056000000005 351.3844514880001 L 393.29691407999996 342.25437556800006 L 382.01858352 344.4026288640001 L 374.499698496 338.49493272000007 378.25914 336.34667976000003 "></path><title>MAINE-ET-LOIRE</title></g>
<g onmouseout="javascript:passout(this)" onmouseover="javascript:passon(this)" ident="1" title="LOIRE-ATLANTIQUE" transform="matrix(1, 0, 0, 1, 0, 0)" stroke-miterlimit="10" stroke-linecap="butt" stroke-linejoin="miter" stroke-width="0.5" fill="#EFF2F9" stroke="#7f7f7f"   onclick="tailCarte='../358-LOIRE-ATLANTIQUE';parent.cartechoisie(tailCarte);parent.document.getElementById('menucartelaX').style.display='none'" style="color:blue;cursor:pointer"  id="4"><path id="p4" d="M 368.05493928 206.91442800000004 L 375.036761904 211.21093392000006 L 379.33326816 230.0081515200001 L 395.98222943999997 235.37878224000008 L 392.22278592 239.67528816000006 L 376.110888384 238.60116336000004 L 376.647951792 249.87949056000005 L 400.81579776 255.78718704000005 L 405.64936944 272.43614832000003 L 355.70248392 281.5662259200001 L 349.257724368 288.0109848000001 L 358.387800288 287.4739224000001 L 363.221369616 299.8263777600001 L 370.20319224 297.1410590400001 L 373.42557201600005 311.10470496000005 L 364.832559504 319.6977168000001 L 364.29549643200005 325.6054132800001 L 370.740255648 327.21660384000006 L 378.79620576 333.12429998400006 L 378.25914 336.34667976000003 L 374.499698496 338.49493272000007 L 368.05493928 335.80961635200003 L 360.53605324800003 328.8277937280001 L 356.7766104 330.97604668800005 L 355.70248392 337.42080624000005 L 348.183597888 335.27255294400004 L 346.0353447936 337.95786931200007 L 346.57240806720006 351.3844514880001 L 330.997572864 356.75508422400003 L 331.53463627200006 337.42080624000005 L 322.94162376 339.5690592000001 L 325.626940128 364.2739701552001 L 321.86749728 368.03341310400003 L 295.0143336 357.2921476320001 L 276.21711936 343.3285023840001 L 269.23529472 333.12429998400006 L 259.03109232 320.2347825600001 L 235.40030976 312.71589552000006 L 229.49261328 293.3816155200001 L 223.0478544 285.32566944000007 L 213.38071440000002 285.32566944000007 L 213.38071440000002 288.54804720000004 L 199.41706848 282.10328832000005 L 199.41706848 278.8809072 L 208.01008032000001 281.5662259200001 L 208.54714608 277.8067824000001 L 201.02825904 264.9172646400001 L 214.99190496 256.8613152000001 L 214.99190496 250.4165563200001 L 217.14015792 247.19417520000005 L 231.10380384 252.56480928000005 L 233.78911920000002 243.97179408000008 L 246.14157456 243.97179408000008 L 250.97514288000002 247.7312376000001 L 250.97514288000002 241.82354112000007 L 260.10522048 239.1382257600001 L 260.64228288000004 219.80394912000008 L 291.25489008 208.52561856000005 L 315.422737728 210.13680912000007 L 321.330433872 199.39554432000006 L 341.20177526400005 194.56197264000008 L 340.12764878400003 186.50602320000007 L 351.94304073600006 191.33959488000005 L 351.94304073600006 195.0990384000001 L 368.05493928 200.46966912000005 368.05493928 206.91442800000004 "></path><title>LOIRE-ATLANTIQUE</title></g>
<g onmouseout="javascript:passout(this)" onmouseover="javascript:passon(this)" ident="1" title="VENDEE" transform="matrix(1, 0, 0, 1, 0, 0)" stroke-miterlimit="10" stroke-linecap="butt" stroke-linejoin="miter" stroke-width="0.5" fill="#EFF2F9" stroke="#7f7f7f"   onclick="tailCarte='../358-VENDEE';parent.cartechoisie(tailCarte);parent.document.getElementById('menucartelaX').style.display='none'" style="color:blue;cursor:pointer"  id="5"><path id="p5" d="M 276.21711936 343.3285023840001 L 295.0143336 357.2921476320001 L 321.86749728 368.03341310400003 L 325.626940128 364.2739701552001 L 322.94162376 339.5690592000001 L 331.53463627200006 337.42080624000005 L 330.997572864 356.75508422400003 L 346.57240806720006 351.3844514880001 L 346.0353447936 337.95786931200007 L 348.183597888 335.27255294400004 L 355.70248392 337.42080624000005 L 356.7766104 330.97604668800005 L 360.53605324800003 328.8277937280001 L 368.05493928 335.80961635200003 L 374.499698496 338.49493272000007 L 382.01858352 344.4026288640001 L 393.29691407999996 342.25437556800006 L 407.26056000000005 351.3844514880001 L 415.85357184000003 359.97746393280005 L 414.77944368 367.49634969600004 L 422.83539312000005 377.7005520960001 L 429.81721776 381.45999528000004 L 426.05777423999996 387.3676910880001 L 426.05777423999996 389.5159443840001 L 434.65078608 402.9425265600001 L 431.42840496 406.16490768000006 L 435.18784847999996 408.85022304000006 L 434.11372368 414.7579195200001 L 436.79903904 415.29498192000005 L 440.02142016 435.16632432000006 L 435.18784847999996 435.16632432000006 L 437.33610144 449.1299668800001 L 436.26197664000006 452.35234800000006 L 434.65078608 460.40829744000007 L 438.4102296 456.11179152000005 L 446.46617904 461.48242224000006 L 433.03959552 473.8348809600001 L 426.05777423999996 471.1495622400001 L 422.29833072 476.5201963200001 L 409.40881296 469.53837168000007 L 394.37103888 467.3901187200001 L 396.51929184000005 461.48242224000006 L 380.94445872000006 466.31599392000004 L 376.647951792 472.7607528000001 L 364.29549643200005 470.0754374400001 L 361.610180064 471.1495622400001 L 361.073116656 480.2796398400001 L 348.720661296 475.4460681600001 L 342.2759018448 465.77893152000007 L 326.164003536 464.16774096000006 L 321.330433872 453.42647616000005 L 304.6814736 449.66703264000006 L 291.25489008 436.7775115200001 L 283.73600304 433.0180713600001 L 281.58775008 417.98029728000006 L 268.16116992 393.27538723200007 L 246.67863696 373.4040458400001 L 245.60451216 359.97746393280005 L 240.23387808 346.55088182400004 L 230.56673808000002 343.86556545600007 L 226.80729792000002 332.0501735040001 L 233.78911920000002 331.5131100960001 L 237.54856272 337.95786931200007 L 237.01150032 340.6431856800001 L 247.75276512000002 348.69913512000005 L 246.14157456 358.36627407840007 L 249.36395568 358.36627407840007 L 250.97514288000002 354.6068312640001 L 259.03109232 345.476755344 L 262.25347344 337.95786931200007 L 269.23529472 333.12429998400006 276.21711936 343.3285023840001 "></path><title>VENDEE</title></g>



</g>
</g>








<script><![CDATA[


]]></script>


</svg>