<?xml version="1.0" encoding="UTF-8" standalone="no"?>

<!DOCTYPE svg PUBLIC "-//W3C//DTD SVG 1.1//EN"
  "http://www.w3.org/Graphics/SVG/1.1/DTD/svg11.dtd"
[
    <!ENTITY ns_flows "http://ns.adobe.com/Flows/1.0/">
	<!ENTITY ns_svg "http://www.w3.org/2000/svg">
	<!ENTITY ns_xlink "http://www.w3.org/1999/xlink">
]>

<svg id="gene"  
xmlns="http://www.w3.org/2000/svg"
xmlns:xlink="http://www.w3.org/1999/xlink"
xmlns:xul="http://www.mozilla.org/keymaster/gatekeeper/there.is.only.xul"

   xmlns:dc="http://purl.org/dc/elements/1.1/"
   xmlns:cc="http://web.resource.org/cc/"
   xmlns:rdf="http://www.w3.org/1999/02/22-rdf-syntax-ns#"
   xmlns:svg="http://www.w3.org/2000/svg"
 

   xmlns:sodipodi="http://inkscape.sourceforge.net/DTD/sodipodi-0.dtd"
   xmlns:inkscape="http://www.inkscape.org/namespaces/inkscape"


>


<script id="scrpt"  language="javascript" ><![CDATA[
var brsrici="ei"


function affichN(){
//brsrici=document.getElementById("totalsvg").getAttribute("name")
if(brsrici=="ei"){window.SVGaffichN()}else{
top.frames.Num0.frames.couches.zoom.SVGaffichN()
}
}
var strokewidthpas
var strokepas
var opacpas
function passon(a){
strokepas=a.getAttribute('stroke')
a.setAttribute('stroke','navy');
opacpas=a.getAttribute('fill-opacity')
a.setAttribute('fill-opacity','0.5')  
}
function passout(a){
a.setAttribute('fill-opacity',opacpas)
a.setAttribute('stroke',strokepas);
}
function svggeneral(){

brsrici=document.getElementById("totalsvg").getAttribute("name")
if(brsrici=="ei"){window.SVGgeneral()}else{
top.frames.Num0.frames[2].indic1()
}}
function svgdown(a){
//brsrici=document.getElementById("totalsvg").getAttribute("name")
if(brsrici=="ei"){window.SVGdown()}else{
top.frames.Num0.frames.couches.zoom.selxsvg();top.frames.Num0.frames.couches.zoom.rien();
}}
function svgclick1(){
//brsrici=document.getElementById("totalsvg").getAttribute("name")
if(brsrici=="ei"){window.SVGclick1()}else{
top.frames.Num0.frames.couches.zoom.valNoDatx(NoDatx);top.frames.Num0.frames.couches.zoom.transDATA();top.frames.Num0.frames.couches.zoom.carte()
}
}
function svgclick2(){
//brsrici=document.getElementById("totalsvg").getAttribute("name")
if(brsrici=="ei"){window.SVGclick2()}else{
top.frames.Num0.frames.couches.zoom.valNoDatx2(NoDatx);top.frames.Num0.frames.couches.zoom.transDATA();top.frames.Num0.frames.couches.zoom.carte()
}}
function svgout(){
//brsrici=document.getElementById("totalsvg").getAttribute("name")
if(brsrici=="ei"){window.SVGout()}else{
//top.frames.Num0.frames.couches.zoom0()
//<image x="10" Y="10" width="300" height="300" xlink:href="fonds france contour.jpg" ></image>
}}
]]></script>

  <metadata
     id="metadata7">
    <rdf:RDF>
      <cc:Work
         rdf:about="">
        <dc:format>image/svg+xml</dc:format>
        <dc:type
           rdf:resource="http://purl.org/dc/dcmitype/StillImage" />
      </cc:Work>
    </rdf:RDF>
  </metadata>

<defs>
<radialGradient id="grad1" >
 <stop class="begin" offset="0" style="stop-color:#5555AA"/>
 <stop class="end" offset="1" style="stop-color:white"/>
</radialGradient>
</defs>

<g space="preserve" opacity="1" transform="matrix(0.3, 0, 0, 0.3, 0, 0)"  name="ns" id="totalsvg">






	 
	 

	
<rect y="-150" x="-150" height="800" width="800" style="fill: url(#grad1) ; fill-opacity: 1; fill-rule: evenodd; stroke: rgb(0, 0, 0); stroke-width: 0.5; stroke-linecap: butt; stroke-linejoin: miter; stroke-opacity: 1;"  transform="matrix(1, 0, 0, 1, 0, 0)" fill="#EBEFF8" id="rectmove"></rect>


<g space="preserve" opacity="1" transform="matrix(1, 0, 0, 1, -160, -15)"   id="calageAires">




<image opacity="0" href="transparent.png" height="0" width="0" y="-60" x="0" transform="matrix(1, 0, 0, 1, 0, 0)" id="imagesfond1"/>

<image opacity="0" href="transparent.png" height="0" width="0" y="-60" x="0" transform="matrix(1, 0, 0, 1, 0, 0)" id="imagesfond2"/>


<g onmouseout="javascript:passout(this)" onmouseover="javascript:passon(this)" ident="1" title="SEINE-MARITIME" transform="matrix(1, 0, 0, 1, 0, 0)" stroke-miterlimit="10" stroke-linecap="butt" stroke-linejoin="miter" stroke-width="0.5" fill="#EFF2F9" stroke="#7f7f7f"  onclick="tailCarte='../800-SEINE-MARITIME';parent.cartechoisie(tailCarte);parent.document.getElementById('menucartelaX').style.display='none'" style="color:blue;cursor:pointer" id="1"><path stroke-width="1" stroke="gray" id="p1" d="M 509.3595397420868 61.408332942555774 L 515.2400961313012 64.0813153575616 L 517.9130785463071 59.80454349355222 L 525.932015943728 60.87373645955461 L 522.7244419695193 68.35808229777263 L 553.7310084407972 99.3646487690504 L 565.4921212192263 105.7798016412662 L 574.0456550996483 114.86793200468935 L 577.2532339976553 137.3209645955452 L 583.668386869871 149.0820773739743 L 586.8759608440797 153.89344079718649 L 582.5991939038687 156.03182672919115 L 580.9954044548653 153.89344079718649 L 578.8570234466588 157.1010147713951 L 579.3916150058617 161.3777866354045 L 574.0456550996483 163.51616764361086 L 572.9764670574443 171.5351099648301 L 567.6305071512309 175.27728042203995 L 574.0456550996483 176.88106987104345 L 578.3224269636577 173.13889449003523 L 580.4608079718639 179.5540473622509 L 571.907274091442 189.1767791324737 L 575.6494445486519 197.19571652989453 L 571.3726776084409 200.93788698710443 L 573.5110635404454 206.81844337631895 L 569.2342916764361 208.95682930832362 L 569.2342916764361 210.56061875732718 L 573.5110635404454 211.09521031652997 L 579.3916150058617 221.7871350527551 L 574.0456550996483 230.34066893317708 L 579.9262114888628 235.15203235638927 L 583.1337903868698 228.73687948417358 L 588.4797502930833 230.34066893317708 L 572.2580996483001 260.6288729191091 L 557.2894128956624 259.55967995310675 L 544.2920475967175 250.30449003517003 L 507.9395212192262 244.59099320046903 L 494.20708698710433 253.86289449003525 L 485.3027226260258 277.568886049238 L 471.5869948417351 279.5235010550997 L 467.6610534583822 278.45430808909737 L 458.7566890973036 283.8002679953107 L 458.5729230949589 287.5424384525206 L 442.3512724501759 290.2154208675264 L 444.6734243845252 301.44193716295433 L 432.37771512309496 306.2533005861666 L 419.0128178194607 286.12241992966005 L 411.344705978898 290.0316548651818 L 407.9700675263774 284.5186304806566 L 403.5095345838218 280.40892309495905 L 408.6717284876905 275.9650966002346 L 417.9436248534584 278.10347760844087 L 418.82905181711607 276.85051864009387 L 414.3852203985932 266.1585988276671 L 389.793806799531 255.4666790152404 L 364.30025978898004 257.9558954279016 L 360.5580844079719 250.65531559202822 L 363.9494293083236 246.02771817116067 L 355.3958954279015 250.83908159437289 L 349.515339038687 248.33316365767885 L 339.8926121922626 233.3644769050411 L 332.7590943728019 231.7606874560376 L 324.92392199296603 237.29041828839397 L 311.90985024618993 243.7055662368113 L 293.91735404454863 246.3785486518172 L 266.11836203985933 238.89420281359912 L 250.61507781946074 222.3217266119579 L 271.4643219460727 168.32753106682304 L 355.3958954279015 121.81768135990626 L 400.83655216881596 114.33333552168818 L 427.0317552168816 104.71060867526381 L 439.86206096131303 105.7798016412662 L 475.1453992966002 88.13813247362259 L 509.3595397420868 61.408332942555774 509.3595397420868 61.408332942555774 "></path><title>SEINE-MARITIME</title></g>
<g onmouseout="javascript:passout(this)" onmouseover="javascript:passon(this)" ident="1" title="EURE" transform="matrix(1, 0, 0, 1, 0, 0)" stroke-miterlimit="10" stroke-linecap="butt" stroke-linejoin="miter" stroke-width="0.5" fill="#EFF2F9" stroke="#7f7f7f"   onclick="tailCarte='../800-EURE';parent.cartechoisie(tailCarte);parent.document.getElementById('menucartelaX').style.display='none'" style="color:blue;cursor:pointer"  id="2"><path stroke-width="1" stroke="gray" id="p2" d="M 313.5136382180539 245.1255896834702 L 328.66609392731533 237.10664736225098 L 333.47745784290737 233.89907338804227 L 339.8926121922626 235.68662883939047 L 349.515339038687 248.33316365767885 L 355.3958954279015 250.83908159437289 L 363.9494293083236 246.02771817116067 L 360.5580844079719 250.65531559202822 L 364.30025978898004 257.9558954279016 L 389.793806799531 255.4666790152404 L 414.3852203985932 266.1585988276671 L 418.82905181711607 276.85051864009387 L 417.9436248534584 278.10347760844087 L 408.6717284876905 275.9650966002346 L 403.5095345838218 280.40892309495905 L 407.9700675263774 284.5186304806566 L 411.344705978898 290.0316548651818 L 419.0128178194607 286.12241992966005 L 432.37771512309496 306.2533005861666 L 444.6734243845252 301.44193716295433 L 442.3512724501759 290.2154208675264 L 458.5729230949589 287.5424384525206 L 458.7566890973036 283.8002679953107 L 467.6610534583822 278.45430808909737 L 471.5869948417351 279.5235010550997 L 485.3027226260258 277.568886049238 L 494.20708698710433 253.86289449003525 L 507.9395212192262 244.59099320046903 L 544.2920475967175 250.30449003517003 L 557.2894128956624 259.55967995310675 L 572.2580996483001 260.6288729191091 L 584.3867493552169 282.5473090269637 L 584.5538089097304 293.77382532239164 L 589.5489432590856 300.90734067995317 L 586.692194841735 307.67331910902703 L 582.9500194607268 306.97166307151235 L 582.5991939038687 304.11491465416185 L 580.1099824150059 301.97653364595556 L 576.0002750293082 301.44193716295433 L 571.1889116060962 303.22949261430256 L 569.4180626025791 313.7376464243846 L 563.8883317702227 319.8019688159438 L 565.4921212192263 321.57281781946085 L 560.146161313013 339.7490785463072 L 553.0126459554514 353.648577256741 L 554.449370926143 354.901536225088 L 551.0580309495897 358.9945371629543 L 549.8050719812427 357.3907477139508 L 533.6001277842907 361.5004550996484 L 532.3471688159437 357.925344196952 L 530.2087828839391 364.1734375146542 L 526.4666124267292 366.31181852286056 L 522.0060794841735 362.73670762016417 L 519.5168630715123 366.66264900351706 L 521.4714830011724 374.14698991793676 L 526.115786869871 380.37837678780784 L 522.1898454865182 385.5572771395077 L 524.3282314185228 388.2302546307152 L 530.9271502930832 387.695658147714 L 531.9963383352872 389.2994475967175 L 528.4212323563892 392.1394895662369 L 529.8579573270808 396.4162565064479 L 530.9271502930832 395.8816600234467 L 527.3520393903868 401.2276199296601 L 523.9774009378664 400.3421978898008 L 521.3044185228605 401.0605603751466 L 519.7006339976552 404.96979038686993 L 521.8390150058617 412.454136225088 L 523.7936349355217 412.9887327080892 L 520.5860560375146 420.84061055099653 L 509.3595397420868 424.2152490035171 L 500.6222398593201 432.9525538100821 L 500.4551753810082 437.22932075029314 L 505.08277280187576 444.3628361078547 L 502.9443917936694 447.7374725908559 L 501.1568363423212 446.6682806096132 L 493.3216600234466 453.6180284876906 L 487.79193411488865 451.12881601406804 L 480.4913592028136 454.3363919577961 L 479.4221662368112 453.80179596717477 L 480.4913592028136 452.1980079953107 L 476.7491838218054 450.5942200234467 L 474.427031887456 451.12881601406804 L 473.00701336459554 453.0834324970692 L 465.7064384525205 449.34126056271987 L 460.8950750293084 451.3125834935522 L 458.38915216881594 446.1336846189919 L 453.2269631887456 444.71366166471284 L 451.6231737397421 457.00937191090276 L 441.28208440797187 454.1526244783119 L 434.5161010550996 461.8207358264948 L 411.8793024618992 467.8850592028137 L 406.3662830011723 464.4937162719813 L 404.04413106682296 466.0975042438453 L 401.1873826494724 472.51265613130136 L 401.02032309495894 474.11644410316535 L 384.79867245017584 479.8132325205159 L 381.59109847596716 476.789424056272 L 381.056501992966 473.2310196014069 L 382.66029144196955 471.62723162954285 L 379.1018869871043 469.1213127080892 L 375.1759456037515 468.0521207268465 L 378.38351957796016 464.4937162719813 L 382.309460961313 463.07369528722165 L 384.6149064478311 457.5439679015241 L 380.5219055099648 450.5942200234467 L 380.7056715123095 448.63960354044553 L 375.8943080890973 444.5298956623682 L 352.7229130128957 429.2103784290739 L 355.7467209847597 424.9336114888629 L 356.9996799531067 423.5135929660024 L 353.25750949589684 423.3298220398594 L 351.30289449003516 419.7714175849942 L 352.00455052754984 416.730903165299 L 349.1645085580305 417.2654996483002 L 347.91154958968343 415.12711864009384 L 349.69910504103166 413.3562696365768 L 346.30776014067993 411.21788370457216 L 340.24343774912074 416.5638436107855 L 332.59203334114886 414.5925221570927 L 331.5228413599062 416.02924712778434 L 323.1363665416178 412.1033057444315 L 321.365517045721 414.42545767878084 L 319.76172907385694 414.42545767878084 L 314.7665976787808 411.91953974208684 L 314.7665976787808 409.0794977725675 L 307.6330823212192 404.43519882766714 L 318.15794110199295 385.5572771395077 L 316.9049816412661 382.5167627198125 L 320.9979825791325 371.8248429073858 L 318.6925370926143 371.12318194607275 L 317.43957763188746 368.61726400937874 L 308.88604178194606 367.1972454865182 L 307.8168498007034 362.56964806565077 L 306.2130618288394 364.5242630715124 L 305.86223331770225 361.3166890973037 L 308.00061728018756 359.7128996483002 L 308.1676783118406 356.5053256740915 L 316.55415313012895 355.61989871043386 L 313.16280970691673 351.5101913247363 L 315.1174266822978 339.0474225087926 L 318.85959861664713 338.3290600234467 L 318.15794110199295 333.7014626025792 L 315.3011936694021 334.5868895662369 L 310.3060622743259 331.73014114888633 L 311.90985024618993 315.5252018757328 L 300.68333444314186 308.39168651817124 L 297.84329345838216 301.97653364595556 L 310.48982975381006 298.23435826494733 L 310.48982975381006 292.00297631887463 L 307.28225381008207 288.9624618991794 L 302.28712241500585 288.61163141852296 L 298.37788944900353 294.6759538100821 L 295.704909003517 292.53757280187585 L 299.0795464712778 289.32999390386874 L 297.1249299882767 284.1510984759673 L 293.73358656506446 283.0819055099649 L 298.91248543962485 276.85051864009387 L 294.6357170222743 248.70070058616653 313.5136382180539 245.1255896834702 "></path><title>EURE</title></g>




</g>
</g>








<script><![CDATA[


]]></script>


</svg>