<?xml version="1.0" encoding="UTF-8" standalone="no"?>

<!DOCTYPE svg PUBLIC "-//W3C//DTD SVG 1.1//EN"
  "http://www.w3.org/Graphics/SVG/1.1/DTD/svg11.dtd"
[
    <!ENTITY ns_flows "http://ns.adobe.com/Flows/1.0/">
	<!ENTITY ns_svg "http://www.w3.org/2000/svg">
	<!ENTITY ns_xlink "http://www.w3.org/1999/xlink">
]>

<svg id="gene"  
xmlns="http://www.w3.org/2000/svg"
xmlns:xlink="http://www.w3.org/1999/xlink"
xmlns:xul="http://www.mozilla.org/keymaster/gatekeeper/there.is.only.xul"

   xmlns:dc="http://purl.org/dc/elements/1.1/"
   xmlns:cc="http://web.resource.org/cc/"
   xmlns:rdf="http://www.w3.org/1999/02/22-rdf-syntax-ns#"
   xmlns:svg="http://www.w3.org/2000/svg"
 

   xmlns:sodipodi="http://inkscape.sourceforge.net/DTD/sodipodi-0.dtd"
   xmlns:inkscape="http://www.inkscape.org/namespaces/inkscape"


>


<script id="scrpt"  language="javascript" ><![CDATA[
var brsrici="ei"


function affichN(){
//brsrici=document.getElementById("totalsvg").getAttribute("name")
if(brsrici=="ei"){window.SVGaffichN()}else{
top.frames.Num0.frames.couches.zoom.SVGaffichN()
}
}
var strokewidthpas
var strokepas
var opacpas
function passon(a){
strokepas=a.getAttribute('stroke')
a.setAttribute('stroke','navy');
opacpas=a.getAttribute('fill-opacity')
a.setAttribute('fill-opacity','0.5')  
}
function passout(a){
a.setAttribute('fill-opacity',opacpas)
a.setAttribute('stroke',strokepas);
}
function svggeneral(){

brsrici=document.getElementById("totalsvg").getAttribute("name")
if(brsrici=="ei"){window.SVGgeneral()}else{
top.frames.Num0.frames[2].indic1()
}}
function svgdown(a){
//brsrici=document.getElementById("totalsvg").getAttribute("name")
if(brsrici=="ei"){window.SVGdown()}else{
top.frames.Num0.frames.couches.zoom.selxsvg();top.frames.Num0.frames.couches.zoom.rien();
}}
function svgclick1(){
//brsrici=document.getElementById("totalsvg").getAttribute("name")
if(brsrici=="ei"){window.SVGclick1()}else{
top.frames.Num0.frames.couches.zoom.valNoDatx(NoDatx);top.frames.Num0.frames.couches.zoom.transDATA();top.frames.Num0.frames.couches.zoom.carte()
}
}
function svgclick2(){
//brsrici=document.getElementById("totalsvg").getAttribute("name")
if(brsrici=="ei"){window.SVGclick2()}else{
top.frames.Num0.frames.couches.zoom.valNoDatx2(NoDatx);top.frames.Num0.frames.couches.zoom.transDATA();top.frames.Num0.frames.couches.zoom.carte()
}}
function svgout(){
//brsrici=document.getElementById("totalsvg").getAttribute("name")
if(brsrici=="ei"){window.SVGout()}else{
//top.frames.Num0.frames.couches.zoom0()
//<image x="10" Y="10" width="300" height="300" xlink:href="fonds france contour.jpg" ></image>
}}
]]></script>

  <metadata
     id="metadata7">
    <rdf:RDF>
      <cc:Work
         rdf:about="">
        <dc:format>image/svg+xml</dc:format>
        <dc:type
           rdf:resource="http://purl.org/dc/dcmitype/StillImage" />
      </cc:Work>
    </rdf:RDF>
  </metadata>

<defs>
<radialGradient id="grad1" >
 <stop class="begin" offset="0" style="stop-color:#5555AA"/>
 <stop class="end" offset="1" style="stop-color:white"/>
</radialGradient>
</defs>

<g space="preserve" opacity="1" transform="matrix(0.3, 0, 0, 0.3, 0, 0)"  name="ns" id="totalsvg">






	 
	 

	
<rect y="-150" x="-150" height="800" width="800" style="fill: url(#grad1) ; fill-opacity: 1; fill-rule: evenodd; stroke: rgb(0, 0, 0); stroke-width: 0.5; stroke-linecap: butt; stroke-linejoin: miter; stroke-opacity: 1;"  transform="matrix(1, 0, 0, 1, 0, 0)" fill="#EBEFF8" id="rectmove"></rect>


<g space="preserve" opacity="1" transform="matrix(1, 0, 0, 1, -160, -15)"   id="calageAires">




<image opacity="0" href="transparent.png" height="0" width="0" y="-60" x="0" transform="matrix(1, 0, 0, 1, 0, 0)" id="imagesfond1"/>

<image opacity="0" href="transparent.png" height="0" width="0" y="-60" x="0" transform="matrix(1, 0, 0, 1, 0, 0)" id="imagesfond2"/>


<g onmouseout="javascript:passout(this)" onmouseover="javascript:passon(this)" ident="1" title="ALLIER" transform="matrix(1, 0, 0, 1, 0, 0)" stroke-miterlimit="10" stroke-linecap="butt" stroke-linejoin="miter" stroke-width="0.5" fill="#EFF2F9" stroke="#7f7f7f"  onclick="tailCarte='../358-ALLIER';parent.cartechoisie(tailCarte);parent.document.getElementById('menucartelaX').style.display='none'" style="color:blue;cursor:pointer" id="1"><path stroke-width="1" stroke="gray" id="p1" d="M 323.0596548370497 100.38563001715272 L 326.2723915265866 92.88924236706691 L 323.59511089193825 87.53468181818187 L 345.0133548885077 68.2582631217839 L 348.2260919382504 74.68373722126944 L 370.1797873070326 59.69096912521451 L 382.49527873070326 59.69096912521451 L 384.6371022298456 66.65189639794181 L 396.41713687821607 74.14828044596919 L 405.5198912521441 83.25103481989714 L 415.69355557461404 74.14828044596919 L 419.9772025728988 75.21919399656952 L 422.11902607204115 81.10921132075475 L 428.5445001715266 80.57375454545462 L 431.2217804459691 76.29010754716995 L 436.040884219554 75.7546507718697 L 439.78907804459686 86.99922864494005 L 457.4591300171527 67.72280994854208 L 463.3491437392796 69.32917667238439 L 479.4128253859348 103.06291029159524 L 476.7355451114923 107.34655728987997 L 496.0119638078902 112.70111783876507 L 496.0119638078902 118.59113516295037 L 499.2247008576329 119.1265919382505 L 502.4374379073756 115.91385488850779 L 515.2883825042882 125.55206603773593 L 510.46927873070325 135.19027358490575 L 512.0756490566038 152.32486878216127 L 484.23193276157804 166.2467269296742 L 491.19286003430534 214.97322864494004 L 472.9873548885077 223.54052624356785 L 457.99458319039445 208.01229777015448 L 440.85999159519724 210.15412487135512 L 441.3954447684391 200.51591372212698 L 432.2926939965695 199.44500017152666 L 422.65448284734134 202.65773722126937 L 375.53435145797596 188.2004259005147 L 370.1797873070326 179.09767152658674 L 372.32161440823324 167.8530936535164 L 364.8252267581475 165.17581337907382 L 355.72247598627786 166.78218010291602 L 356.25793276157805 175.34947770154383 L 345.5488080617496 171.60128747855924 L 343.9424413379074 173.74311097770163 L 343.9424413379074 178.02675797598636 L 336.98151406518014 179.6331283018868 L 332.16240668953685 190.34224939965702 L 320.9178306174957 186.05859879931393 L 309.6732531046312 159.28579605488858 L 288.2550104768439 150.18304168096063 L 287.184098439108 145.36393790737566 L 290.9322908233276 142.6866576329332 L 290.9322908233276 141.08029090909093 L 285.04227421955403 139.47392058319048 L 283.97136174957114 127.15843276157813 L 294.1450272246998 114.84294133790746 L 315.5632700686106 111.09475111492287 L 328.4142164665523 107.8820140651801 L 323.0596548370497 100.38563001715272 323.0596548370497 100.38563001715272 "></path><title>ALLIER</title></g>
<g onmouseout="javascript:passout(this)" onmouseover="javascript:passon(this)" ident="1" title="PUY DE DOME" transform="matrix(1, 0, 0, 1, 0, 0)" stroke-miterlimit="10" stroke-linecap="butt" stroke-linejoin="miter" stroke-width="0.5" fill="#EFF2F9" stroke="#7f7f7f"   onclick="tailCarte='../800-PUY-DE-DOME';parent.cartechoisie(tailCarte);parent.document.getElementById('menucartelaX').style.display='none'" style="color:blue;cursor:pointer"  id="2"><path stroke-width="1" stroke="gray" id="p2" d="M 332.16240668953685 190.34224939965702 L 336.98151406518014 179.6331283018868 L 343.9424413379074 178.02675797598636 L 343.9424413379074 173.74311097770163 L 345.5488080617496 171.60128747855924 L 356.25793276157805 175.34947770154383 L 355.72247598627786 166.78218010291602 L 364.8252267581475 165.17581337907382 L 372.32161440823324 167.8530936535164 L 370.1797873070326 179.09767152658674 L 375.53435145797596 188.2004259005147 L 422.65448284734134 202.65773722126937 L 432.2926939965695 199.44500017152666 L 441.3954447684391 200.51591372212698 L 440.85999159519724 210.15412487135512 L 457.99458319039445 208.01229777015448 L 472.9873548885077 223.54052624356785 L 482.0901056603774 234.7851041166381 L 474.5937216123499 254.59697598627793 L 512.0756490566038 300.64619742710124 L 514.7529293310463 312.4262320754718 L 510.46927873070325 322.06444322469986 L 504.57926140651796 324.2062667238423 L 502.4374379073756 327.95445838765016 L 501.36652435677524 337.5926677358491 L 491.19286003430534 327.95445838765016 L 488.5155797598628 337.0572116809606 L 471.9164413379074 332.77356288164674 L 465.49097084048026 339.1990359005146 L 457.99458319039445 327.95445838765016 L 450.49819914236707 325.2771781132076 L 448.35637564322474 321.5289864493997 L 442.4663583190394 327.4190023327617 L 432.2926939965695 327.4190023327617 L 430.1508704974271 325.2771781132076 L 423.72539639794167 325.8126341680961 L 396.95259365351626 339.1990359005146 L 384.10164545454546 350.4436134133791 L 374.99889468267577 345.6245085591768 L 369.10887735849053 335.9862992109778 L 356.25793276157805 329.5608265523157 L 344.4778981132075 331.7026507718697 L 339.12333756432247 327.4190023327617 L 339.12333756432247 323.6708099485421 L 331.62695351629503 321.5289864493997 L 330.5560399656947 316.7098826758148 L 326.80784758147513 318.8517061749572 L 315.0278140137221 314.032598799314 L 315.5632700686106 300.64619742710124 L 309.6732531046312 292.6143566037737 L 312.35053373927957 283.511605831904 L 317.16963823327615 283.511605831904 L 317.16963823327615 270.1252044596913 L 298.96413200686106 247.10059193825052 L 310.2087091595197 238.5332943396227 L 320.9178306174957 230.5014535162951 L 321.4532866723842 221.93415591766734 L 330.0205831903945 219.25687564322476 L 327.34330363636366 207.4768445969126 L 319.84691850771867 197.83863344768446 L 320.9178306174957 186.05859879931393 332.16240668953685 190.34224939965702 "></path><title>PUY DE DOME</title></g>
<g onmouseout="javascript:passout(this)" onmouseover="javascript:passon(this)" ident="1" title="HAUTE LOIRE" transform="matrix(1, 0, 0, 1, 0, 0)" stroke-miterlimit="10" stroke-linecap="butt" stroke-linejoin="miter" stroke-width="0.5" fill="#EFF2F9" stroke="#7f7f7f"   onclick="tailCarte='../358-HAUTE-LOIRE';parent.cartechoisie(tailCarte);parent.document.getElementById('menucartelaX').style.display='none'" style="color:blue;cursor:pointer"  id="3"><path id="p3" d="M 423.18993962264153 386.3191698113208 L 430.6863236706689 385.78371375643235 L 430.6863236706689 383.6418895368783 L 422.11902607204115 379.8936971526587 L 411.94536174957113 352.0499815780447 L 394.8107665523156 347.76633277873077 L 396.95259365351626 339.1990359005146 L 423.72539639794167 325.8126341680961 L 430.1508704974271 325.2771781132076 L 432.2926939965695 327.4190023327617 L 442.4663583190394 327.4190023327617 L 448.35637564322474 321.5289864493997 L 450.49819914236707 325.2771781132076 L 457.99458319039445 327.95445838765016 L 465.49097084048026 339.1990359005146 L 471.9164413379074 332.77356288164674 L 488.5155797598628 337.0572116809606 L 491.19286003430534 327.95445838765016 L 501.36652435677524 337.5926677358491 L 541.5257320754718 331.1671947169812 L 564.014884219554 333.84447499142374 L 567.7630780445969 346.1599646140653 L 567.2276212692967 351.5145255231562 L 570.4403583190394 353.1208936878217 L 574.7240089193824 348.8372448885078 L 583.8267596912522 357.40454212692975 L 579.0076559176672 378.8227850428817 L 576.3303756432247 379.8936971526587 L 573.117638593482 374.53913624356784 L 569.9049015437392 375.0745922984563 L 568.8339915951972 378.2873289879932 L 570.9758150943396 382.03552137221277 L 565.0857977701544 390.06736219554034 L 566.692168096055 393.2800988850772 L 569.3694483704974 392.74464283018875 L 567.7630780445969 395.4219231046313 L 561.8730607204117 397.56374768439116 L 558.1248704974271 403.4537650085764 L 561.8730607204117 408.2728687821613 L 551.1639396226415 408.8083255574615 L 541.5257320754718 427.0138307032591 L 523.8556801029159 428.6202010291596 L 523.3202233276158 436.11658507718704 L 512.0756490566038 436.11658507718704 L 501.36652435677524 452.7157234991424 L 482.6255624356775 435.0456715265867 L 473.52281166380783 437.72295180102924 L 471.9164413379074 429.1556542024014 L 463.8846005145798 428.6202010291596 L 462.81369056603774 436.65204185248723 L 448.35637564322474 439.8647753001716 L 438.7181644939966 422.73018370497437 L 437.64725454545453 414.16288610634655 L 431.2217804459691 414.69834288164674 423.18993962264153 386.3191698113208 "></path><title>HAUTE LOIRE</title></g>
<g onmouseout="javascript:passout(this)" onmouseover="javascript:passon(this)" ident="1" title="CANTAL" transform="matrix(1, 0, 0, 1, 0, 0)" stroke-miterlimit="10" stroke-linecap="butt" stroke-linejoin="miter" stroke-width="0.5" fill="#EFF2F9" stroke="#7f7f7f"   onclick="tailCarte='../358-CANTAL';parent.cartechoisie(tailCarte);parent.document.getElementById('menucartelaX').style.display='none'" style="color:blue;cursor:pointer"  id="4"><path id="p4" d="M 394.8107665523156 347.76633277873077 L 411.94536174957113 352.0499815780447 L 422.11902607204115 379.8936971526587 L 430.6863236706689 383.6418895368783 L 430.6863236706689 385.78371375643235 L 423.18993962264153 386.3191698113208 L 431.2217804459691 414.69834288164674 L 407.66171475128647 431.2974813036021 L 401.23624065180104 424.8720072041167 L 377.14071818181816 471.9921421955404 L 363.2188600343053 430.2265677530018 L 351.4388253859348 432.9038480274443 L 351.974282161235 424.8720072041167 L 347.69063516295023 418.44653310463127 L 328.94967324185245 437.18749502572905 L 319.84691850771867 460.74756432247005 L 311.27962126929674 473.0630521440824 L 292.5386590240137 474.6694224699829 L 290.3968347684391 469.8503150943397 L 274.8686088164665 473.59850891938254 L 275.40406487135505 478.95306946826764 L 273.7976967066895 480.02398301886797 L 267.9076797427101 475.2048756432248 L 265.76585552315606 451.1093531732419 L 267.9076797427101 443.6129691252145 L 257.73401469982844 424.3365504288165 L 256.12764617495714 411.485605831904 L 263.08857524871354 408.2728687821613 L 259.34038286449396 393.2800988850772 L 263.08857524871354 388.9964500857634 L 268.9785918524871 390.06736219554034 L 276.47497698113204 373.46822413379084 L 271.120416432247 364.9009272555747 L 293.0741150789022 340.80540406518014 L 294.6804833156089 334.37993104631227 L 294.1450272246998 327.95445838765016 L 297.8932195368782 325.8126341680961 L 312.35053373927957 333.3090189365352 L 317.7050942881647 330.6317386620927 L 312.8859897941681 324.74172349914244 L 315.0278140137221 314.032598799314 L 326.80784758147513 318.8517061749572 L 330.5560399656947 316.7098826758148 L 331.62695351629503 321.5289864493997 L 339.12333756432247 323.6708099485421 L 339.12333756432247 327.4190023327617 L 344.4778981132075 331.7026507718697 L 356.25793276157805 329.5608265523157 L 369.10887735849053 335.9862992109778 L 374.99889468267577 345.6245085591768 L 384.10164545454546 350.4436134133791 L 396.95259365351626 339.1990359005146 394.8107665523156 347.76633277873077 "></path><title>CANTAL</title></g>



</g>
</g>








<script><![CDATA[


]]></script>


</svg>