<?xml version="1.0" encoding="UTF-8" standalone="no"?>

<!DOCTYPE svg PUBLIC "-//W3C//DTD SVG 1.1//EN"
  "http://www.w3.org/Graphics/SVG/1.1/DTD/svg11.dtd"
[
    <!ENTITY ns_flows "http://ns.adobe.com/Flows/1.0/">
	<!ENTITY ns_svg "http://www.w3.org/2000/svg">
	<!ENTITY ns_xlink "http://www.w3.org/1999/xlink">
]>

<svg id="gene"  
xmlns="http://www.w3.org/2000/svg"
xmlns:xlink="http://www.w3.org/1999/xlink"
xmlns:xul="http://www.mozilla.org/keymaster/gatekeeper/there.is.only.xul"

   xmlns:dc="http://purl.org/dc/elements/1.1/"
   xmlns:cc="http://web.resource.org/cc/"
   xmlns:rdf="http://www.w3.org/1999/02/22-rdf-syntax-ns#"
   xmlns:svg="http://www.w3.org/2000/svg"
 

   xmlns:sodipodi="http://inkscape.sourceforge.net/DTD/sodipodi-0.dtd"
   xmlns:inkscape="http://www.inkscape.org/namespaces/inkscape"


>


<script id="scrpt"  language="javascript" ><![CDATA[
var brsrici="ei"


function affichN(){
//brsrici=document.getElementById("totalsvg").getAttribute("name")
if(brsrici=="ei"){window.SVGaffichN()}else{
top.frames.Num0.frames.couches.zoom.SVGaffichN()
}
}
var strokewidthpas
var strokepas
var opacpas
function passon(a){
strokepas=a.getAttribute('stroke')
a.setAttribute('stroke','navy');
opacpas=a.getAttribute('fill-opacity')
a.setAttribute('fill-opacity','0.5')  
}
function passout(a){
a.setAttribute('fill-opacity',opacpas)
a.setAttribute('stroke',strokepas);
}
function svggeneral(){

brsrici=document.getElementById("totalsvg").getAttribute("name")
if(brsrici=="ei"){window.SVGgeneral()}else{
top.frames.Num0.frames[2].indic1()
}}
function svgdown(a){
//brsrici=document.getElementById("totalsvg").getAttribute("name")
if(brsrici=="ei"){window.SVGdown()}else{
top.frames.Num0.frames.couches.zoom.selxsvg();top.frames.Num0.frames.couches.zoom.rien();
}}
function svgclick1(){
//brsrici=document.getElementById("totalsvg").getAttribute("name")
if(brsrici=="ei"){window.SVGclick1()}else{
top.frames.Num0.frames.couches.zoom.valNoDatx(NoDatx);top.frames.Num0.frames.couches.zoom.transDATA();top.frames.Num0.frames.couches.zoom.carte()
}
}
function svgclick2(){
//brsrici=document.getElementById("totalsvg").getAttribute("name")
if(brsrici=="ei"){window.SVGclick2()}else{
top.frames.Num0.frames.couches.zoom.valNoDatx2(NoDatx);top.frames.Num0.frames.couches.zoom.transDATA();top.frames.Num0.frames.couches.zoom.carte()
}}
function svgout(){
//brsrici=document.getElementById("totalsvg").getAttribute("name")
if(brsrici=="ei"){window.SVGout()}else{
//top.frames.Num0.frames.couches.zoom0()
//<image x="10" Y="10" width="300" height="300" xlink:href="fonds france contour.jpg" ></image>
}}
]]></script>

  <metadata
     id="metadata7">
    <rdf:RDF>
      <cc:Work
         rdf:about="">
        <dc:format>image/svg+xml</dc:format>
        <dc:type
           rdf:resource="http://purl.org/dc/dcmitype/StillImage" />
      </cc:Work>
    </rdf:RDF>
  </metadata>

<defs>
<radialGradient id="grad1" >
 <stop class="begin" offset="0" style="stop-color:#5555AA"/>
 <stop class="end" offset="1" style="stop-color:white"/>
</radialGradient>
</defs>

<g space="preserve" opacity="1" transform="matrix(0.3, 0, 0, 0.3, 0, 0)"  name="ns" id="totalsvg">






	 
	 

	
<rect y="-150" x="-150" height="800" width="800" style="fill: url(#grad1) ; fill-opacity: 1; fill-rule: evenodd; stroke: rgb(0, 0, 0); stroke-width: 0.5; stroke-linecap: butt; stroke-linejoin: miter; stroke-opacity: 1;"  transform="matrix(1, 0, 0, 1, 0, 0)" fill="#EBEFF8" id="rectmove"></rect>


<g space="preserve" opacity="1" transform="matrix(1, 0, 0, 1, -160, -15)"   id="calageAires">




<image opacity="0" href="transparent.png" height="0" width="0" y="-60" x="0" transform="matrix(1, 0, 0, 1, 0, 0)" id="imagesfond1"/>

<image opacity="0" href="transparent.png" height="0" width="0" y="-60" x="0" transform="matrix(1, 0, 0, 1, 0, 0)" id="imagesfond2"/>


<g onmouseout="javascript:passout(this)" onmouseover="javascript:passon(this)" ident="1" title="DOUBS" transform="matrix(1, 0, 0, 1, 0, 0)" stroke-miterlimit="10" stroke-linecap="butt" stroke-linejoin="miter" stroke-width="0.5" fill="#EFF2F9" stroke="#7f7f7f"  onclick="tailCarte='../800-DOUBS';parent.cartechoisie(tailCarte);parent.document.getElementById('menucartelaX').style.display='none'" style="color:blue;cursor:pointer" id="1"><path stroke-width="1" stroke="gray" id="p1" d="M 338.7308403626943 239.05982538860113 L 348.56963450777204 238.54198860103634 L 375.10842331606216 221.32415751295338 L 390.2549834196891 222.61873316062184 L 418.4767129533679 198.28068341968918 L 425.2084860103627 201.51713886010367 L 438.5426336787565 179.8977077720208 L 451.7473103626943 174.84887979274617 L 459.1263875647669 176.53182487046638 L 461.19773834196894 182.7457937823835 L 470.90702487046633 177.43802746114 L 474.9226093264249 179.928670984456 L 478.12858756476686 176.73027668393786 L 476.00065647668396 171.93559948186532 L 478.156670984456 168.3759725388602 L 483.8528031088083 171.35352590673585 L 492.0086155440415 163.8449414507773 L 488.7722 160.6085259067358 L 489.93730466321244 158.79611347150262 L 507.93191450777203 167.85817202072542 L 513.8400632124353 161.27200259067365 L 515.4392331606218 165.5364497409327 L 529.8317373056996 163.9372834196892 L 537.2945170984456 177.7967321243524 L 534.6292398963731 178.32978756476695 L 533.0300699481866 176.1975658031089 L 531.4309036269431 177.7967321243524 L 537.2945170984456 190.59006994818662 L 527.166460103627 210.84618756476692 L 556.4845238341969 204.98257409326436 L 558.0836901554404 212.44535388601042 L 539.9597979274611 225.23869170984463 L 539.4267388601036 238.56508497409337 L 526.100345595855 252.42453367875657 L 527.6995155440414 256.1559253886011 L 501.5797844559586 279.61037927461155 L 504.77811709844565 284.40787823834205 L 490.3856129533679 299.8664968911918 L 473.3278279792746 305.7301103626944 L 470.6625507772021 303.0648295336788 L 461.06754559585494 314.792056476684 L 467.46421450777206 324.38706165803114 L 464.265881865285 344.110123834197 L 467.46421450777206 347.8415119170985 L 411.49336424870467 401.68014259067365 L 404.03058082901555 392.08513922279803 L 411.49336424870467 382.4901362176167 L 408.82808341968916 372.36207668393786 L 426.4189238341969 355.3042917098446 L 418.4230886010363 343.5770683937825 L 404.03058082901555 333.9820632124353 L 399.233081865285 339.3126212435234 L 388.0389103626943 305.7301103626944 L 361.9166400518135 299.86395803108815 L 361.91917891191713 291.87066165803117 L 358.72084445595857 293.46982797927467 L 357.1216774093264 298.2673305699483 L 352.32417554404145 300.3995523316063 L 348.5927856476684 297.7342751295338 L 351.79112010362695 294.53593886010367 L 348.5927856476684 290.80454715025917 L 350.72500849740936 289.73843626943005 L 355.52251 290.27149170984467 L 354.9894545595855 283.34176735751305 L 361.91917891191713 268.9492632124353 L 359.78695606217616 263.6187051813472 L 344.86139538860107 252.95759274611407 L 338.7308403626943 239.05982538860113 338.7308403626943 239.05982538860113 "></path><title>DOUBS</title></g>
<g onmouseout="javascript:passout(this)" onmouseover="javascript:passon(this)" ident="1" title="JURA" transform="matrix(1, 0, 0, 1, 0, 0)" stroke-miterlimit="10" stroke-linecap="butt" stroke-linejoin="miter" stroke-width="0.5" fill="#EFF2F9" stroke="#7f7f7f"   onclick="tailCarte='../800-JURA';parent.cartechoisie(tailCarte);parent.document.getElementById('menucartelaX').style.display='none'" style="color:blue;cursor:pointer"  id="2"><path stroke-width="1" stroke="gray" id="p2" d="M 344.86139538860107 252.95759274611407 L 359.78695606217616 263.6187051813472 L 361.91917891191713 268.9492632124353 L 354.9894545595855 283.34176735751305 L 355.52251 290.27149170984467 L 350.72500849740936 289.73843626943005 L 348.5927856476684 290.80454715025917 L 351.79112010362695 294.53593886010367 L 348.5927856476684 297.7342751295338 L 352.32417554404145 300.3995523316063 L 357.1216774093264 298.2673305699483 L 358.72084445595857 293.46982797927467 L 361.91917891191713 291.87066165803117 L 361.91917891191713 299.8664968911918 L 388.0389103626943 305.7301103626944 L 399.233081865285 339.3126212435234 L 404.03058082901555 333.9820632124353 L 418.4230886010363 343.5770683937825 L 426.4189238341969 355.3042917098446 L 408.82808341968916 372.36207668393786 L 411.49336424870467 382.4901362176167 L 404.03058082901555 392.08513922279803 L 411.49336424870467 401.68014259067365 L 423.22058756476684 408.0768115025908 L 408.82808341968916 429.9320968911918 L 410.96030880829016 430.9982084974094 L 388.5719658031088 464.58071865284984 L 376.31168341968913 476.8410010362695 L 353.92334295336786 476.8410010362695 L 353.3902871502591 468.8451658031089 L 341.1300051295337 462.9815523316063 L 340.0638935233161 457.6509943005182 L 338.46472647668395 458.7171051813472 L 337.3986148704663 462.4484968911918 L 333.13416903678757 470.4443321243524 L 329.40277883937824 469.9112766839379 L 323.5391658031088 480.0393373056996 L 309.67971637305703 477.9071119170985 L 313.41110663212436 469.9112766839379 L 311.27888378238345 464.58071865284984 L 306.4813819170985 466.17988860103634 L 304.3491590673575 459.2501642487047 L 302.7499916580311 459.7832196891192 L 301.68388041450777 468.31211036269434 L 301.150824611399 466.71294404145084 L 301.68388041450777 462.4484968911918 L 291.5558212435233 447.52293621761663 L 284.6260968911917 442.19237891191716 L 287.82442953367877 433.66348715025913 L 302.2169362176166 429.9320968911918 L 302.2169362176166 424.0684837823835 L 291.5558212435233 417.67181490673585 L 293.6880430051814 405.411532849741 L 299.01860176165803 404.8784770466322 L 298.4855459585492 397.41569689119177 L 302.2169362176166 393.1512508290156 L 292.0888766839378 366.4984632124353 L 294.2210984455959 359.56873886010374 L 285.69220777202077 353.7051253886011 L 285.69220777202077 347.8415119170985 L 289.42359948186527 349.440681865285 L 306.4813819170985 344.110123834197 L 295.8202683937824 333.44900777202076 L 283.5599860103627 332.91595233160626 L 279.29553886010365 321.18872538860114 L 275.5641507772021 320.6556699481866 L 272.89886994818653 323.32094715025914 L 272.36581450777203 310.5276093264249 L 279.29553886010365 302.5317740932643 L 272.36581450777203 300.3995523316063 L 283.0269305699482 287.07315906735755 L 291.5558212435233 287.07315906735755 L 305.41527067357515 238.56508497409337 L 310.7458279792746 233.23452694300525 L 320.87388715025907 245.49480932642493 L 338.7312541968912 239.06482694300527 344.86139538860107 252.95759274611407 "></path><title>JURA</title></g>
<g onmouseout="javascript:passout(this)" onmouseover="javascript:passon(this)" ident="1" title="HAUTE-SAONE" transform="matrix(1, 0, 0, 1, 0, 0)" stroke-miterlimit="10" stroke-linecap="butt" stroke-linejoin="miter" stroke-width="0.5" fill="#EFF2F9" stroke="#7f7f7f"   onclick="tailCarte='../800-HAUTE-SAONE';parent.cartechoisie(tailCarte);parent.document.getElementById('menucartelaX').style.display='none'" style="color:blue;cursor:pointer"  id="3"><path id="p3" d="M 320.87388715025907 245.49480932642493 L 338.7312541968912 239.06482694300527 L 348.5761274611399 238.54842642487054 L 375.11230777202076 221.32406321243525 L 390.2544248704663 222.62338652849746 L 418.47306062176165 198.2860621761659 L 425.2028896373057 201.51771191709855 L 438.5459414507772 179.8956404145078 L 451.7390699481865 174.8482668393783 L 459.1185606217616 176.53072590673582 L 461.20081036269437 182.74415440414515 L 470.91241813471504 177.43025492227986 L 474.9269943005181 179.92895388601045 L 478.1253305699482 176.7306212435234 L 475.9931088082901 171.93311865284977 L 478.15864766839377 168.36830880829024 L 483.8556792746114 171.3500875647669 L 492.00143782383424 163.83733575129537 L 488.7697880829016 160.60568238341978 L 489.93584663212437 158.7899621761659 L 507.92647772020734 167.8519119170985 L 513.8400632124353 161.27200259067365 L 515.4392331606218 159.13978082901565 L 507.44339792746115 149.01172020725392 L 509.5756196891192 142.61505129533685 L 502.6458953367876 119.693656476684 L 513.8400632124353 103.1689269430052 L 506.3772834196892 98.37142797927464 L 506.3772834196892 95.17309170984464 L 475.9931088082901 74.38391865284984 L 468.530325388601 77.04919585492229 L 458.4022683937824 89.30947823834208 L 447.20809689119176 75.98308497409334 L 437.6130953367876 70.65252694300528 L 425.8858683937824 73.31780777202079 L 414.69169689119167 80.7805875647669 L 405.09669533678755 71.18558238341973 L 406.69586165803105 69.58641606217623 L 400.299192746114 59.991414507772106 L 386.4397440414508 63.722802590673666 L 381.1091860103627 77.5822512953369 L 376.31168341968913 77.04919585492229 L 373.1133507772021 82.3797538860104 L 369.91501450777207 81.31364300518135 L 374.1794616580311 74.91697409326434 L 369.91501450777207 69.58641606217623 L 362.9852905181347 87.71031191709852 L 356.58862160621766 89.30947823834208 L 353.92334295336786 96.77225803108814 L 354.9894545595855 100.50364974093276 L 349.6588968911917 104.23503782383426 L 345.3944511917099 100.50364974093276 L 342.1961167357513 104.23503782383426 L 342.7291725388601 106.90031865284982 L 340.0638935233161 110.63170673575138 L 334.2002805233161 107.43337409326438 L 331.53500179792746 122.3589336787565 L 336.3325034818653 123.42504455958556 L 333.13416903678757 141.54894041450785 L 320.3408313471503 145.81338756476686 L 315.54332948186527 137.8175523316063 L 308.0805493264249 145.81338756476686 L 301.68388041450777 144.21422124352335 L 299.01860176165803 145.2803321243524 L 295.2872129533679 147.94560932642497 L 292.0888766839378 145.2803321243524 L 288.35748860103627 146.87949844559597 L 283.5599860103627 162.8711725388602 L 288.89054404145077 166.0695051813472 L 293.6880430051814 156.47450362694303 L 301.150824611399 161.27200259067365 L 304.8822148704663 178.32978756476695 L 295.8202683937824 190.05701450777207 L 289.42359948186527 188.99090362694312 L 288.89054404145077 191.65618082901557 L 290.4897103626943 193.25534715025913 L 285.69220777202077 195.92062797927468 L 286.75831865284977 199.65201606217624 L 291.0227658031088 197.51979430051819 L 298.4855459585492 212.44535388601042 L 303.81610326424874 211.91229844559592 L 306.4813819170985 212.97840932642492 L 304.8822148704663 226.3048025906736 L 303.2830474611399 230.5692497409327 L 310.7458279792746 233.23452694300525 320.87388715025907 245.49480932642493 "></path><title>HAUTE-SAONE</title></g>
<g onmouseout="javascript:passout(this)" onmouseover="javascript:passon(this)" ident="1" title="358-TERRITOIRE-DE-BELFORT" transform="matrix(1, 0, 0, 1, 0, 0)" stroke-miterlimit="10" stroke-linecap="butt" stroke-linejoin="miter" stroke-width="0.5" fill="#EFF2F9" stroke="#7f7f7f"   onclick="tailCarte='../358-TERRITOIRE-DE-BELFORT';parent.cartechoisie(tailCarte);parent.document.getElementById('menucartelaX').style.display='none'" style="color:blue;cursor:pointer"  id="4"><path id="p4" d="M 531.4309036269431 177.7967321243524 L 533.0300699481866 176.1975658031089 L 534.6292398963731 178.32978756476695 L 534.6292398963731 178.32978756476695 L 537.2945170984456 177.7967321243524 L 529.8317373056996 163.9372834196892 L 515.4392331606218 165.5364497409327 L 513.8400632124353 161.27200259067365 L 515.4392331606218 159.13978082901565 L 507.44339792746115 149.01172020725392 L 509.5756196891192 142.61505129533685 L 502.6458953367876 119.693656476684 L 513.8400632124353 103.1689269430052 L 515.4392331606218 99.9705943005182 L 516.5053440414508 101.0367051813472 L 518.6375658031088 109.03254041450788 L 549.0217440414508 119.693656476684 L 548.4886886010363 141.01588497409335 L 545.2903523316063 140.4828295336788 L 546.3564668393783 153.27616735751303 L 550.0878549222798 151.67700103626953 L 556.4845238341969 151.14394559585497 L 567.6786953367875 168.73478238341977 L 565.5464735751295 174.06534041450783 L 555.9514683937824 177.26367668393783 L 547.9556331606218 174.06534041450783 L 543.1581305699482 176.7306212435234 L 544.2242414507773 186.858678238342 L 537.2945170984456 190.59006994818662 531.4309036269431 177.7967321243524 "></path><title>358-TERRITOIRE-DE-BELFORT</title></g>



</g>
</g>








<script><![CDATA[


]]></script>


</svg>