<?xml version="1.0" encoding="UTF-8" standalone="no"?>

<!DOCTYPE svg PUBLIC "-//W3C//DTD SVG 1.1//EN"
  "http://www.w3.org/Graphics/SVG/1.1/DTD/svg11.dtd"
[
    <!ENTITY ns_flows "http://ns.adobe.com/Flows/1.0/">
	<!ENTITY ns_svg "http://www.w3.org/2000/svg">
	<!ENTITY ns_xlink "http://www.w3.org/1999/xlink">
]>

<svg id="gene"  
xmlns="http://www.w3.org/2000/svg"
xmlns:xlink="http://www.w3.org/1999/xlink"
xmlns:xul="http://www.mozilla.org/keymaster/gatekeeper/there.is.only.xul"

   xmlns:dc="http://purl.org/dc/elements/1.1/"
   xmlns:cc="http://web.resource.org/cc/"
   xmlns:rdf="http://www.w3.org/1999/02/22-rdf-syntax-ns#"
   xmlns:svg="http://www.w3.org/2000/svg"
 

   xmlns:sodipodi="http://inkscape.sourceforge.net/DTD/sodipodi-0.dtd"
   xmlns:inkscape="http://www.inkscape.org/namespaces/inkscape"


>


<script id="scrpt"  language="javascript" ><![CDATA[
var brsrici="ei"


function affichN(){
//brsrici=document.getElementById("totalsvg").getAttribute("name")
if(brsrici=="ei"){window.SVGaffichN()}else{
top.frames.Num0.frames.couches.zoom.SVGaffichN()
}
}
var strokewidthpas
var strokepas
var opacpas
function passon(a){
strokepas=a.getAttribute('stroke')
a.setAttribute('stroke','navy');
opacpas=a.getAttribute('fill-opacity')
a.setAttribute('fill-opacity','0.5')  
}
function passout(a){
a.setAttribute('fill-opacity',opacpas)
a.setAttribute('stroke',strokepas);
}
function svggeneral(){

brsrici=document.getElementById("totalsvg").getAttribute("name")
if(brsrici=="ei"){window.SVGgeneral()}else{
top.frames.Num0.frames[2].indic1()
}}
function svgdown(a){
//brsrici=document.getElementById("totalsvg").getAttribute("name")
if(brsrici=="ei"){window.SVGdown()}else{
top.frames.Num0.frames.couches.zoom.selxsvg();top.frames.Num0.frames.couches.zoom.rien();
}}
function svgclick1(){
//brsrici=document.getElementById("totalsvg").getAttribute("name")
if(brsrici=="ei"){window.SVGclick1()}else{
top.frames.Num0.frames.couches.zoom.valNoDatx(NoDatx);top.frames.Num0.frames.couches.zoom.transDATA();top.frames.Num0.frames.couches.zoom.carte()
}
}
function svgclick2(){
//brsrici=document.getElementById("totalsvg").getAttribute("name")
if(brsrici=="ei"){window.SVGclick2()}else{
top.frames.Num0.frames.couches.zoom.valNoDatx2(NoDatx);top.frames.Num0.frames.couches.zoom.transDATA();top.frames.Num0.frames.couches.zoom.carte()
}}
function svgout(){
//brsrici=document.getElementById("totalsvg").getAttribute("name")
if(brsrici=="ei"){window.SVGout()}else{
//top.frames.Num0.frames.couches.zoom0()
//<image x="10" Y="10" width="300" height="300" xlink:href="fonds france contour.jpg" ></image>
}}
]]></script>

  <metadata
     id="metadata7">
    <rdf:RDF>
      <cc:Work
         rdf:about="">
        <dc:format>image/svg+xml</dc:format>
        <dc:type
           rdf:resource="http://purl.org/dc/dcmitype/StillImage" />
      </cc:Work>
    </rdf:RDF>
  </metadata>

<defs>
<radialGradient id="grad1" >
 <stop class="begin" offset="0" style="stop-color:#5555AA"/>
 <stop class="end" offset="1" style="stop-color:white"/>
</radialGradient>
</defs>

<g space="preserve" opacity="1" transform="matrix(0.3, 0, 0, 0.3, 0, 0)"  name="ns" id="totalsvg">













	 
	 

	
<rect y="-150" x="-150" height="800" width="800" style="fill: url(#grad1) ; fill-opacity: 1; fill-rule: evenodd; stroke: rgb(0, 0, 0); stroke-width: 0.5; stroke-linecap: butt; stroke-linejoin: miter; stroke-opacity: 1;"  transform="matrix(1, 0, 0, 1, 0, 0)" fill="#EBEFF8" id="rectmove"></rect>


<g space="preserve" opacity="1" transform="matrix(1, 0, 0, 1, -160, -15)"   id="calageAires">




<image opacity="0" href="transparent.png" height="0" width="0" y="-60" x="0" transform="matrix(1, 0, 0, 1, 0, 0)" id="imagesfond1"/>

<image opacity="0" href="transparent.png" height="0" width="0" y="-60" x="0" transform="matrix(1, 0, 0, 1, 0, 0)" id="imagesfond2"/>

<g space="preserve" opacity="1" transform="matrix(0.6, 0, 0, 0.6, 190, 100)"  >
<g onmouseout="javascript:passout(this)" onmouseover="javascript:passon(this)" ident="1" title="ILLE-et-VILLAINE" transform="matrix(1, 0, 0, 1, 0, 0)" stroke-miterlimit="10" stroke-linecap="butt" stroke-linejoin="miter" stroke-width="0.5" fill="#EFF2F9" stroke="#7f7f7f"  onclick="tailCarte='../800-ILLE-et-VILLAINE';parent.cartechoisie(tailCarte);parent.document.getElementById('menucartelaX').style.display='none'" style="color:blue;cursor:pointer" id="1"><path stroke-width="1" stroke="gray" id="p1" d="M 574.9144430051813 148.1241963730571 L 617.8027538860104 181.79947538860108 L 601.9181580310881 235.80697616580318 L 571.9040984455958 249.46409766839386 L 535.6795880829015 282.1898937823835 L 552.3603341968911 307.1311259067358 L 533.9291347150258 323.4855722797928 L 554.4185518134716 328.10263989637315 L 569.8273290155439 336.6692563989638 L 563.477549222798 419.90899927461146 L 645.2765751295336 410.2271712435234 L 690.07746373057 385.9160743134716 L 687.0593937823834 378.2914843523317 L 732.4892487046632 396.0822077720208 L 749.8003756476684 351.2807098445596 L 762.8287538860104 333.1793191709845 L 779.1898756476684 334.9266443005182 L 768.5471735751296 253.91539041450784 L 776.6483316062175 234.21853834196898 L 776.012945595855 185.92945725388608 L 741.7023186528498 173.8571937823835 L 718.5108108808289 201.97285336787576 L 695.4782176165803 187.51789507772025 L 681.4998341968911 147.17113367875652 L 644.1710829015544 153.8426595854923 L 623.6799792746114 146.85344067357516 L 625.9038575129533 132.87501373057 L 631.1457512953368 129.0627194300519 L 630.3515051813471 120.16738056994825 L 606.6928834196891 130.01261036269437 L 572.5317046632124 141.7703961139897 L 574.9144430051813 148.1241963730571 574.9144430051813 148.1241963730571  "></path><title>ILLE-et-VILLAINE</title></g>
<g onmouseout="javascript:passout(this)" onmouseover="javascript:passon(this)" ident="1" title="COTES-D-ARMOR" transform="matrix(1, 0, 0, 1, 0, 0)" stroke-miterlimit="10" stroke-linecap="butt" stroke-linejoin="miter" stroke-width="0.5" fill="#EFF2F9" stroke="#7f7f7f"   onclick="tailCarte='../800-COTES-D-ARMOR';parent.cartechoisie(tailCarte);parent.document.getElementById('menucartelaX').style.display='none'" style="color:blue;cursor:pointer"  id="2"><path stroke-width="1" stroke="gray" id="p2" d="M 617.8027538860104 181.79947538860108 L 601.9181580310881 235.80697616580318 L 571.8963186528497 249.46767746113997 L 535.6795880829015 282.1898937823835 L 518.6959196891191 280.91096658031097 L 499.00118937823834 270.4226253886011 L 488.0485632124352 272.4802336787566 L 460.8798676165802 300.6070406735752 L 460.231489896373 278.2173031088083 L 439.1045432642486 283.1416670984457 L 382.3954904145077 252.16609585492233 L 351.8964722797927 265.35058678756485 L 311.07228730569943 254.7076943005182 L 294.07542590673575 255.1841930051814 L 285.6734020725388 191.6440523316063 L 301.0633989637305 149.23568393782386 L 284.3983212435233 131.75542538860105 L 283.5905284974093 110.31882124352336 L 298.68089455958545 108.88919455958552 L 298.68089455958545 71.0838194300519 L 309.005914507772 66.63612279792756 L 336.32744766839375 74.89611917098455 L 367.14357668393785 59.488054663212495 L 372.2266756476684 73.78419093264262 L 386.20511347150256 62.02960414507777 L 417.3389409326424 92.21033082901562 L 419.08627150259065 102.69417279792748 L 441.00700181347156 128.26843523316063 L 443.38972927461145 143.51762331606227 L 461.0216393782384 155.58996839378244 L 464.51623523316056 176.0810774611399 L 466.58126424870466 162.26145621761668 L 476.27088186528493 164.64418367875658 L 509.62856036269426 135.25762694300522 L 536.9500880829015 125.72688575129541 L 540.1269637305699 123.82073860103634 L 549.1812279792746 134.93992849740943 L 559.8239300518135 155.90766683937835 L 574.9107435233161 148.12360880829021 617.8027538860104 181.79947538860108 "></path><title>COTES-D-ARMOR</title></g>
<g onmouseout="javascript:passout(this)" onmouseover="javascript:passon(this)" ident="1" title="MORBIHAN" transform="matrix(1, 0, 0, 1, 0, 0)" stroke-miterlimit="10" stroke-linecap="butt" stroke-linejoin="miter" stroke-width="0.5" fill="#EFF2F9" stroke="#7f7f7f"   onclick="tailCarte='../358-MORBIHAN';parent.cartechoisie(tailCarte);parent.document.getElementById('menucartelaX').style.display='none'" style="color:blue;cursor:pointer"  id="3"><path id="p3" d="M 311.07929455958543 254.69072564766844 L 351.8964722797927 265.35058678756485 L 382.3954904145077 252.16609585492233 L 439.1045432642486 283.1416670984457 L 460.231489896373 278.2173031088083 L 460.86687590673574 300.6150272020726 L 488.0300222797927 272.498774611399 L 498.99063497409327 270.43372927461144 L 518.6878678756476 280.9177344559586 L 535.6795880829015 282.1898937823835 L 552.3583212435233 307.1286341968913 L 533.9322357512954 323.48976139896376 L 554.4233393782383 328.09627461139905 L 569.8313549222797 336.6739280829016 L 563.4961010362692 419.8898696891192 L 561.418243523316 454.0631533678757 L 548.8691658031089 469.9480158031089 L 523.2945116580311 461.3702284974094 L 519.3233082901554 475.98431891191717 L 485.9649769430052 480.1143551813472 L 482.31143937823833 456.2870316062177 L 423.3785082901554 462.9586663212436 L 405.11087487046626 448.5034033678757 L 376.3591873056995 433.4127549481866 L 365.55746191709846 433.57164225388607 L 361.90392435233156 454.0631533678757 L 367.1459541450777 463.2763865284975 L 356.66194896373054 459.46401606217626 L 354.91456943005176 446.91491113989645 L 361.4274256476684 433.57164225388607 L 328.386814507772 397.03637867875653 L 319.6501344559585 397.8305975906736 L 300.90594792746117 394.1770607331607 L 286.92723808290157 371.7793930569949 L 287.40379119170984 356.6887457253887 L 289.6276694300518 349.22283823834204 L 296.775857253886 356.52985841968916 L 314.24927176165806 339.6918859585493 L 315.9965968911917 316.8176098445597 L 304.71831839378234 318.2472691709845 L 299.9528417098445 309.5105891191711 L 276.9197370466321 306.8101577720208 L 257.3813316062176 265.9859727979275 L 278.0316761658031 254.23108678756483 L 294.07542590673575 255.1841930051814 311.07929455958543 254.69072564766844 "></path><title>MORBIHAN</title></g>
<g onmouseout="javascript:passout(this)" onmouseover="javascript:passon(this)" ident="1" title="FINISTERE" transform="matrix(1, 0, 0, 1, 0, 0)" stroke-miterlimit="10" stroke-linecap="butt" stroke-linejoin="miter" stroke-width="0.5" fill="#EFF2F9" stroke="#7f7f7f"   onclick="tailCarte='../358-FINISTERE';parent.cartechoisie(tailCarte);parent.document.getElementById('menucartelaX').style.display='none'" style="color:blue;cursor:pointer"  id="4"><path id="p4" d="M 284.38477461139894 131.76281347150262 L 301.0633989637305 149.23568393782386 L 285.65549222797927 191.64708808290163 L 294.07542590673575 255.1841930051814 L 278.0316761658031 254.23108678756483 L 257.3813316062176 265.9859727979275 L 276.9197370466321 306.8101577720208 L 299.9528417098445 309.5105891191711 L 304.71831839378234 318.2472691709845 L 315.9965968911917 316.8176098445597 L 314.24927176165806 339.6918859585493 L 296.775857253886 356.52985841968916 L 289.6276694300518 349.22283823834204 L 287.41733782383415 356.6825327720208 L 286.92723808290157 371.7793930569949 L 224.50049999999996 360.49851295336794 L 206.55110362694296 328.09426165803114 L 200.99154404145074 333.65382124352334 L 202.57998186528496 340.1664326424871 L 189.55475906735748 341.91373056994826 L 183.99519948186526 334.92459326424876 L 163.18664766839376 338.1014689119172 L 162.39240155440413 350.9678316062177 L 123.47553886010358 350.01477979274614 L 129.9882046632124 338.26027461139904 L 120.13985751295334 306.01493782383426 L 97.10742746113988 285.5240518134716 L 61.367494818652816 276.15223056994824 L 67.72124611398962 268.5277072538861 L 130.3058704663212 260.4266580310882 L 150.63795077720204 270.59267098445605 L 151.74986269430048 251.05483678756482 L 141.58379533678755 232.78772020725393 L 110.92689637305698 225.6397772020726 L 98.21933937823832 240.25343782383428 L 101.7139352331606 219.28597150259077 L 86.46488860103625 213.4087461139897 L 92.02439378238338 206.26074870466329 L 98.69586528497406 206.10188860103636 L 96.94856735751293 195.30048963730576 L 106.95577461139894 190.37631606217622 L 102.19046113989634 200.38352331606222 L 110.60917616580309 208.64343264248714 L 156.67403626943005 213.0910803108809 L 163.34545336787562 209.75534455958558 L 143.48995336787561 201.49543523316072 L 148.2552668393782 188.31135233160632 L 136.9773419689119 197.52431347150264 L 122.52248704663211 194.98282383419695 L 131.89430829015544 181.1633549222799 L 128.5585725388601 176.08037564766846 L 88.847518134715 189.89979015544048 L 62.002826424870435 190.5351761658032 L 65.49742227979272 136.21046113989644 L 76.61654145077716 125.56786787564766 L 117.59831347150256 108.25385751295346 L 150.32023056994817 96.4993523316063 L 163.34545336787562 105.87122797927464 L 178.7533601036269 106.03008808290161 L 201.4680699481865 96.4993523316063 L 224.6593601036269 89.82793523316064 L 225.77127202072538 107.14194559585496 L 245.94449222797923 103.01201813471505 L 252.457103626943 93.322531088083 L 276.6013911917098 102.53549222797938 L 283.5905284974093 110.31882124352336 284.38477461139894 131.76281347150262 "></path><title>FINISTERE</title></g>
</g>


</g>
</g>








<script><![CDATA[


]]></script>


</svg>