<?xml version="1.0" encoding="UTF-8" standalone="no"?>

<!DOCTYPE svg PUBLIC "-//W3C//DTD SVG 1.1//EN"
  "http://www.w3.org/Graphics/SVG/1.1/DTD/svg11.dtd"
[
    <!ENTITY ns_flows "http://ns.adobe.com/Flows/1.0/">
	<!ENTITY ns_svg "http://www.w3.org/2000/svg">
	<!ENTITY ns_xlink "http://www.w3.org/1999/xlink">
]>

<svg id="gene"  
xmlns="http://www.w3.org/2000/svg"
xmlns:xlink="http://www.w3.org/1999/xlink"
xmlns:xul="http://www.mozilla.org/keymaster/gatekeeper/there.is.only.xul"

   xmlns:dc="http://purl.org/dc/elements/1.1/"
   xmlns:cc="http://web.resource.org/cc/"
   xmlns:rdf="http://www.w3.org/1999/02/22-rdf-syntax-ns#"
   xmlns:svg="http://www.w3.org/2000/svg"
 

   xmlns:sodipodi="http://inkscape.sourceforge.net/DTD/sodipodi-0.dtd"
   xmlns:inkscape="http://www.inkscape.org/namespaces/inkscape"


>


<script id="scrpt"  language="javascript" ><![CDATA[
var brsrici="ei"


function affichN(){
//brsrici=document.getElementById("totalsvg").getAttribute("name")
if(brsrici=="ei"){window.SVGaffichN()}else{
top.frames.Num0.frames.couches.zoom.SVGaffichN()
}
}
var strokewidthpas
var strokepas
var opacpas
function passon(a){
strokepas=a.getAttribute('stroke')
a.setAttribute('stroke','navy');
opacpas=a.getAttribute('fill-opacity')
a.setAttribute('fill-opacity','0.5')  
}
function passout(a){
a.setAttribute('fill-opacity',opacpas)
a.setAttribute('stroke',strokepas);
}
function svggeneral(){

brsrici=document.getElementById("totalsvg").getAttribute("name")
if(brsrici=="ei"){window.SVGgeneral()}else{
top.frames.Num0.frames[2].indic1()
}}
function svgdown(a){
//brsrici=document.getElementById("totalsvg").getAttribute("name")
if(brsrici=="ei"){window.SVGdown()}else{
top.frames.Num0.frames.couches.zoom.selxsvg();top.frames.Num0.frames.couches.zoom.rien();
}}
function svgclick1(){
//brsrici=document.getElementById("totalsvg").getAttribute("name")
if(brsrici=="ei"){window.SVGclick1()}else{
top.frames.Num0.frames.couches.zoom.valNoDatx(NoDatx);top.frames.Num0.frames.couches.zoom.transDATA();top.frames.Num0.frames.couches.zoom.carte()
}
}
function svgclick2(){
//brsrici=document.getElementById("totalsvg").getAttribute("name")
if(brsrici=="ei"){window.SVGclick2()}else{
top.frames.Num0.frames.couches.zoom.valNoDatx2(NoDatx);top.frames.Num0.frames.couches.zoom.transDATA();top.frames.Num0.frames.couches.zoom.carte()
}}
function svgout(){
//brsrici=document.getElementById("totalsvg").getAttribute("name")
if(brsrici=="ei"){window.SVGout()}else{
//top.frames.Num0.frames.couches.zoom0()
//<image x="10" Y="10" width="300" height="300" xlink:href="fonds france contour.jpg" ></image>
}}
]]></script>

  <metadata
     id="metadata7">
    <rdf:RDF>
      <cc:Work
         rdf:about="">
        <dc:format>image/svg+xml</dc:format>
        <dc:type
           rdf:resource="http://purl.org/dc/dcmitype/StillImage" />
      </cc:Work>
    </rdf:RDF>
  </metadata>

<defs>
<radialGradient id="grad1" >
 <stop class="begin" offset="0" style="stop-color:#5555AA"/>
 <stop class="end" offset="1" style="stop-color:white"/>
</radialGradient>
</defs>

<g space="preserve" opacity="1" transform="matrix(0.3, 0, 0, 0.3, 0, 0)"  name="ns" id="totalsvg">






	 
	 

	
<rect y="-150" x="-150" height="800" width="800" style="fill: url(#grad1) ; fill-opacity: 1; fill-rule: evenodd; stroke: rgb(0, 0, 0); stroke-width: 0.5; stroke-linecap: butt; stroke-linejoin: miter; stroke-opacity: 1;"  transform="matrix(1, 0, 0, 1, 0, 0)" fill="#EBEFF8" id="rectmove"></rect>


<g space="preserve" opacity="1" transform="matrix(1, 0, 0, 1, -160, -15)"   id="calageAires">




<image opacity="0" href="transparent.png" height="0" width="0" y="-60" x="0" transform="matrix(1, 0, 0, 1, 0, 0)" id="imagesfond1"/>

<image opacity="0" href="transparent.png" height="0" width="0" y="-60" x="0" transform="matrix(1, 0, 0, 1, 0, 0)" id="imagesfond2"/>


<g onmouseout="javascript:passout(this)" onmouseover="javascript:passon(this)" ident="1" title="PARIS" transform="matrix(1, 0, 0, 1, 0, 0)" stroke-miterlimit="10" stroke-linecap="butt" stroke-linejoin="miter" stroke-width="0.5" fill="#EFF2F9" stroke="#7f7f7f"  onclick="tailCarte='../358-PARIS';parent.cartechoisie(tailCarte);parent.document.getElementById('menucartelaX').style.display='none'" style="color:blue;cursor:pointer" id="1"><path stroke-width="1" stroke="gray" id="p1" d="M 373.64394847645434 188.14548033241005 L 393.319048199446 186.55020166204991 L 397.0413631578948 206.75706094182834 L 395.44608642659284 212.07465457063722 L 403.9542373961219 207.82058005540176 L 411.3988692520776 209.94761828254855 L 407.6765523545707 219.51928642659288 L 393.319048199446 213.6699332409973 L 383.2156185595568 218.45576925207763 L 375.7709867036011 217.92400969529098 L 357.1594060941828 212.60641412742393 L 356.0958869806094 207.82058005540176 L 349.18301468144045 203.03474404432137 L 351.3100529085873 197.71715041551255 L 358.22292520775625 195.5901121883657 L 363.0087592797784 195.058352631579 L 364.0722783933518 191.86779722991696 L 373.64394847645434 188.14548033241005 373.64394847645434 188.14548033241005 "></path><title>PARIS</title></g>
<g onmouseout="javascript:passout(this)" onmouseover="javascript:passon(this)" ident="1" title="SEINE-SAINT-DENIS" transform="matrix(1, 0, 0, 1, 0, 0)" stroke-miterlimit="10" stroke-linecap="butt" stroke-linejoin="miter" stroke-width="0.5" fill="#EFF2F9" stroke="#7f7f7f"   onclick="tailCarte='../358-SEINE-SAINT-DENIS';parent.cartechoisie(tailCarte);parent.document.getElementById('menucartelaX').style.display='none'" style="color:blue;cursor:pointer"  id="2"><path stroke-width="1" stroke="gray" id="p2" d="M 372.0486698060942 182.29612714681446 L 377.89802493074797 175.91501246537405 L 375.7709867036011 171.6609379501386 L 366.1993166204987 166.87510193905825 L 364.60403795013855 164.21630609418287 L 367.79459529085875 161.55750831024937 L 377.36626537396126 165.2798252077563 L 384.8108972299169 158.89871052631582 L 395.97784404432133 166.3433423822715 L 408.74007146814404 165.81158282548483 L 425.7563734072022 149.32704044321338 L 430.01044986149594 147.20000415512476 L 433.73276481994463 144.5412063711912 L 443.83619445983385 176.9785315789474 L 439.0503603878117 189.74075900277012 L 432.6692457063712 191.86779722991696 L 439.0503603878117 199.84418864265933 L 437.45508171745155 205.1617822714682 L 441.709156232687 221.11456509695302 L 441.709156232687 221.11456509695302 L 414.5894246537397 201.4394653739613 L 397.0413631578948 206.75706094182834 L 393.319048199446 186.55020166204991 L 373.64394847645434 188.14548033241005 372.0486698060942 182.29612714681446 "></path><title>SEINE-SAINT-DENIS</title></g>
<g onmouseout="javascript:passout(this)" onmouseover="javascript:passon(this)" ident="1" title="VAL-de-MARNE" transform="matrix(1, 0, 0, 1, 0, 0)" stroke-miterlimit="10" stroke-linecap="butt" stroke-linejoin="miter" stroke-width="0.5" fill="#EFF2F9" stroke="#7f7f7f"   onclick="tailCarte='../358-VAL-de-MARNE';parent.cartechoisie(tailCarte);parent.document.getElementById('menucartelaX').style.display='none'" style="color:blue;cursor:pointer"  id="3"><path id="p3" d="M 407.6765523545707 219.51928642659288 L 411.3988692520776 209.94761828254855 L 403.9542373961219 207.82058005540176 L 395.44608642659284 212.07465457063722 L 397.0413631578948 206.75706094182834 L 414.5894246537397 201.4394653739613 L 441.709156232687 221.11456509695302 L 439.5821199445984 234.9403116343491 L 444.36795401662056 233.87679252077567 L 445.96323268698063 239.72614570637126 L 442.2409157894737 240.78966481994465 L 435.32804349030476 257.80596695290865 L 437.98684127423826 264.70214551246545 L 430.54220941828254 266.84587747922444 L 421.50229889196675 248.76605623268705 L 386.9379335180056 256.21068867036024 L 384.8108972299169 244.51198171745162 L 383.2156185595568 245.57549889196684 L 382.15209944598337 246.63901800554024 L 373.11218891966763 244.51198171745162 L 370.98515069252085 242.38494349030478 L 375.7709867036011 217.92400969529098 L 383.2156185595568 218.45576925207763 L 393.319048199446 213.6699332409973 407.6765523545707 219.51928642659288 "></path><title>VAL-de-MARNE</title></g>
<g onmouseout="javascript:passout(this)" onmouseover="javascript:passon(this)" ident="1" title="HAUT-de-SEINE" transform="matrix(1, 0, 0, 1, 0, 0)" stroke-miterlimit="10" stroke-linecap="butt" stroke-linejoin="miter" stroke-width="0.5" fill="#EFF2F9" stroke="#7f7f7f"   onclick="tailCarte='../358-HAUT-de-SEINE';parent.cartechoisie(tailCarte);parent.document.getElementById('menucartelaX').style.display='none'" style="color:blue;cursor:pointer"  id="4"><path id="p4" d="M 357.1594060941828 212.60641412742393 L 356.0958869806094 207.82058005540176 L 349.18301468144045 203.03474404432137 L 351.3100529085873 197.71715041551255 L 358.22292520775625 195.5901121883657 L 363.0087592797784 195.058352631579 L 364.0722783933518 191.86779722991696 L 373.64394847645434 188.14548033241005 L 372.0486698060942 182.29612714681446 L 377.89802493074797 175.91501246537405 L 375.7709867036011 171.6609379501386 L 366.1993166204987 166.87510193905825 L 345.4606981717452 183.89140387811642 L 336.4207876454294 188.67723988919676 L 329.5079149584488 204.0982631578948 L 331.10319324099726 219.51928642659288 L 350.2465337950139 235.4720711911358 L 356.0958869806094 240.25790526315797 L 361.41348060941834 238.66262659279786 L 365.6675570637119 244.51198171745162 L 361.41348060941834 249.29781578947376 L 364.0722783933518 252.48837254847652 L 368.32635484764546 248.23429667590037 L 371.5169102493075 252.48837254847652 L 373.11218891966763 249.82957534626044 L 373.11218891966763 244.51198171745162 L 370.98515069252085 242.38494349030478 L 375.7709867036011 217.92400969529098 357.1594060941828 212.60641412742393 "></path><title>HAUT-de-SEINE</title></g>
<g onmouseout="javascript:passout(this)" onmouseover="javascript:passon(this)" ident="1" title="VAL-d-OISE" transform="matrix(1, 0, 0, 1, 0, 0)" stroke-miterlimit="10" stroke-linecap="butt" stroke-linejoin="miter" stroke-width="0.5" fill="#EFF2F9" stroke="#7f7f7f"   onclick="tailCarte='../358-VAL-d-OISE';parent.cartechoisie(tailCarte);parent.document.getElementById('menucartelaX').style.display='none'" style="color:blue;cursor:pointer"  id="5"><path id="p5" d="M 366.1993166204987 166.87510193905825 L 364.60403795013855 164.21630609418287 L 367.79459529085875 161.55750831024937 L 377.36626537396126 165.2798252077563 L 384.8108972299169 158.89871052631582 L 395.97784404432133 166.3433423822715 L 408.74007146814404 165.81158282548483 L 425.7563734072022 149.32704044321338 L 430.0270675900277 147.18338642659285 L 427.35165207756233 145.07296592797792 L 426.8198925207756 142.94592770083108 L 432.13748614958456 139.22361080332416 L 440.11387756232693 119.01675346260396 L 433.2010052631579 113.1673983379502 L 431.0739689750693 104.12748781163447 L 424.69285429362884 105.72276648199454 L 424.69285429362884 112.6356387811635 L 415.12118421052634 110.50860249307487 L 418.31174155124654 106.78628559556796 L 385.87441634349034 89.76998365650974 L 382.15209944598337 95.08757728531862 L 373.11218891966763 80.730073130194 L 367.79459529085875 81.26183268698071 L 363.0087592797784 91.36526232686987 L 348.65125512465374 93.49230055401671 L 352.37357008310255 88.70646454293632 L 348.65125512465374 83.92063047091415 L 336.4207876454294 88.70646454293632 L 333.23023108033243 86.57942631578959 L 335.35726872576186 82.85711135734078 L 316.21392894736846 78.60303490304722 L 316.7456883102493 71.69016066482004 L 313.02337218836567 70.62664542936295 L 294.9435515235457 83.92063047091415 L 288.56243878116345 80.19831357340723 L 265.1650221606648 89.23822409972303 L 233.79121606648204 82.32535180055402 L 226.87834376731303 73.2854432132965 L 230.0688991689751 66.37256509695294 L 222.6242673130194 59.99145429362886 L 199.22685263157896 120.61203213296403 L 209.8620398891967 118.48499390581725 L 221.0289886426593 124.86610664819949 L 219.9654695290859 128.5884235457064 L 226.87834376731303 133.37425761772863 L 249.74399889196678 119.54851301939061 L 261.9744667590028 126.99314487534633 L 259.847428531856 144.0094468144045 L 264.10150304709146 142.41416814404442 L 271.5461368421053 131.2472193905818 L 299.1976260387812 150.3905595567868 L 324.72207995567874 142.41416814404442 L 324.19032055401664 153.04935734072035 L 333.76199044321334 155.70815512465379 L 338.54782548476453 163.15278698060945 L 345.4606981717452 183.89140387811642 366.1993166204987 166.87510193905825 "></path><title>VAL-d-OISE</title></g>
<g onmouseout="javascript:passout(this)" onmouseover="javascript:passon(this)" ident="1" title="SEINE-et-MARNE" transform="matrix(1, 0, 0, 1, 0, 0)" stroke-miterlimit="10" stroke-linecap="butt" stroke-linejoin="miter" stroke-width="0.5" fill="#EFF2F9" stroke="#7f7f7f"   onclick="tailCarte='../800-SEINE-et-MARNE';parent.cartechoisie(tailCarte);parent.document.getElementById('menucartelaX').style.display='none'" style="color:blue;cursor:pointer"  id="6"><path id="p6" d="M 427.35165207756233 145.07296592797792 L 426.8198925207756 142.94592770083108 L 432.13748614958456 139.22361080332416 L 440.11387756232693 119.01675346260396 L 450.2173072022161 111.5721216066483 L 475.2100024930748 126.99314487534633 L 487.4404684210527 122.207308864266 L 483.7181534626039 119.01675346260396 L 493.82158116343487 111.5721216066483 L 506.5838085872577 123.27082797783942 L 533.1717728531856 114.76267700831033 L 535.8305706371192 123.27082797783942 L 542.2116814404433 114.23091745152357 L 556.5692049861497 116.88971523545712 L 557.1009529085873 105.72276648199454 L 582.6254155124653 112.10388116343495 L 578.3713351800554 119.54851301939061 L 586.347728531856 130.18370221606654 L 581.5618808864265 141.35064903047095 L 609.2133739612188 172.1926975069253 L 615.0627368421053 167.93862105263162 L 618.2532825484766 178.0420506925209 L 623.5708781163436 183.35964626038788 L 631.0155235457064 177.51029113573418 L 636.3331191135735 193.99483351800563 L 661.8575623268698 205.1617822714682 L 660.7940470914127 217.3922501385042 L 657.0717340720221 214.73345235457072 L 651.2223711911357 218.98752686980617 L 644.3095124653739 216.32873102493085 L 641.6507146814404 220.0510459833796 L 649.0953407202217 222.7098437673131 L 648.5635734072023 230.68623518005543 L 643.2459778393352 229.09095650969536 L 641.118947368421 239.19438614958457 L 649.0953407202217 239.19438614958457 L 657.6034819944598 264.71883963988927 L 653.3494210526316 271.09995296398904 L 654.4129362880886 282.79866069252085 L 671.9609861495845 280.1398634903048 L 681.0009141274238 292.37033019390594 L 667.1751578947369 296.6244066481995 L 641.118947368421 343.9509955678671 L 640.0554321329639 365.2213739612189 L 648.5635734072023 366.816652631579 L 644.8412603878118 375.8565631578948 L 636.8648670360111 373.72952493074797 L 632.0790387811635 383.8329545706372 L 553.9104072022161 388.61878864265935 L 546.9975290858727 410.95268614958457 L 553.9104072022161 430.6277858725762 L 527.3224293628809 458.27927506925215 L 527.8541772853185 462.5333515235458 L 510.3061254847646 466.25567036011086 L 499.6709362880887 475.29557894736854 L 494.88510027700835 475.29557894736854 L 492.75806398891973 471.0414986149585 L 495.9486193905817 463.5968706371192 L 479.99583656509697 462.00159196675907 L 482.65463434903046 469.97798337950144 L 461.38425595567867 480.08140720221616 L 452.8761049861496 471.5732659279779 L 438.51860083102497 475.82734626038786 L 435.32804349030476 471.0414986149585 L 426.8198925207756 471.0414986149585 L 419.9070202216066 479.01789196675907 L 403.9542373961219 477.954376731302 L 412.99414792243766 464.1286301939059 L 420.9705393351801 463.5968706371192 L 420.9705393351801 436.4771390581718 L 399.16840138504153 427.437228531856 L 398.6366418282548 415.20676066482 L 393.319048199446 405.1033310249308 L 391.19200997229916 401.38101606648206 L 401.2954396121884 399.2539778393353 L 404.48599695290864 392.34110554016627 L 399.70016094182824 388.61878864265935 L 428.41517119113576 372.13424626038784 L 422.03405844875346 364.15785484764547 L 418.31174155124654 364.15785484764547 L 419.9070202216066 343.9509955678671 L 420.9705393351801 335.9746041551247 L 416.71646288088647 329.5934914127424 L 427.35165207756233 297.68792576177293 L 420.4387797783934 289.1797740166206 L 427.35165207756233 287.58449554016624 L 437.98684127423826 264.71883963988927 L 435.32804349030476 257.80596695290865 L 442.2409157894737 240.78966481994465 L 445.96323268698063 239.72614570637126 L 444.36795401662056 233.87679252077567 L 439.5821199445984 234.9403116343491 L 441.709156232687 221.11456509695302 L 437.45508171745155 205.1617822714682 L 439.0503603878117 199.84418864265933 L 432.6692457063712 191.86779722991696 L 439.0503603878117 189.74075900277012 L 443.83619445983385 176.9785315789474 L 433.73276481994463 144.5412063711912 L 430.0270675900277 147.18338642659285 427.35165207756233 145.07296592797792 "></path><title>SEINE-et-MARNE</title></g>
<g onmouseout="javascript:passout(this)" onmouseover="javascript:passon(this)" ident="1" title="ESSONNE" transform="matrix(1, 0, 0, 1, 0, 0)" stroke-miterlimit="10" stroke-linecap="butt" stroke-linejoin="miter" stroke-width="0.5" fill="#EFF2F9" stroke="#7f7f7f"   onclick="tailCarte='../358-ESSONNE';parent.cartechoisie(tailCarte);parent.document.getElementById('menucartelaX').style.display='none'" style="color:blue;cursor:pointer"  id="7"><path id="p7" d="M 356.0958869806094 240.25790526315797 L 361.41348060941834 238.66262659279786 L 365.6675570637119 244.51198171745162 L 361.41348060941834 249.29781578947376 L 364.0722783933518 252.48837254847652 L 368.32635484764546 248.23429667590037 L 371.5169102493075 252.48837254847652 L 373.11218891966763 249.82957534626044 L 373.11218891966763 244.51198171745162 L 382.15209944598337 246.63901800554024 L 384.8108972299169 244.51198171745162 L 386.9379335180056 256.21068867036024 L 421.50229889196675 248.76605623268705 L 430.54220941828254 266.84587747922444 L 437.98439030470917 264.70214551246545 L 427.35165207756233 287.58449554016624 L 420.4387797783934 289.1797740166206 L 427.35165207756233 297.68792576177293 L 416.71646288088647 329.5934914127424 L 420.9705393351801 335.9746041551247 L 419.9070202216066 343.9509955678671 L 418.31174155124654 364.15785484764547 L 422.03405844875346 364.15785484764547 L 428.41517119113576 372.13424626038784 L 399.70016094182824 388.61878864265935 L 404.48599695290864 392.34110554016627 L 401.2954396121884 399.2539778393353 L 391.19200997229916 401.38101606648206 L 393.319048199446 405.1033310249308 L 380.02506121883664 408.293888365651 L 375.2392271468144 400.84925650969535 L 370.98515069252085 401.9127756232688 L 355.03236786703604 413.0797243767314 L 353.9688487534627 399.78573739612193 L 343.8654198891967 394.4681437673131 L 331.6349526038781 412.016205263158 L 286.4354005540166 416.27027977839344 L 282.71308365650975 410.95268614958457 L 288.56243878116345 385.959992797784 L 287.49891966759003 374.7930440443214 L 275.80021135734074 373.19776537396126 L 273.67317313019396 352.9909060941829 L 287.49891966759003 325.33941495844886 L 276.86373047091416 320.0218213296399 L 277.9272495844875 313.6407085872577 L 295.47531108033246 316.2995063711912 L 308.7692967036011 293.965608864266 L 296.0070706371191 279.07634457063716 L 302.3881833795014 266.84587747922444 L 313.02337218836567 267.90939639889206 L 319.9362450692521 254.61541038781172 L 321.53152335180056 248.23429667590037 L 350.2465337950139 235.4720711911358 356.0958869806094 240.25790526315797 "></path><title>ESSONNE</title></g>
<g onmouseout="javascript:passout(this)" onmouseover="javascript:passon(this)" ident="1" title="YVELINES" transform="matrix(1, 0, 0, 1, 0, 0)" stroke-miterlimit="10" stroke-linecap="butt" stroke-linejoin="miter" stroke-width="0.5" fill="#EFF2F9" stroke="#7f7f7f"   onclick="tailCarte='../358-YVELINES';parent.cartechoisie(tailCarte);parent.document.getElementById('menucartelaX').style.display='none'" style="color:blue;cursor:pointer"  id="8"><path id="p8" d="M 196.56805484764547 116.35795567867046 L 199.22685263157896 120.61203213296403 L 209.8620398891967 118.48499390581725 L 221.0289886426593 124.86610664819949 L 219.9654695290859 128.5884235457064 L 226.87834376731303 133.37425761772863 L 249.74399889196678 119.54851301939061 L 261.9744667590028 126.99314487534633 L 259.847428531856 144.0094468144045 L 264.10150304709146 142.41416814404442 L 271.5461368421053 131.2472193905818 L 299.1976260387812 150.3905595567868 L 324.72207995567874 142.41416814404442 L 324.19032055401664 153.04935734072035 L 333.76199044321334 155.70815512465379 L 338.0160659279778 162.08926786703609 L 345.4606981717452 183.89140387811642 L 336.4207876454294 188.67723988919676 L 329.5079149584488 204.0982631578948 L 331.10319324099726 219.51928642659288 L 350.2465337950139 235.4720711911358 L 321.53152335180056 248.23429667590037 L 319.9362450692521 254.61541038781172 L 313.02337218836567 267.90939639889206 L 302.3881833795014 266.84587747922444 L 296.0070706371191 279.07634457063716 L 308.7692967036011 293.965608864266 L 295.47531108033246 316.2995063711912 L 277.9272495844875 313.6407085872577 L 276.86373047091416 320.0218213296399 L 287.49891966759003 325.33941495844886 L 273.67317313019396 352.9909060941829 L 268.8873390581718 359.90378033241007 L 255.06159252077566 356.7132229916898 L 253.4663157894737 349.80035069252085 L 242.29936703601112 348.2050720221607 L 237.51353102493078 325.87117451523557 L 239.1088096952909 319.49006177285327 L 218.37019279778397 303.53727894736846 L 223.15602686980614 295.0291279778394 L 210.92555900277011 293.965608864266 L 190.71870166204988 258.33772631578955 L 201.88564847645432 243.9802221606649 L 189.6551825484765 236.00383074792248 L 189.12342299168978 201.971224930748 L 169.4483232686981 162.08926786703609 L 174.23415927977842 158.36695096952917 L 173.17064016620503 153.58111689750694 L 163.06721052631582 157.8351914127424 L 160.940172299169 153.04935734072035 L 165.19424875346263 149.8588000000001 L 159.34489362880888 132.84249806094192 196.56805484764547 116.35795567867046 "></path><title>YVELINES</title></g>



</g>
</g>








<script><![CDATA[


]]></script>


</svg>