<?xml version="1.0" encoding="UTF-8" standalone="no"?>

<!DOCTYPE svg PUBLIC "-//W3C//DTD SVG 1.1//EN"
  "http://www.w3.org/Graphics/SVG/1.1/DTD/svg11.dtd"
[
    <!ENTITY ns_flows "http://ns.adobe.com/Flows/1.0/">
	<!ENTITY ns_svg "http://www.w3.org/2000/svg">
	<!ENTITY ns_xlink "http://www.w3.org/1999/xlink">
]>

<svg id="gene"  
xmlns="http://www.w3.org/2000/svg"
xmlns:xlink="http://www.w3.org/1999/xlink"
xmlns:xul="http://www.mozilla.org/keymaster/gatekeeper/there.is.only.xul"

   xmlns:dc="http://purl.org/dc/elements/1.1/"
   xmlns:cc="http://web.resource.org/cc/"
   xmlns:rdf="http://www.w3.org/1999/02/22-rdf-syntax-ns#"
   xmlns:svg="http://www.w3.org/2000/svg"
 

   xmlns:sodipodi="http://inkscape.sourceforge.net/DTD/sodipodi-0.dtd"
   xmlns:inkscape="http://www.inkscape.org/namespaces/inkscape"


>


<script id="scrpt"  language="javascript" ><![CDATA[
var brsrici="ei"


function affichN(){
//brsrici=document.getElementById("totalsvg").getAttribute("name")
if(brsrici=="ei"){window.SVGaffichN()}else{
top.frames.Num0.frames.couches.zoom.SVGaffichN()
}
}
var strokewidthpas
var strokepas
var opacpas
function passon(a){
strokepas=a.getAttribute('stroke')
a.setAttribute('stroke','navy');
opacpas=a.getAttribute('fill-opacity')
a.setAttribute('fill-opacity','0.5')  
}
function passout(a){
a.setAttribute('fill-opacity',opacpas)
a.setAttribute('stroke',strokepas);
}
function svggeneral(){

brsrici=document.getElementById("totalsvg").getAttribute("name")
if(brsrici=="ei"){window.SVGgeneral()}else{
top.frames.Num0.frames[2].indic1()
}}
function svgdown(a){
//brsrici=document.getElementById("totalsvg").getAttribute("name")
if(brsrici=="ei"){window.SVGdown()}else{
top.frames.Num0.frames.couches.zoom.selxsvg();top.frames.Num0.frames.couches.zoom.rien();
}}
function svgclick1(){
//brsrici=document.getElementById("totalsvg").getAttribute("name")
if(brsrici=="ei"){window.SVGclick1()}else{
top.frames.Num0.frames.couches.zoom.valNoDatx(NoDatx);top.frames.Num0.frames.couches.zoom.transDATA();top.frames.Num0.frames.couches.zoom.carte()
}
}
function svgclick2(){
//brsrici=document.getElementById("totalsvg").getAttribute("name")
if(brsrici=="ei"){window.SVGclick2()}else{
top.frames.Num0.frames.couches.zoom.valNoDatx2(NoDatx);top.frames.Num0.frames.couches.zoom.transDATA();top.frames.Num0.frames.couches.zoom.carte()
}}
function svgout(){
//brsrici=document.getElementById("totalsvg").getAttribute("name")
if(brsrici=="ei"){window.SVGout()}else{
//top.frames.Num0.frames.couches.zoom0()
//<image x="10" Y="10" width="300" height="300" xlink:href="fonds france contour.jpg" ></image>
}}
]]></script>

  <metadata
     id="metadata7">
    <rdf:RDF>
      <cc:Work
         rdf:about="">
        <dc:format>image/svg+xml</dc:format>
        <dc:type
           rdf:resource="http://purl.org/dc/dcmitype/StillImage" />
      </cc:Work>
    </rdf:RDF>
  </metadata>

<defs>
<radialGradient id="grad1" >
 <stop class="begin" offset="0" style="stop-color:#5555AA"/>
 <stop class="end" offset="1" style="stop-color:white"/>
</radialGradient>
</defs>

<g space="preserve" opacity="1" transform="matrix(0.3, 0, 0, 0.3, 0, 0)"  name="ns" id="totalsvg">






	 
	 

	
<rect y="-150" x="-150" height="800" width="800" style="fill: url(#grad1) ; fill-opacity: 1; fill-rule: evenodd; stroke: rgb(0, 0, 0); stroke-width: 0.5; stroke-linecap: butt; stroke-linejoin: miter; stroke-opacity: 1;"  transform="matrix(1, 0, 0, 1, 0, 0)" fill="#EBEFF8" id="rectmove"></rect>


<g space="preserve" opacity="1" transform="matrix(1, 0, 0, 1, -160, -15)"   id="calageAires">




<image opacity="0" href="transparent.png" height="0" width="0" y="-60" x="0" transform="matrix(1, 0, 0, 1, 0, 0)" id="imagesfond1"/>

<image opacity="0" href="transparent.png" height="0" width="0" y="-60" x="0" transform="matrix(1, 0, 0, 1, 0, 0)" id="imagesfond2"/>


<g onmouseout="javascript:passout(this)" onmouseover="javascript:passon(this)" ident="1" title="HAUTES-PYRENEES" transform="matrix(1, 0, 0, 1, 0, 0)" stroke-miterlimit="10" stroke-linecap="butt" stroke-linejoin="miter" stroke-width="0.5" fill="#EFF2F9" stroke="#7f7f7f"  onclick="tailCarte='../800-HAUTES-PYRENEES';parent.cartechoisie(tailCarte);parent.document.getElementById('menucartelaX').style.display='none'" style="color:blue;cursor:pointer" id="1"><path stroke-width="1" stroke="gray" id="p1" d="M 283.5218198722045 458.89845565495216 L 282.4503411661342 451.9338435623004 L 282.98608035143775 431.04000862619813 L 285.66477728434506 426.21835159744415 L 296.91530453674125 428.89704920127804 L 301.2012196964856 418.1822621405752 L 306.55861322683705 414.43208817891383 L 303.34417710862624 410.6819108626199 L 303.34417710862624 409.07469297124607 L 303.87991629392974 406.3959953674122 L 300.6654801757188 401.5743416932908 L 293.16512889776357 406.3959953674122 L 293.7008680830671 399.967123801917 L 296.37956501597444 400.50286198083074 L 295.3080863099042 391.9310309904154 L 282.98608035143775 382.8234618210863 L 293.16512889776357 369.9657186900959 L 298.5225227635783 369.42997715654957 L 298.5225227635783 367.2870210862621 L 295.84382583067094 366.215541373802 L 305.4871345207668 355.5007543130991 L 303.34417710862624 352.28631853035154 L 268.5211169808307 346.9289233226838 L 269.05685650159745 342.64300782747614 L 265.3066808626198 341.03578993610233 L 250.84171749201278 341.03578993610233 L 246.0200628115016 332.9997004792333 L 249.2344992651757 328.71378498402566 L 242.80562669329075 315.85603849840265 L 236.3767547923323 315.85603849840265 L 228.34066198083067 308.35568722044735 L 225.6619677316294 299.2481180511183 L 220.30457252396167 299.78385958466464 L 216.55439520766774 304.605513258786 L 224.0547498402556 324.427869488818 L 220.8403107028754 327.10656709265186 L 219.76883434504794 332.9997004792333 L 224.0547498402556 333.53543865814703 L 226.73344408945687 328.71378498402566 L 229.94787987220448 346.39318514377004 L 222.4475285942492 349.0718827476039 L 220.8403107028754 354.96501613418536 L 224.59048801916933 358.7151900958467 L 189.76742923322684 403.1815595846646 L 189.23168769968052 415.5035645367413 L 184.94577220447286 416.0393060702876 L 185.48151373801917 430.50426709265184 L 205.30386996805112 439.6118379392972 L 218.69735463258786 457.2912374281151 L 247.09154185303515 449.7908861501598 L 262.0922444089457 460.5056738817892 L 270.12833520766776 452.46958308306716 L 283.5218198722045 458.89845565495216 283.5218198722045 458.89845565495216 "></path><title>800-HAUTES-PYRENEES</title></g>
<g onmouseout="javascript:passout(this)" onmouseover="javascript:passon(this)" ident="1" title="HAUTE-GARONNE" transform="matrix(1, 0, 0, 1, 0, 0)" stroke-miterlimit="10" stroke-linecap="butt" stroke-linejoin="miter" stroke-width="0.5" fill="#EFF2F9" stroke="#7f7f7f"   onclick="tailCarte='../800-HAUTE-GARONNE';parent.cartechoisie(tailCarte);parent.document.getElementById('menucartelaX').style.display='none'" style="color:blue;cursor:pointer"  id="2"><path stroke-width="1" stroke="gray" id="p2" d="M 282.4503411661342 451.9338435623004 L 282.98608035143775 431.04000862619813 L 285.66477728434506 426.21835159744415 L 296.91530453674125 428.89704920127804 L 301.2012196964856 418.1822621405752 L 306.55861322683705 414.43208817891383 L 303.34417710862624 410.6819108626199 L 303.34417710862624 409.07469297124607 L 303.87991629392974 406.3959953674122 L 300.6654801757188 401.5743416932908 L 293.16512889776357 406.3959953674122 L 293.7008680830671 399.967123801917 L 296.37956501597444 400.50286198083074 L 295.3080863099042 391.9310309904154 L 282.98608035143775 382.8234618210863 L 293.16512889776357 369.9657186900959 L 298.5225227635783 369.42997715654957 L 298.5225227635783 367.2870210862621 L 295.84382583067094 366.215541373802 L 305.4871345207668 355.5007543130991 L 303.34417710862624 352.28631853035154 L 307.63009361022364 352.28631853035154 L 323.1665343450479 336.74987444089464 L 354.2394191693291 343.1787493610224 L 361.204028913738 315.85603849840265 L 376.7404730031949 309.96290846645377 L 375.1332551118211 300.85533594249205 L 369.7758599041533 304.06977507987233 L 345.13185 273.5326284345049 L 372.99029568690094 267.63949504792345 L 379.4191706070288 277.28280575079884 L 398.17004712460067 268.71097476038346 L 389.5982194888179 264.9607974440895 L 419.599624600639 251.03157460063903 L 442.63641661341853 295.49794408945695 L 436.20754504792336 301.3910774760384 L 474.7807811501598 327.64230527156553 L 477.45947539936105 322.28491341853044 L 482.28113242811503 323.35639313099045 L 476.92373722044726 332.46396230031957 L 479.0666966453674 334.6069183706071 L 479.0666966453674 337.8213541533547 L 463.5302525559106 339.4285720447285 L 458.17286070287537 333.53543865814703 L 452.8154654952076 339.96431357827487 L 451.7439857827476 350.1433591054314 L 444.24363450479234 349.0718827476039 L 441.5649369009584 351.21483881789146 L 442.10067843450486 354.96501613418536 L 436.20754504792336 361.9296258785943 L 434.6003271565495 359.250931629393 L 430.85014984025554 363.0011055910544 L 413.1707496805112 359.250931629393 L 409.4205757188499 373.1801544728435 L 402.9917041533546 369.42997715654957 L 404.06318051118217 365.6798031948882 L 394.955611341853 354.96501613418536 L 388.5267397763579 359.7866698083068 L 398.70578865814696 366.215541373802 L 397.63430894568694 369.9657186900959 L 392.2769137380192 374.2516341853036 L 379.9549087859425 375.8588520766774 L 378.3476908945687 380.6805057507988 L 388.5267397763579 384.96642124600646 L 377.2762111821087 394.0739904153356 L 366.56142412140576 380.14476757188504 L 349.9535036741214 389.25233674121415 L 349.9535036741214 406.9317369009585 L 347.2748060702875 412.8248669329074 L 334.95280111821086 413.8963466453675 L 335.4885392971246 420.860959744409 L 327.98818801916934 421.39669792332273 L 331.73836533546324 436.39740148562305 L 311.380267571885 429.4327907348244 L 306.02287404153356 444.9692318051119 L 309.23731150159745 458.36271613418535 L 292.6293893769968 458.36271613418535 L 283.5218198722045 458.89845565495216 282.4503411661342 451.9338435623004 "></path><title>HAUTE-GARONNE</title></g>
<g onmouseout="javascript:passout(this)" onmouseover="javascript:passon(this)" ident="1" title="ARIEGE" transform="matrix(1, 0, 0, 1, 0, 0)" stroke-miterlimit="10" stroke-linecap="butt" stroke-linejoin="miter" stroke-width="0.5" fill="#EFF2F9" stroke="#7f7f7f"   onclick="tailCarte='../358-ARIEGE';parent.cartechoisie(tailCarte);parent.document.getElementById('menucartelaX').style.display='none'" style="color:blue;cursor:pointer"  id="3"><path id="p3" d="M 327.98818801916934 421.39669792332273 L 335.4885392971246 420.860959744409 L 334.95280111821086 413.8963466453675 L 347.2748060702875 412.8248669329074 L 349.9535036741214 406.9317369009585 L 349.9535036741214 389.25233674121415 L 366.56142412140576 380.14476757188504 L 377.2762111821087 394.0739904153356 L 388.5267397763579 384.96642124600646 L 378.3476908945687 380.6805057507988 L 379.9549087859425 375.8588520766774 L 392.2769137380192 374.2516341853036 L 397.63430894568694 369.9657186900959 L 398.70578865814696 366.215541373802 L 388.5267397763579 359.7866698083068 L 394.955611341853 354.96501613418536 L 404.06318051118217 365.6798031948882 L 402.9917041533546 369.42997715654957 L 409.4205757188499 373.1801544728435 L 413.1707496805112 359.250931629393 L 430.85014984025554 363.0011055910544 L 434.6003271565495 359.250931629393 L 436.20754504792336 361.9296258785943 L 441.5649369009584 374.78737236421733 L 469.423385942492 388.7165952076678 L 473.70930143769965 415.5035645367413 L 468.3519062300319 415.5035645367413 L 467.28042987220454 418.7180003194889 L 473.173563258786 420.860959744409 L 473.173563258786 429.96852891373806 L 460.31581677316296 434.25444440894574 L 457.10138099041535 438.0046197124601 L 461.9230346645368 440.6833166453675 L 470.49486565495204 453.00532226837066 L 485.49556821086264 450.8623648562301 L 495.1388755591054 459.4341951757189 L 496.7460934504793 464.25584952076684 L 494.067399201278 465.8630676469649 L 475.31651932907346 466.3988070335464 L 458.17286070287537 479.2565520766774 L 450.1367678913738 480.32803111821096 L 439.4219808306709 477.11359466453683 L 442.10067843450486 473.36341902555915 L 412.63501150159743 465.8630676469649 L 408.3490960063898 473.36341902555915 L 404.5989220447285 476.0421159584665 L 394.955611341853 455.68401920127803 L 375.6689932907349 454.0768013099042 L 369.7758599041533 455.14828001597454 L 367.63290383386584 454.6125404952077 L 364.95420623003196 446.5764496964857 L 346.20332635782745 441.7547953514378 L 331.73836533546324 436.39740148562305 327.98818801916934 421.39669792332273 "></path><title>ARIEGE</title></g>
<g onmouseout="javascript:passout(this)" onmouseover="javascript:passon(this)" ident="1" title="GERS" transform="matrix(1, 0, 0, 1, 0, 0)" stroke-miterlimit="10" stroke-linecap="butt" stroke-linejoin="miter" stroke-width="0.5" fill="#EFF2F9" stroke="#7f7f7f"   onclick="tailCarte='../800-GERS';parent.cartechoisie(tailCarte);parent.document.getElementById('menucartelaX').style.display='none'" style="color:blue;cursor:pointer"  id="4"><path id="p4" d="M 220.30457252396167 299.78385958466464 L 225.6619677316294 299.2481180511183 L 228.34066198083067 308.35568722044735 L 236.3767547923323 315.85603849840265 L 242.80562669329075 315.85603849840265 L 249.2344992651757 328.71378498402566 L 246.0200628115016 332.9997004792333 L 250.84171749201278 341.03578993610233 L 265.3066808626198 341.03578993610233 L 269.05685650159745 342.64300782747614 L 268.5211169808307 346.9289233226838 L 303.34417710862624 352.28631853035154 L 307.63009361022364 352.28631853035154 L 323.1665343450479 336.74987444089464 L 354.2394191693291 343.1787493610224 L 361.204028913738 315.85603849840265 L 376.7404730031949 309.96290846645377 L 375.1332551118211 300.85533594249205 L 369.7758599041533 304.06977507987233 L 345.13185 273.5326284345049 L 339.7744547923323 272.46114872204475 L 342.45315239616616 267.10375686900966 L 336.56001900958466 251.03157460063903 L 323.1665343450479 247.81713881789145 L 336.56001900958466 230.13773865814704 L 325.30949041533546 229.60200047923328 L 321.02357827476044 225.8518231629394 L 314.05896517571887 231.2092183706071 L 303.87991629392974 223.17312555910547 L 287.2719955111821 226.92330287539946 L 265.8424200479233 237.63808993610232 L 254.5918931309904 232.28069472843455 L 237.44823115015976 240.85252571884993 L 238.51971086261983 249.96009488817896 L 233.16231900958468 253.71027220447291 L 228.34066198083067 246.74565910543137 L 229.94787987220448 243.53122332268376 L 231.55510111821087 241.92400543131 L 226.19770591054314 236.03087204472848 L 201.5536926517572 251.56731277955276 L 204.76813178913739 256.92470798722053 L 194.58908290734826 298.1766416932908 L 199.41073658146965 303.534033546326 L 216.55439520766774 304.605513258786 220.30457252396167 299.78385958466464 "></path><title>GERS</title></g>
<g onmouseout="javascript:passout(this)" onmouseover="javascript:passon(this)" ident="1" title="TARN-ET-GARONNE" transform="matrix(1, 0, 0, 1, 0, 0)" stroke-miterlimit="10" stroke-linecap="butt" stroke-linejoin="miter" stroke-width="0.5" fill="#EFF2F9" stroke="#7f7f7f"   onclick="tailCarte='../358-TARN-ET-GARONNE';parent.cartechoisie(tailCarte);parent.document.getElementById('menucartelaX').style.display='none'" style="color:blue;cursor:pointer"  id="5"><path id="p5" d="M 325.30949041533546 229.60200047923328 L 322.0950546325879 223.70886709265181 L 330.1311474440895 210.8511206070288 L 339.7744547923323 214.60129792332276 L 340.84593450479235 208.70816453674126 L 336.56001900958466 207.10094664536751 L 337.0957571884984 203.8865075079873 L 342.98889057507984 204.42224904153363 L 346.20332635782745 189.95728466453681 L 339.7744547923323 182.4569333865815 L 342.45315239616616 172.27788450479244 L 345.6675881789138 171.74214632587865 L 348.88202396166133 176.56380000000007 L 363.8827265175719 172.27788450479244 L 369.7758599041533 170.67066661341858 L 370.84733961661345 176.56380000000007 L 364.95420623003196 178.7067560702876 L 384.77656246006393 192.63598226837064 L 390.66969584664537 188.350066773163 L 390.66969584664537 199.60059536741215 L 401.9202244408946 202.27928961661343 L 411.5635317891374 190.49302284345055 L 419.599624600639 192.10024073482435 L 419.599624600639 198.52911565495214 L 424.4212782747604 196.92189776357833 L 424.4212782747604 187.278587060703 L 428.70719376996806 187.278587060703 L 431.385891373802 192.63598226837064 L 445.31511421725247 181.38545367412144 L 462.9945143769968 181.38545367412144 L 459.7800785942492 189.42154648562308 L 474.24503961661344 189.95728466453681 L 464.06599073482425 202.27928961661343 L 476.3879990415335 211.3868587859426 L 451.2082476038339 221.030169488818 L 446.3865939297125 217.27999217252403 L 434.6003271565495 218.3514718849841 L 438.8862426517572 227.99478258785953 L 429.7786701277955 242.4597436102237 L 422.2783188498403 244.06696150159752 L 419.06388306709266 244.60270303514383 L 422.2783188498403 247.81713881789145 L 423.34979856230035 251.56731277955276 L 419.599624600639 251.03157460063903 L 389.5982194888179 264.9607974440895 L 398.17004712460067 268.71097476038346 L 379.4191706070288 277.28280575079884 L 372.99029568690094 267.63949504792345 L 345.13185 273.5326284345049 L 339.7744547923323 272.46114872204475 L 342.45315239616616 267.10375686900966 L 336.56001900958466 251.03157460063903 L 323.1665343450479 247.81713881789145 L 336.56001900958466 230.13773865814704 325.30949041533546 229.60200047923328 "></path><title>TARN-ET-GARONNE</title></g>
<g onmouseout="javascript:passout(this)" onmouseover="javascript:passon(this)" ident="1" title="TARN" transform="matrix(1, 0, 0, 1, 0, 0)" stroke-miterlimit="10" stroke-linecap="butt" stroke-linejoin="miter" stroke-width="0.5" fill="#EFF2F9" stroke="#7f7f7f"   onclick="tailCarte='../358-TARN';parent.cartechoisie(tailCarte);parent.document.getElementById('menucartelaX').style.display='none'" style="color:blue;cursor:pointer"  id="6"><path id="p6" d="M 476.92373722044726 332.46396230031957 L 482.28113242811503 323.35639313099045 L 477.45947539936105 322.28491341853044 L 474.7807811501598 327.64230527156553 L 436.20754504792336 301.3910774760384 L 442.63641661341853 295.49794408945695 L 419.599624600639 251.03157460063903 L 423.34979856230035 251.56731277955276 L 422.2783188498403 247.81713881789145 L 419.06388306709266 244.60270303514383 L 429.7786701277955 242.4597436102237 L 438.8862426517572 227.99478258785953 L 434.6003271565495 218.3514718849841 L 446.3865939297125 217.27999217252403 L 451.2082476038339 221.030169488818 L 476.3879990415335 211.3868587859426 L 493.5316576677317 204.42224904153363 L 531.5674346645367 229.60486198083072 L 540.6661308306709 241.92400543131 L 538.5337653354633 246.73506517571892 L 547.1055963258785 258.5365083067093 L 544.4314811501598 264.96537987220455 L 560.5142573482427 283.71167731629396 L 572.8256683706071 283.707094888179 L 577.1115838658147 279.43177332268374 L 588.8932682108626 282.64019760383394 L 590.5004861022364 291.2120285942493 L 587.2860503194888 297.10516198083076 L 567.4636940894569 303.534033546326 L 565.3207346645368 298.7123798722045 L 555.1416891373802 296.56942380191697 L 551.92725 312.10586453674125 L 558.3561249201277 319.60621581469655 L 556.7489070287539 328.71378498402566 L 550.3200321086262 336.74987444089464 L 533.1763734824281 334.6069183706071 L 522.997324600639 337.28561597444093 L 506.92514233226836 330.85674440894576 L 501.0320089456869 343.71448753993616 L 495.67461709265183 337.8213541533547 L 486.0313063897763 341.5715314696487 L 483.3526087859425 335.14265654952084 L 479.6024348242811 335.6783980830672 476.92373722044726 332.46396230031957 "></path><title>TARN</title></g>
<g onmouseout="javascript:passout(this)" onmouseover="javascript:passon(this)" ident="1" title="AVEYRON" transform="matrix(1, 0, 0, 1, 0, 0)" stroke-miterlimit="10" stroke-linecap="butt" stroke-linejoin="miter" stroke-width="0.5" fill="#EFF2F9" stroke="#7f7f7f"   onclick="tailCarte='../358-AVEYRON';parent.cartechoisie(tailCarte);parent.document.getElementById('menucartelaX').style.display='none'" style="color:blue;cursor:pointer"  id="7"><path id="p7" d="M 588.8932682108626 282.64019760383394 L 577.1070014376996 279.4257618210863 L 572.821085942492 283.71167731629396 L 560.4990809904153 283.71167731629396 L 544.4268987220447 264.9607974440895 L 547.1055963258785 258.53192587859434 L 538.5337653354633 246.74565910543137 L 540.6767247603834 241.92400543131 L 531.5691555910543 229.60200047923328 L 493.5316576677317 204.42224904153363 L 476.3879990415335 211.3868587859426 L 464.06599073482425 202.27928961661343 L 474.24503961661344 189.95728466453681 L 459.7800785942492 189.42154648562308 L 462.9945143769968 181.38545367412144 L 465.67321198083073 178.17101789137388 L 457.63711916932914 156.7414437699681 L 486.56704792332266 139.59778178913746 L 499.4247910543131 140.13352332268374 L 503.17496837060696 133.1689169329074 L 502.63922683706073 127.81150159744419 L 516.0327115015974 124.59709265175724 L 518.1756709265176 129.95447444089461 L 534.2478531948882 128.88300479233231 L 554.0702094249202 90.8454968051119 L 566.3922143769969 78.52349520766779 L 571.7496095846645 83.88087699680517 L 569.6066501597444 92.45270127795533 L 581.3929169329074 89.77402715654961 L 592.6434455271566 123.52558945686906 L 608.1798862619809 141.74074121405755 L 607.6441480830671 154.06274616613427 L 616.7517172523962 165.31327476038348 L 614.0730095846645 177.0995381789138 L 617.8231869009585 183.5284130990416 L 613.0015399361022 192.63598226837064 L 616.215982428115 192.63598226837064 L 625.8592763578275 199.60059536741215 L 622.6448338658147 206.56520511182111 L 643.5386932907347 203.8865075079873 L 644.6101629392971 210.31538242811507 L 639.788515974441 212.9940766773164 L 631.2166916932907 222.101649201278 L 655.3249600638977 234.42365415335468 L 638.1812779552715 255.85322827476045 L 632.288161341853 255.85322827476045 L 626.9307795527156 260.6748819488819 L 629.6094536741215 267.63949504792345 L 622.6448338658147 270.85393083067106 L 607.6441480830671 266.0322771565495 L 607.1084065495207 289.60481070287545 L 602.8224944089457 290.67629041533553 L 598.536578913738 287.9975928115017 L 590.5004861022364 291.2120285942493 588.8932682108626 282.64019760383394 "></path><title>AVEYRON</title></g>
<g onmouseout="javascript:passout(this)" onmouseover="javascript:passon(this)" ident="1" title="LOT" transform="matrix(1, 0, 0, 1, 0, 0)" stroke-miterlimit="10" stroke-linecap="butt" stroke-linejoin="miter" stroke-width="0.5" fill="#EFF2F9" stroke="#7f7f7f"   onclick="tailCarte='../358-LOT';parent.cartechoisie(tailCarte);parent.document.getElementById('menucartelaX').style.display='none'" style="color:blue;cursor:pointer"  id="8"><path id="p8" d="M 369.7758599041533 170.67066661341858 L 370.84733961661345 176.56380000000007 L 364.95420623003196 178.7067560702876 L 384.77656246006393 192.63598226837064 L 390.66969584664537 188.350066773163 L 390.66969584664537 199.60059536741215 L 401.9202244408946 202.27928961661343 L 411.5635317891374 190.49302284345055 L 419.599624600639 192.10024073482435 L 419.599624600639 198.52911565495214 L 424.4212782747604 196.92189776357833 L 424.4212782747604 187.278587060703 L 428.70719376996806 187.278587060703 L 431.385891373802 192.63598226837064 L 445.31511421725247 181.38545367412144 L 462.9945143769968 181.38545367412144 L 465.67321198083073 178.17101789137388 L 457.63711916932914 156.7414437699681 L 486.56704792332266 139.59778178913746 L 499.4247910543131 140.13352332268374 L 503.17496837060696 133.1689169329074 L 495.67461709265183 127.81150159744419 L 496.2103552715655 101.02455910543142 L 484.9598266773163 88.70255750798731 L 489.24574217252393 83.34514217252405 L 481.7453908945687 72.09461022364223 L 469.9591241214058 75.84478753993619 L 468.3519062300319 72.63034504792336 L 463.5302525559106 72.63034504792336 L 449.60102971246 80.66643450479245 L 430.31441166134186 59.77260862619818 L 419.06388306709266 60.3083434504793 L 405.1346602236422 67.27296325878604 L 407.813357827476 87.09531948881795 L 392.8126552715655 104.23896805111832 L 393.3483934504792 110.66785303514382 L 354.77515734824283 145.49091517571895 L 363.8827265175719 172.27788450479244 369.7758599041533 170.67066661341858 "></path><title>LOT</title></g>



</g>
</g>








<script><![CDATA[


]]></script>


</svg>