<?xml version="1.0" encoding="UTF-8" standalone="no"?>

<!DOCTYPE svg PUBLIC "-//W3C//DTD SVG 1.1//EN"
  "http://www.w3.org/Graphics/SVG/1.1/DTD/svg11.dtd"
[
    <!ENTITY ns_flows "http://ns.adobe.com/Flows/1.0/">
	<!ENTITY ns_svg "http://www.w3.org/2000/svg">
	<!ENTITY ns_xlink "http://www.w3.org/1999/xlink">
]>

<svg id="gene"  
xmlns="http://www.w3.org/2000/svg"
xmlns:xlink="http://www.w3.org/1999/xlink"
xmlns:xul="http://www.mozilla.org/keymaster/gatekeeper/there.is.only.xul"

   xmlns:dc="http://purl.org/dc/elements/1.1/"
   xmlns:cc="http://web.resource.org/cc/"
   xmlns:rdf="http://www.w3.org/1999/02/22-rdf-syntax-ns#"
   xmlns:svg="http://www.w3.org/2000/svg"
 

   xmlns:sodipodi="http://inkscape.sourceforge.net/DTD/sodipodi-0.dtd"
   xmlns:inkscape="http://www.inkscape.org/namespaces/inkscape"


>


<script id="scrpt"  language="javascript" ><![CDATA[
var brsrici="ei"


function affichN(){
//brsrici=document.getElementById("totalsvg").getAttribute("name")
if(brsrici=="ei"){window.SVGaffichN()}else{
top.frames.Num0.frames.couches.zoom.SVGaffichN()
}
}
var strokewidthpas
var strokepas
var opacpas
function passon(a){
strokepas=a.getAttribute('stroke')
a.setAttribute('stroke','navy');
opacpas=a.getAttribute('fill-opacity')
a.setAttribute('fill-opacity','0.5')  
}
function passout(a){
a.setAttribute('fill-opacity',opacpas)
a.setAttribute('stroke',strokepas);
}
function svggeneral(){

brsrici=document.getElementById("totalsvg").getAttribute("name")
if(brsrici=="ei"){window.SVGgeneral()}else{
top.frames.Num0.frames[2].indic1()
}}
function svgdown(a){
//brsrici=document.getElementById("totalsvg").getAttribute("name")
if(brsrici=="ei"){window.SVGdown()}else{
top.frames.Num0.frames.couches.zoom.selxsvg();top.frames.Num0.frames.couches.zoom.rien();
}}
function svgclick1(){
//brsrici=document.getElementById("totalsvg").getAttribute("name")
if(brsrici=="ei"){window.SVGclick1()}else{
top.frames.Num0.frames.couches.zoom.valNoDatx(NoDatx);top.frames.Num0.frames.couches.zoom.transDATA();top.frames.Num0.frames.couches.zoom.carte()
}
}
function svgclick2(){
//brsrici=document.getElementById("totalsvg").getAttribute("name")
if(brsrici=="ei"){window.SVGclick2()}else{
top.frames.Num0.frames.couches.zoom.valNoDatx2(NoDatx);top.frames.Num0.frames.couches.zoom.transDATA();top.frames.Num0.frames.couches.zoom.carte()
}}
function svgout(){
//brsrici=document.getElementById("totalsvg").getAttribute("name")
if(brsrici=="ei"){window.SVGout()}else{
//top.frames.Num0.frames.couches.zoom0()
//<image x="10" Y="10" width="300" height="300" xlink:href="fonds france contour.jpg" ></image>
}}
]]></script>

  <metadata
     id="metadata7">
    <rdf:RDF>
      <cc:Work
         rdf:about="">
        <dc:format>image/svg+xml</dc:format>
        <dc:type
           rdf:resource="http://purl.org/dc/dcmitype/StillImage" />
      </cc:Work>
    </rdf:RDF>
  </metadata>

<defs>
<radialGradient id="grad1" >
 <stop class="begin" offset="0" style="stop-color:#5555AA"/>
 <stop class="end" offset="1" style="stop-color:white"/>
</radialGradient>
</defs>

<g space="preserve" opacity="1" transform="matrix(0.3, 0, 0, 0.3, 0, 0)"  name="ns" id="totalsvg">






	 
	 

	
<rect y="-150" x="-150" height="800" width="800" style="fill: url(#grad1) ; fill-opacity: 1; fill-rule: evenodd; stroke: rgb(0, 0, 0); stroke-width: 0.5; stroke-linecap: butt; stroke-linejoin: miter; stroke-opacity: 1;"  transform="matrix(1, 0, 0, 1, 0, 0)" fill="#EBEFF8" id="rectmove"></rect>


<g space="preserve" opacity="1" transform="matrix(1, 0, 0, 1, -160, -15)"   id="calageAires">




<image opacity="0" href="transparent.png" height="0" width="0" y="-60" x="0" transform="matrix(1, 0, 0, 1, 0, 0)" id="imagesfond1"/>

<image opacity="0" href="transparent.png" height="0" width="0" y="-60" x="0" transform="matrix(1, 0, 0, 1, 0, 0)" id="imagesfond2"/>


<g onmouseout="javascript:passout(this)" onmouseover="javascript:passon(this)" ident="1" title="PAS-de-CALAIS" transform="matrix(1, 0, 0, 1, 0, 0)" stroke-miterlimit="10" stroke-linecap="butt" stroke-linejoin="miter" stroke-width="0.5" fill="#EFF2F9" stroke="#7f7f7f"  onclick="tailCarte='../3100-PAS-de-CALAIS';parent.cartechoisie(tailCarte);parent.document.getElementById('menucartelaX').style.display='none'" style="color:blue;cursor:pointer" id="1"><path stroke-width="1" stroke="gray" id="p1" d="M 101.06966937823834 142.7428212435234 L 171.19712487046633 101.5228678756477 L 223.22393937823833 89.77920000000012 L 255.84524145077722 164.7914829015545 L 301.56526632124354 182.0389569948187 L 284.1170518134715 192.22684041450782 L 295.54286891191714 207.60067927461148 L 289.9219740932642 213.00410984455965 L 289.9219740932642 213.00410984455965 L 299.1395813471503 216.6175461139897 L 323.22917098445595 234.28324663212445 L 384.25611761658035 242.8484284974094 L 389.6093549222798 221.9707834196892 L 404.0631 223.0414352331607 L 413.1636186528497 233.21259481865292 L 400.8511554404145 239.63648393782393 L 392.82129948186525 249.2723176165804 L 396.0332440414508 272.8265813471503 L 415.8402373056995 269.61463678756485 L 415.8402373056995 278.7151445595856 L 422.2641264248705 282.4624150259068 L 435.1119046632124 278.7151445595856 L 450.63630155440416 289.4216191709845 L 447.9596829015544 305.481341968912 L 460.2721352331606 299.5927787564767 L 464.5547316062177 310.29926424870473 L 441.53579378238345 322.61171658031094 L 465.62537253886006 353.66051036269437 L 457.59551658031086 365.4376476683939 L 446.8890310880829 364.3669958549224 L 450.1009756476684 372.9321777202073 L 457.59551658031086 365.4209129533679 L 480.07912849740933 373.4675036269431 L 491.05327150259063 385.04388963730577 L 483.3747139896373 402.91033056994826 L 469.45628393782386 410.18739310880835 L 459.88736735751297 408.3137589637306 L 445.9689481865285 422.85115367875653 L 451.5898430051814 428.254580984456 L 469.45628393782386 410.18739310880835 L 469.45628393782386 410.18739310880835 L 478.38950984455954 417.86594735751305 L 464.0194056994819 455.3720920725389 L 413.6989336787565 463.9372772020726 L 408.8810222797928 446.8069058549224 L 385.3267585492228 457.5133880829016 L 390.1446808290155 433.42380388601043 L 373.54963212435234 425.39394248704673 L 362.84314663212433 439.84769300518144 L 324.2998119170984 420.04070191709854 L 309.3107409326425 428.6058870466322 L 305.0281445595855 440.9183415544042 L 293.7863440414508 429.676535595855 L 303.4221777202073 407.7282474093265 L 321.087867357513 400.7690378238343 L 298.6042554404145 388.45658549222804 L 220.44694507772022 397.021767357513 L 216.69967461139896 377.7501000000001 L 147.10754067357516 333.85352797927465 L 118.73536336787565 346.70130621761666 L 93.57513170984457 318.32912020725394 L 100.53434455958549 268.0086590673576 L 112.31147424870467 278.7151445595856 L 100.53434455958549 257.83749948186534 L 97.85772481865285 198.951856476684 L 108.56420595854922 180.21550414507777 L 101.06966937823834 142.7428212435234 101.06966937823834 142.7428212435234 "></path><title>PAS-de-CALAIS</title></g>
<g onmouseout="javascript:passout(this)" onmouseover="javascript:passon(this)" ident="1" title="NORD" transform="matrix(1, 0, 0, 1, 0, 0)" stroke-miterlimit="10" stroke-linecap="butt" stroke-linejoin="miter" stroke-width="0.5" fill="#EFF2F9" stroke="#7f7f7f"   onclick="tailCarte='../800-NORD';parent.cartechoisie(tailCarte);parent.document.getElementById('menucartelaX').style.display='none'" style="color:blue;cursor:pointer"  id="2"><path stroke-width="1" stroke="gray" id="p2" d="M 255.8525751295337 164.79233160621766 L 301.56446113989637 182.03822797927467 L 284.1108497409326 192.21952849740939 L 295.5388756476684 207.59533678756486 L 289.9287202072539 212.99766839378242 L 299.1395813471503 216.6175461139897 L 323.2346005181347 234.27070103626951 L 384.2651378238342 242.8345663212436 L 389.6093549222798 221.9707834196892 L 404.0731103626943 223.02937927461147 L 413.174978238342 233.21227927461143 L 400.86483264248704 239.62798601036275 L 392.8254450777202 249.2634606217617 L 396.03653005181343 272.8176264248705 L 415.85575336787565 269.61190569948195 L 415.84708134715027 278.6988668393783 L 422.2785544041451 282.45394974093267 L 435.1161917098446 278.70412227979284 L 450.6398813471503 289.41646165803115 L 447.9738823834197 305.47546632124363 L 460.2806005181347 299.5793191709845 L 464.5547316062177 310.29926424870473 L 441.54680518134717 322.5988989637307 L 465.6380051813471 353.6463761658032 L 457.6031331606218 365.4283880829016 L 446.8989544041451 364.36300259067366 L 450.1072430051814 372.92086165803113 L 457.6058098445596 365.4362113989638 L 480.0911518134715 373.4605834196892 L 491.06127979274606 385.0407668393783 L 483.3734300518135 402.9100259067358 L 469.45206217616584 410.18244559585503 L 459.89412435233163 408.31235751295344 L 445.97264766839373 422.84035880829026 L 451.5828031088083 428.2594196891192 L 469.45206217616584 410.18244559585503 L 478.3866373056995 417.87029533678765 L 464.0194056994819 455.3720920725389 L 487.9445751295337 467.53007253886017 L 565.8626269430052 463.5822901554405 L 620.0936580310881 444.0507668393783 L 662.6888393782383 465.4522694300519 L 687.6225854922279 452.985341968912 L 685.5447823834197 471.0624248704664 L 710.8941761658032 479.99700000000007 L 730.2178756476685 469.6079844559586 L 723.1532797927462 460.88112435233165 L 730.2178756476685 449.4530984455959 L 746.4248704663212 440.93406217616587 L 737.6980103626943 416.4158549222799 L 720.4521139896374 416.00020725388606 L 742.0614404145078 370.9116839378239 L 691.5704766839378 334.96545077720214 L 660.818860103627 344.93892746114 L 634.2228497409326 335.5888134715027 L 615.9380518134715 352.6268860103628 L 604.0944870466321 329.5631191709846 L 606.1722901554404 303.3826476683938 L 591.2120207253886 281.98114507772027 L 565.6549119170984 285.72121243523327 L 568.9794404145077 271.7998445595856 L 559.0058549222797 268.68313989637306 L 535.5265492227979 284.89013471502597 L 511.6317046632125 267.22859067357524 L 501.8659430051813 219.0233626943006 L 507.0604507772021 214.65993264248715 L 502.48930569948186 201.36192746114 L 493.76244559585496 201.36192746114 L 479.42553886010364 171.85692746113995 L 427.8956735751296 190.76497927461145 L 419.5844611398964 209.67313989637313 L 392.9883419689119 196.58295854922284 L 374.4958290155441 163.54560621761664 L 354.964414507772 164.16896891191715 L 344.15975129533683 124.06712953367884 L 354.54876683937823 114.50919170984463 L 333.35508808290155 59.03154404145084 L 223.23087046632122 89.78316062176174 255.8525751295337 164.79233160621766 "></path><title>NORD</title></g>



</g>
</g>








<script><![CDATA[


]]></script>


</svg>