<?xml version="1.0" encoding="UTF-8" standalone="no"?>

<!DOCTYPE svg PUBLIC "-//W3C//DTD SVG 1.1//EN"
  "http://www.w3.org/Graphics/SVG/1.1/DTD/svg11.dtd"
[
    <!ENTITY ns_flows "http://ns.adobe.com/Flows/1.0/">
	<!ENTITY ns_svg "http://www.w3.org/2000/svg">
	<!ENTITY ns_xlink "http://www.w3.org/1999/xlink">
]>

<svg id="gene"  
xmlns="http://www.w3.org/2000/svg"
xmlns:xlink="http://www.w3.org/1999/xlink"
xmlns:xul="http://www.mozilla.org/keymaster/gatekeeper/there.is.only.xul"

   xmlns:dc="http://purl.org/dc/elements/1.1/"
   xmlns:cc="http://web.resource.org/cc/"
   xmlns:rdf="http://www.w3.org/1999/02/22-rdf-syntax-ns#"
   xmlns:svg="http://www.w3.org/2000/svg"
 

   xmlns:sodipodi="http://inkscape.sourceforge.net/DTD/sodipodi-0.dtd"
   xmlns:inkscape="http://www.inkscape.org/namespaces/inkscape"


>


<script id="scrpt"  language="javascript" ><![CDATA[
var brsrici="ei"


function affichN(){
//brsrici=document.getElementById("totalsvg").getAttribute("name")
if(brsrici=="ei"){window.SVGaffichN()}else{
top.frames.Num0.frames.couches.zoom.SVGaffichN()
}
}
var strokewidthpas
var strokepas
var opacpas
function passon(a){
strokepas=a.getAttribute('stroke')
a.setAttribute('stroke','navy');
opacpas=a.getAttribute('fill-opacity')
a.setAttribute('fill-opacity','0.5')  
}
function passout(a){
a.setAttribute('fill-opacity',opacpas)
a.setAttribute('stroke',strokepas);
}
function svggeneral(){

brsrici=document.getElementById("totalsvg").getAttribute("name")
if(brsrici=="ei"){window.SVGgeneral()}else{
top.frames.Num0.frames[2].indic1()
}}
function svgdown(a){
//brsrici=document.getElementById("totalsvg").getAttribute("name")
if(brsrici=="ei"){window.SVGdown()}else{
top.frames.Num0.frames.couches.zoom.selxsvg();top.frames.Num0.frames.couches.zoom.rien();
}}
function svgclick1(){
//brsrici=document.getElementById("totalsvg").getAttribute("name")
if(brsrici=="ei"){window.SVGclick1()}else{
top.frames.Num0.frames.couches.zoom.valNoDatx(NoDatx);top.frames.Num0.frames.couches.zoom.transDATA();top.frames.Num0.frames.couches.zoom.carte()
}
}
function svgclick2(){
//brsrici=document.getElementById("totalsvg").getAttribute("name")
if(brsrici=="ei"){window.SVGclick2()}else{
top.frames.Num0.frames.couches.zoom.valNoDatx2(NoDatx);top.frames.Num0.frames.couches.zoom.transDATA();top.frames.Num0.frames.couches.zoom.carte()
}}
function svgout(){
//brsrici=document.getElementById("totalsvg").getAttribute("name")
if(brsrici=="ei"){window.SVGout()}else{
//top.frames.Num0.frames.couches.zoom0()
//<image x="10" Y="10" width="300" height="300" xlink:href="fonds france contour.jpg" ></image>
}}
]]></script>

  <metadata
     id="metadata7">
    <rdf:RDF>
      <cc:Work
         rdf:about="">
        <dc:format>image/svg+xml</dc:format>
        <dc:type
           rdf:resource="http://purl.org/dc/dcmitype/StillImage" />
      </cc:Work>
    </rdf:RDF>
  </metadata>

<defs>
<radialGradient id="grad1" >
 <stop class="begin" offset="0" style="stop-color:#5555AA"/>
 <stop class="end" offset="1" style="stop-color:white"/>
</radialGradient>
</defs>

<g space="preserve" opacity="1" transform="matrix(0.3, 0, 0, 0.3, 0, 0)"  name="ns" id="totalsvg">






	 
	 

	
<rect y="-150" x="-150" height="800" width="800" style="fill: url(#grad1) ; fill-opacity: 1; fill-rule: evenodd; stroke: rgb(0, 0, 0); stroke-width: 0.5; stroke-linecap: butt; stroke-linejoin: miter; stroke-opacity: 1;"  transform="matrix(1, 0, 0, 1, 0, 0)" fill="#EBEFF8" id="rectmove"></rect>


<g space="preserve" opacity="1" transform="matrix(1, 0, 0, 1, -160, -15)"   id="calageAires">




<image opacity="0" href="transparent.png" height="0" width="0" y="-60" x="0" transform="matrix(1, 0, 0, 1, 0, 0)" id="imagesfond1"/>

<image opacity="0" href="transparent.png" height="0" width="0" y="-60" x="0" transform="matrix(1, 0, 0, 1, 0, 0)" id="imagesfond2"/>


<g onmouseout="javascript:passout(this)" onmouseover="javascript:passon(this)" ident="1" title="YONNE" transform="matrix(1, 0, 0, 1, 0, 0)" stroke-miterlimit="10" stroke-linecap="butt" stroke-linejoin="miter" stroke-width="0.5" fill="#EFF2F9" stroke="#7f7f7f"  onclick="tailCarte='../800-YONNE';parent.cartechoisie(tailCarte);parent.document.getElementById('menucartelaX').style.display='none'" style="color:blue;cursor:pointer" id="1"><path stroke-width="1" stroke="gray" id="p1" d="M 272.83433020134225 65.10398389261758 L 329.8852322147651 59.7218232662193 L 345.4934970917226 82.86511364653245 L 340.64955346756153 95.24408277404928 L 342.2642013422819 97.39694765100683 L 347.108144966443 94.70586890380315 L 351.41387472035797 103.85554228187925 L 356.257818344519 102.77910827740504 L 356.7960353467562 99.0115955257271 L 362.7164129753915 98.47338165548109 L 362.7164129753915 105.47019015659964 L 377.78646116331095 129.1516944071589 L 375.63359691275167 131.8427762863535 L 376.7100290380313 136.68671991051463 L 379.4011093512304 133.4574241610739 L 383.70683785234905 134.53385503355713 L 382.0921896644295 144.7599592841164 L 424.07304192393735 139.91601565995535 L 432.1462841163311 143.14531140939607 L 429.4552022371365 158.75357941834454 L 436.9902277404922 159.83001029082777 L 436.9902277404922 177.05292304250565 L 432.6844979865772 180.28221879194638 L 428.9169861744966 179.20578791946315 L 425.68768979865774 183.51151767337814 L 429.4552022371365 189.43189217002242 L 411.6940724832215 224.95415167785242 L 411.6940724832215 237.8713378076063 L 405.23548004474276 243.79171543624165 L 412.77050460850114 257.7853324384788 L 401.4679675436241 258.86176331096203 L 398.7768872930649 264.24392393736025 L 395.0093748545861 261.55284519015663 L 390.70364635346755 249.17387606263992 L 381.0157575391499 251.8649548098435 L 381.0157575391499 244.8681463087249 L 377.24824510067117 240.56241968680095 L 372.9425165995526 248.63565906040273 L 342.802418344519 233.56560805369134 L 341.1877704697987 228.18345055928418 L 333.652744966443 222.801289932886 L 333.652744966443 217.95734317673384 L 330.42344921700226 216.88091230425067 L 329.8852322147651 228.72166442953028 L 319.12091096196866 226.03058568232666 L 311.585885458613 232.4891771812081 L 284.13686845637585 221.18663892617457 L 282.7072304250559 214.54303445190163 L 279.2929248322148 212.03696868008956 L 269.6050344519016 216.88091230425067 L 263.14644295302014 214.18983042505602 L 252.38212170022373 187.81724429530203 L 248.07639194630872 188.35546129753925 L 249.152825950783 178.66757091722604 L 256.68784832214766 176.5147091722596 L 259.9171440715884 178.12935704697998 L 270.6814653243848 170.05611454138705 L 269.6050344519016 151.75677091722605 L 284.13686845637585 138.83958478747212 L 270.1432514541387 108.16126890380315 L 256.68784832214766 100.08802953020142 L 272.83433020134225 85.5561955257271 L 267.9903865771812 75.8683051454139 L 272.83433020134225 65.10398389261758 272.83433020134225 65.10398389261758 "></path><title>YONNE</title></g>
<g onmouseout="javascript:passout(this)" onmouseover="javascript:passon(this)" ident="1" title="COTE-D-OR" transform="matrix(1, 0, 0, 1, 0, 0)" stroke-miterlimit="10" stroke-linecap="butt" stroke-linejoin="miter" stroke-width="0.5" fill="#EFF2F9" stroke="#7f7f7f"   onclick="tailCarte='../800-COTE-D-OR';parent.cartechoisie(tailCarte);parent.document.getElementById('menucartelaX').style.display='none'" style="color:blue;cursor:pointer"  id="2"><path stroke-width="1" stroke="gray" id="p2" d="M 434.2991458612975 137.22493691275173 L 465.51567874720354 135.07207203579424 L 461.7481659955257 129.1516944071589 L 471.4360532438479 123.23131991051463 L 495.1175606263982 127.53704653243858 L 496.1939914988814 131.3045592841164 L 494.04112975391496 136.14850290827746 L 503.19080313199106 137.22493691275173 L 504.2672340044743 139.91601565995535 L 500.49972125279646 146.37461029082777 L 503.72901700223713 148.5274720357943 L 504.80545100671145 145.2981762863535 L 509.11117762863535 143.68352841163318 L 522.0283637583892 163.59752304250566 L 512.3404733780761 170.05611454138705 L 514.4933382550336 173.82362729306493 L 517.1844201342282 172.7471964205817 L 518.7990680089486 180.82043579418354 L 517.1844201342282 185.6643794183446 L 521.4901467561522 188.35546129753925 L 526.8723073825504 182.97330067114103 L 532.7926850111857 185.12616554809853 L 529.0251722595078 190.5083261744967 L 541.4041413870247 194.27583892617457 L 543.5570062639821 187.81724429530203 L 546.2480850111857 187.81724429530203 L 545.7098711409396 193.1994049217003 L 555.9359753914989 198.58156554809852 L 556.474192393736 206.65480805369134 L 564.5474317673378 200.73443042505596 L 574.235322147651 201.27264742729312 L 578.0028317673379 194.81405279642064 L 585.5378572706935 199.11978255033563 L 587.690722147651 214.18983042505602 L 580.6939136465325 222.801289932886 L 575.8499700223714 221.72485592841167 L 573.6971051454138 229.25988143176738 L 578.0028317673379 228.72166442953028 L 580.1556966442953 230.87452930648774 L 581.7703445190157 241.63885055928424 L 586.0760742729307 240.56241968680095 L 588.7671530201342 241.63885055928424 L 588.2289391498882 254.5560366890381 L 593.0728827740493 257.7853324384788 L 576.9264008948546 300.8426174496645 L 569.3913753914989 301.3808313199106 L 563.4710008948546 309.9922876957495 L 569.3913753914989 314.2980174496645 L 560.77991901566 320.21839413870254 L 554.3213275167785 318.06552988814326 L 538.713062639821 326.1387708277406 L 533.8691158836689 320.75661020134237 L 526.8723073825504 324.5241226398211 L 513.4169073825503 324.5241226398211 L 512.8786903803132 328.2916350782998 L 485.429673378076 337.4413078299777 L 486.50610425055925 331.5209314541388 L 469.2831914988814 320.75661020134237 L 469.82140536912755 315.37444957494415 L 464.43924474272933 318.06552988814326 L 450.5129060402685 309.7399995525728 L 450.4119901565996 305.8883928411634 L 446.980862639821 303.6009744966443 L 444.2729619686801 307.75532885906046 L 442.30511006711413 305.4679105145415 L 442.70877360178974 300.8930738255034 L 431.06985011185685 297.98334451901576 L 430.54845503355705 295.4772756152126 L 426.7977604474273 291.84431633109625 L 424.9644620134228 292.41617091722605 L 426.2259058612975 284.15791856823273 L 420.8437455480984 273.3935973154363 L 412.77050460850114 276.6228930648771 L 412.77050460850114 257.7853324384788 L 405.23548004474276 243.79171543624165 L 411.6940724832215 237.8713378076063 L 411.6940724832215 224.95415167785242 L 429.4552022371365 189.43189217002242 L 425.68768979865774 183.51151767337814 L 428.9169861744966 179.20578791946315 L 432.6844979865772 180.28221879194638 L 436.9902277404922 177.05292304250565 L 436.9902277404922 159.83001029082777 L 429.4552022371365 158.75357941834454 L 432.1462841163311 143.14531140939607 L 432.1462841163311 143.14531140939607 434.2991458612975 137.22493691275173 "></path><title>COTE-D-OR</title></g>
<g onmouseout="javascript:passout(this)" onmouseover="javascript:passon(this)" ident="1" title="SAONE-ET-LOIRE" transform="matrix(1, 0, 0, 1, 0, 0)" stroke-miterlimit="10" stroke-linecap="butt" stroke-linejoin="miter" stroke-width="0.5" fill="#EFF2F9" stroke="#7f7f7f"   onclick="tailCarte='../800-SAONE-ET-LOIRE';parent.cartechoisie(tailCarte);parent.document.getElementById('menucartelaX').style.display='none'" style="color:blue;cursor:pointer"  id="3"><path id="p3" d="M 430.5444116331096 295.48368993288597 L 431.06459149888144 297.98066040268463 L 442.717067114094 300.8937597315437 L 442.3008975391499 305.47153109619694 L 444.27768814317676 307.7604402684565 L 446.98272304250554 303.59883534675623 L 450.41604295302017 305.88770067114103 L 450.5200532438479 309.7371901565996 L 464.4470089485459 318.0589091722595 L 469.82414586129755 315.3702220134229 L 469.28522416107387 320.7541014765102 L 486.62193467561525 331.5855701118569 L 485.4359185682327 337.4466225055929 L 512.8786903803132 328.2916350782998 L 513.426265771812 324.5221573154363 L 526.8810644295302 324.52454984340056 L 533.8704532438479 320.75484563758397 L 538.7156872483222 326.13606134228195 L 554.3295834451901 318.0567878747204 L 560.7855847874721 320.2233351677853 L 563.9236049217002 327.6320302460851 L 566.5245888143177 326.90378563758395 L 571.1023601789709 336.4754587919464 L 580.6740348993288 335.95523852349004 L 588.1649055928411 344.07034243847886 L 588.2689565995526 346.77537708724844 L 573.5992899328859 349.0642832527965 L 573.4952796420581 354.89052102908283 L 580.1556966442953 358.96995002237145 L 575.3117530201342 367.0431909619688 L 581.2321306487696 368.1196227740493 L 587.1525051454139 384.8043194630873 L 582.84677852349 396.10685771812086 L 577.4646178970917 396.10685771812086 L 577.4646178970917 407.9476098434005 L 584.4614263982103 409.0240438478748 L 583.3849923937361 416.02085234899334 L 566.1620796420582 420.3265789709173 L 558.6270541387024 416.02085234899334 L 556.474192393736 409.56225771812086 L 552.7066796420581 409.56225771812086 L 536.0219807606264 414.406204474273 L 529.0251722595078 410.100474720358 L 521.4901467561522 410.100474720358 L 502.1143691275168 475.76283310961975 L 496.1939914988814 473.60996823266225 L 489.19718299776287 452.08132572706944 L 453.1367096196868 454.23419060402694 L 452.0602756152125 471.9953203579419 L 435.3755798657718 480.06856286353474 L 434.8373628635347 475.2246161073826 L 402.0061836689038 477.91569798657724 L 387.4743502908277 467.15137673378086 L 386.93613422818794 454.77240760626404 L 399.31510335570465 447.7755991051455 L 397.7004551677852 425.17052572706945 L 364.8692747203579 406.33296196868014 L 351.41387472035797 371.88713521252805 L 365.94570872483223 367.0431909619688 L 371.86608447427295 371.3489191498882 L 373.4807326621924 377.8075109619688 L 377.78646116331095 377.26929583892627 L 379.4011093512304 372.9635673378077 L 405.77369610738253 362.7374624608502 L 404.6972639821029 352.51135727069357 L 410.07942429530203 348.20562895749447 L 402.54439973154365 323.98590657718125 L 397.16223913646536 326.1387708277406 L 397.16223913646536 324.5241226398211 L 404.1590479194631 318.60374595078304 L 406.8501282326622 309.45407382550343 L 401.4679675436241 305.14834407158844 L 404.1590479194631 298.15153557046983 L 426.79897534675615 291.84230872483226 430.5444116331096 295.48368993288597 "></path><title>SAONE-ET-LOIRE</title></g>
<g onmouseout="javascript:passout(this)" onmouseover="javascript:passon(this)" ident="1" title="NIEVRE" transform="matrix(1, 0, 0, 1, 0, 0)" stroke-miterlimit="10" stroke-linecap="butt" stroke-linejoin="miter" stroke-width="0.5" fill="#EFF2F9" stroke="#7f7f7f"   onclick="tailCarte='../358-NIEVRE';parent.cartechoisie(tailCarte);parent.document.getElementById('menucartelaX').style.display='none'" style="color:blue;cursor:pointer"  id="4"><path id="p4" d="M 365.94570872483223 367.0431909619688 L 371.86608447427295 371.3489191498882 L 373.4807326621924 377.8075109619688 L 377.78646116331095 377.26929583892627 L 379.4011093512304 372.9635673378077 L 405.77369610738253 362.7374624608502 L 404.6972639821029 352.51135727069357 L 410.07942429530203 348.20562895749447 L 402.54439973154365 323.98590657718125 L 397.16223913646536 326.1387708277406 L 397.16223913646536 324.5241226398211 L 404.1590479194631 318.60374595078304 L 406.8501282326622 309.45407382550343 L 401.4679675436241 305.14834407158844 L 404.1590479194631 298.15153557046983 L 424.9644620134228 292.41617091722605 L 426.2259058612975 284.15791856823273 L 420.8437455480984 273.3935973154363 L 412.77050460850114 276.6228930648771 L 412.77050460850114 257.7853324384788 L 401.4679675436241 258.86176331096203 L 398.7768872930649 264.24392393736025 L 395.0093748545861 261.55284519015663 L 390.70364635346755 249.17387606263992 L 381.0157575391499 251.8649548098435 L 381.0157575391499 244.8681463087249 L 377.24824510067117 240.56241968680095 L 372.9425165995526 248.63565906040273 L 342.802418344519 233.56560805369134 L 341.1877704697987 228.18345055928418 L 333.652744966443 222.801289932886 L 333.652744966443 217.95734317673384 L 330.42344921700226 216.88091230425067 L 329.8852322147651 228.72166442953028 L 319.12091096196866 226.03058568232666 L 311.585885458613 232.4891771812081 L 284.13686845637585 221.18663892617457 L 283.0604344519016 214.72804742729312 L 279.2929248322148 212.03696868008956 L 269.6050344519016 216.88091230425067 L 263.14644295302014 214.18983042505602 L 246.9999610738255 219.57199105145423 L 258.302496196868 240.02420268456385 L 249.152825950783 259.3999803131992 L 252.38212170022373 263.7057100671142 L 265.8375217002237 273.93181431767346 L 271.2196823266219 311.6069387024609 L 277.67827382550337 315.912665637584 L 276.063625950783 354.12600545861307 L 272.83433020134225 360.04638214765106 L 273.3725472035794 368.1196227740493 L 295.97762058165546 383.189671588367 L 305.12729395973156 375.11643158836694 L 308.8948067114094 375.6546476510068 L 309.43302371364655 380.4985928411634 L 316.4298322147651 382.11324071588376 L 318.58269395973156 376.1928637136466 L 325.5795055928412 376.1928637136466 L 329.34701521252794 388.0336183445191 L 336.88204071588365 382.11324071588376 L 340.11133646532437 383.189671588367 L 339.5731225950783 375.11643158836694 L 346.03171409395975 374.0399994630873 L 344.41706621923936 367.0431909619688 L 351.41387472035797 371.88713521252805 365.94570872483223 367.0431909619688 "></path><title>NIEVRE</title></g>



</g>
</g>








<script><![CDATA[


]]></script>


</svg>