<?xml version="1.0" encoding="UTF-8" standalone="no"?>

<!DOCTYPE svg PUBLIC "-//W3C//DTD SVG 1.1//EN"
  "http://www.w3.org/Graphics/SVG/1.1/DTD/svg11.dtd"
[
    <!ENTITY ns_flows "http://ns.adobe.com/Flows/1.0/">
	<!ENTITY ns_svg "http://www.w3.org/2000/svg">
	<!ENTITY ns_xlink "http://www.w3.org/1999/xlink">
]>

<svg id="gene"  
xmlns="http://www.w3.org/2000/svg"
xmlns:xlink="http://www.w3.org/1999/xlink"
xmlns:xul="http://www.mozilla.org/keymaster/gatekeeper/there.is.only.xul"

   xmlns:dc="http://purl.org/dc/elements/1.1/"
   xmlns:cc="http://web.resource.org/cc/"
   xmlns:rdf="http://www.w3.org/1999/02/22-rdf-syntax-ns#"
   xmlns:svg="http://www.w3.org/2000/svg"
 

   xmlns:sodipodi="http://inkscape.sourceforge.net/DTD/sodipodi-0.dtd"
   xmlns:inkscape="http://www.inkscape.org/namespaces/inkscape"


>


<script id="scrpt"  language="javascript" ><![CDATA[
var brsrici="ei"


function affichN(){
//brsrici=document.getElementById("totalsvg").getAttribute("name")
if(brsrici=="ei"){window.SVGaffichN()}else{
top.frames.Num0.frames.couches.zoom.SVGaffichN()
}
}
var strokewidthpas
var strokepas
var opacpas
function passon(a){
strokepas=a.getAttribute('stroke')
a.setAttribute('stroke','navy');
opacpas=a.getAttribute('fill-opacity')
a.setAttribute('fill-opacity','0.5')  
}
function passout(a){
a.setAttribute('fill-opacity',opacpas)
a.setAttribute('stroke',strokepas);
}
function svggeneral(){

brsrici=document.getElementById("totalsvg").getAttribute("name")
if(brsrici=="ei"){window.SVGgeneral()}else{
top.frames.Num0.frames[2].indic1()
}}
function svgdown(a){
//brsrici=document.getElementById("totalsvg").getAttribute("name")
if(brsrici=="ei"){window.SVGdown()}else{
top.frames.Num0.frames.couches.zoom.selxsvg();top.frames.Num0.frames.couches.zoom.rien();
}}
function svgclick1(){
//brsrici=document.getElementById("totalsvg").getAttribute("name")
if(brsrici=="ei"){window.SVGclick1()}else{
top.frames.Num0.frames.couches.zoom.valNoDatx(NoDatx);top.frames.Num0.frames.couches.zoom.transDATA();top.frames.Num0.frames.couches.zoom.carte()
}
}
function svgclick2(){
//brsrici=document.getElementById("totalsvg").getAttribute("name")
if(brsrici=="ei"){window.SVGclick2()}else{
top.frames.Num0.frames.couches.zoom.valNoDatx2(NoDatx);top.frames.Num0.frames.couches.zoom.transDATA();top.frames.Num0.frames.couches.zoom.carte()
}}
function svgout(){
//brsrici=document.getElementById("totalsvg").getAttribute("name")
if(brsrici=="ei"){window.SVGout()}else{
//top.frames.Num0.frames.couches.zoom0()
//<image x="10" Y="10" width="300" height="300" xlink:href="fonds france contour.jpg" ></image>
}}
]]></script>

  <metadata
     id="metadata7">
    <rdf:RDF>
      <cc:Work
         rdf:about="">
        <dc:format>image/svg+xml</dc:format>
        <dc:type
           rdf:resource="http://purl.org/dc/dcmitype/StillImage" />
      </cc:Work>
    </rdf:RDF>
  </metadata>

<defs>
<radialGradient id="grad1" >
 <stop class="begin" offset="0" style="stop-color:#5555AA"/>
 <stop class="end" offset="1" style="stop-color:white"/>
</radialGradient>
</defs>

<g space="preserve" opacity="1" transform="matrix(0.3, 0, 0, 0.3, 0, 0)"  name="ns" id="totalsvg">






	 
	 

	
<rect y="-150" x="-150" height="800" width="800" style="fill: url(#grad1) ; fill-opacity: 1; fill-rule: evenodd; stroke: rgb(0, 0, 0); stroke-width: 0.5; stroke-linecap: butt; stroke-linejoin: miter; stroke-opacity: 1;"  transform="matrix(1, 0, 0, 1, 0, 0)" fill="#EBEFF8" id="rectmove"></rect>


<g space="preserve" opacity="1" transform="matrix(1, 0, 0, 1, -160, -15)"   id="calageAires">




<image opacity="0" href="transparent.png" height="0" width="0" y="-60" x="0" transform="matrix(1, 0, 0, 1, 0, 0)" id="imagesfond1"/>

<image opacity="0" href="transparent.png" height="0" width="0" y="-60" x="0" transform="matrix(1, 0, 0, 1, 0, 0)" id="imagesfond2"/>


<g onmouseout="javascript:passout(this)" onmouseover="javascript:passon(this)" ident="1" title="HAUTES-ALPES" transform="matrix(1, 0, 0, 1, 0, 0)" stroke-miterlimit="10" stroke-linecap="butt" stroke-linejoin="miter" stroke-width="0.5" fill="#EFF2F9" stroke="#7f7f7f"  onclick="tailCarte='../358-HAUTES-ALPES';parent.cartechoisie(tailCarte);parent.document.getElementById('menucartelaX').style.display='none'" style="color:blue;cursor:pointer" id="1"><path stroke-width="1" stroke="gray" id="p1" d="M 377.5824748534202 246.43861856677532 L 393.83184527687297 242.33862166123788 L 397.0449034201954 243.94514902280136 L 409.36162573289903 244.4806592833877 L 409.36162573289903 244.4806592833877 L 396.50939315960915 229.4863890879479 L 396.50939315960915 229.4863890879479 L 398.65143078175896 224.13129332247567 L 404.0065299674267 226.8088412052118 L 404.0065299674267 228.95087882736166 L 410.43264283387623 234.30597801302937 L 409.89713599348534 222.52476596091213 L 406.14856758957654 221.45374543973946 L 406.14856758957654 217.16966677524437 L 410.43264283387623 216.63415993485347 L 413.6457009771987 203.24641710097728 L 428.1044609120521 194.67826319218244 L 430.24650195439744 196.284790553746 L 430.24650195439744 189.3231674267102 L 440.956693485342 189.8586776872965 L 452.20239527687295 204.8529478827362 L 455.41545342019543 199.4978486970685 L 451.66688501628664 190.39418452768734 L 460.23504234527684 187.18112980456033 L 465.5901381107492 189.8586776872965 L 467.1966654723127 188.25214690553753 L 466.1256483713355 177.00644511400662 L 469.8742133550488 178.07746563517918 L 476.8358399022801 186.11010928338771 L 487.54603143322475 189.8586776872965 L 508.4309076547231 190.9296947882737 L 513.7860034201955 172.72236644951147 L 544.8455643322475 147.55341498371342 L 549.6651498371335 147.55341498371342 L 551.8071908794789 143.26933631921833 L 558.7688140065147 140.05627817589584 L 566.8014610749185 141.12729869706845 L 564.6594200325733 134.16567214983718 L 559.8398345276873 133.09465504886003 L 556.0912661237785 119.70691221498379 L 558.2333037459284 112.74528908794792 L 544.8455643322475 106.85468306188926 L 540.5614856677525 110.06774120521175 L 519.1411026058631 99.35754625407168 L 516.4635547231271 77.40165293159612 L 505.75335977198694 77.40165293159612 L 499.327243485342 60.26534169381114 L 491.83011009771985 59.72983485342024 L 480.0488980456026 64.54942035830629 L 480.5844083061889 71.51104690553757 L 474.6938022801303 73.65308452768738 L 462.912590228013 70.9755366449512 L 465.0546278501629 66.15595114006521 L 460.23504234527684 60.8008519543975 L 453.27341579804556 64.01391009771993 L 449.5248473941368 60.8008519543975 L 444.70526188925083 65.6204408794789 L 447.9183200325733 71.51104690553757 L 444.1697516286645 74.18859478827369 L 442.56322426710096 83.82776921824109 L 453.27341579804556 85.9698068403909 L 458.6285115635179 82.75674869706842 L 462.3770799674267 96.67999837133561 L 464.5191175895766 96.67999837133561 L 464.5191175895766 113.81630618892513 L 459.69953208469053 114.35181644951155 L 456.48647394136805 108.46121042345283 L 452.73790553745926 110.60324804560264 L 448.98933713355046 114.35181644951155 L 433.4595600977199 112.74528908794792 L 423.28487540716617 121.84895325732913 L 421.1428377850163 118.63589511400664 L 409.89713599348534 125.06201140065156 L 414.181211237785 128.810576384365 L 398.1159239413681 136.84322345276877 L 393.29633501628666 134.16567214983718 L 390.6187871335504 144.34035684039094 L 393.83184527687297 147.01790472312706 L 388.47674951140067 156.1215688925082 L 384.19267084690557 154.5150415309447 L 380.44410586319214 158.26360651465808 L 368.66289244299674 155.5860586319219 L 368.1273828664495 164.15421254071668 L 362.2367768403909 178.61297247557007 L 371.8759502442997 183.9680716612379 L 367.5918732899023 186.64561954397408 L 364.37881514657977 192.00071530944632 L 343.49393930130293 186.64561954397408 L 345.6359778469055 196.284790553746 L 348.3135260716612 198.9623418566776 L 346.1714874918567 202.1753965798046 L 342.95842965635177 200.0333589576548 L 339.2098623127036 202.71090684039092 L 343.49393930130293 212.35008127035837 L 350.99107436482086 218.24068729641704 L 353.13311267100977 215.56313941368086 L 357.95269954397395 218.24068729641704 L 357.95269954397395 218.77619755700334 L 369.73391159609116 218.24068729641704 L 367.0563633713355 224.66680358306198 L 372.4114598208469 230.5574096091206 L 375.6245176221498 231.09291986970692 L 377.2310466938111 232.69944723127043 L 376.16002754071667 238.5900532573291 L 377.5824748534202 246.43861856677532 377.5824748534202 246.43861856677532 "></path><title>HAUTES-ALPES</title></g>
<g onmouseout="javascript:passout(this)" onmouseover="javascript:passon(this)" ident="1" title="ALPES-DE-HAUTE-PROVENCE" transform="matrix(1, 0, 0, 1, 0, 0)" stroke-miterlimit="10" stroke-linecap="butt" stroke-linejoin="miter" stroke-width="0.5" fill="#EFF2F9" stroke="#7f7f7f"   onclick="tailCarte='../358-ALPES-DE-HAUTE-PROVENCE';parent.cartechoisie(tailCarte);parent.document.getElementById('menucartelaX').style.display='none'" style="color:blue;cursor:pointer"  id="2"><path stroke-width="1" stroke="gray" id="p2" d="M 372.4114598208469 247.69371742671018 L 371.8759502442997 250.90677557003264 L 376.6955371172638 253.0488131921825 L 375.6245176221498 256.79738159609127 L 370.26942117263843 255.72636107491869 L 370.8049310912052 251.97779609120528 L 365.98534421824104 246.08719006514664 L 361.16575734527686 250.37126530944633 L 364.37881514657977 253.0488131921825 L 352.0620935179153 262.15247736156357 L 353.66862258957656 273.39817915309453 L 358.48820912052116 270.72063127035835 L 355.27515131921825 295.8895861563518 L 368.66289244299674 301.7801921824105 L 361.7012669218241 314.0969144951141 L 361.16575734527686 321.0585376221499 L 363.8433055700326 319.4520102605864 L 364.37881514657977 316.7744623778502 L 376.6955371172638 317.84547947882743 L 391.68980765472315 335.5172985830619 L 395.4383760586319 331.7687312052118 L 402.93550944625406 331.7687312052118 L 405.0775470684039 336.588318078176 L 411.50366335504884 336.05280850162876 L 411.50366335504884 331.2332216286646 L 415.787742019544 330.1622024755701 L 416.32324885993484 336.588318078176 L 431.85302931596084 345.69198190553755 L 431.85302931596084 340.87239503257337 L 441.49220374592835 331.2332216286646 L 445.776278990228 332.30424078175906 L 462.3770799674267 316.7744623778502 L 474.6938022801303 330.1622024755701 L 481.6554254071661 329.62669255700337 L 484.33297328990227 321.0585376221499 L 498.2562263843648 315.16793159609125 L 502.5403016286645 319.9875205211727 L 509.5019281758958 314.0969144951141 L 513.2504965798046 315.7034418566776 L 515.9280444625407 318.38098973941374 L 524.4961983713355 314.0969144951141 L 519.6766094462541 310.34834609120526 L 521.283140228013 307.67079820846914 L 519.6766094462541 299.10264429967435 L 531.4578214983715 300.70917166123786 L 537.8839377850163 294.2830553745929 L 543.2390369706841 293.2120382736157 L 550.20066009772 296.4250964169382 L 557.1622866449511 294.2830553745929 L 551.2716806188926 288.9279596091206 L 532.528842019544 271.79165179153097 L 526.6382359934853 268.04308338762223 L 528.2447667752442 260.01043973941375 L 520.7476299674267 252.51330293159614 L 518.6055923452768 243.94514902280136 L 522.3541607491857 227.87986172638446 L 530.9223146579805 221.98925570032577 L 531.9933317589575 213.42110179153104 L 539.4904685667752 208.06600260586328 L 539.4904685667752 208.06600260586328 L 544.3100540716612 204.8529478827362 L 545.3810745928339 193.07173583061893 L 551.2716806188926 189.8586776872965 L 537.8839377850163 178.07746563517918 L 538.9549583061889 171.1158390879479 L 546.9876019543974 163.6187057003258 L 551.2716806188926 153.44402100977203 L 551.8071908794789 153.44402100977203 L 549.6651498371335 147.55341498371342 L 544.8455643322475 147.55341498371342 L 513.7860034201955 172.72236644951147 L 508.4309076547231 190.9296947882737 L 487.54603143322475 189.8586776872965 L 476.8358399022801 186.11010928338771 L 469.8742133550488 178.07746563517918 L 466.1256483713355 177.00644511400662 L 467.1966654723127 188.25214690553753 L 465.5901381107492 189.8586776872965 L 460.23504234527684 187.18112980456033 L 451.66688501628664 190.39418452768734 L 455.41545342019543 199.4978486970685 L 452.20239527687295 204.8529478827362 L 440.956693485342 189.8586776872965 L 430.24650195439744 189.3231674267102 L 430.24650195439744 196.284790553746 L 428.1044609120521 194.67826319218244 L 413.6457009771987 203.24641710097728 L 410.43264283387623 216.63415993485347 L 406.14856758957654 217.16966677524437 L 406.14856758957654 221.45374543973946 L 409.89713599348534 222.52476596091213 L 410.43264283387623 234.30597801302937 L 404.0065299674267 228.95087882736166 L 404.0065299674267 226.8088412052118 L 398.65143078175896 224.13129332247567 L 396.50939315960915 229.4863890879479 L 409.36162573289903 244.4806592833877 L 397.0449034201954 243.94514902280136 L 393.83184527687297 242.33862166123788 L 377.5824748534202 246.43861856677532 372.4114598208469 247.69371742671018 "></path><title>ALPES-DE-HAUTE-PROVENCE</title></g>
<g onmouseout="javascript:passout(this)" onmouseover="javascript:passon(this)" ident="1" title="ALPES-MARITIMES" transform="matrix(1, 0, 0, 1, 0, 0)" stroke-miterlimit="10" stroke-linecap="butt" stroke-linejoin="miter" stroke-width="0.5" fill="#EFF2F9" stroke="#7f7f7f"   onclick="tailCarte='../358-ALPES-MARITIMES';parent.cartechoisie(tailCarte);parent.document.getElementById('menucartelaX').style.display='none'" style="color:blue;cursor:pointer"  id="3"><path id="p3" d="M 524.4961983713355 314.0969144951141 L 519.6766094462541 310.34834609120526 L 521.283140228013 307.67079820846914 L 519.6766094462541 299.10264429967435 L 531.4578214983715 300.70917166123786 L 537.8839377850163 294.2830553745929 L 543.2390369706841 293.2120382736157 L 550.20066009772 296.4250964169382 L 557.1622866449511 294.2830553745929 L 532.528842019544 271.79165179153097 L 526.6382359934853 268.04308338762223 L 528.2447667752442 260.01043973941375 L 520.7476299674267 252.51330293159614 L 518.6055923452768 243.94514902280136 L 522.3541607491857 227.87986172638446 L 530.9223146579805 221.98925570032577 L 531.9933317589575 213.42110179153104 L 538.9549583061889 208.60151286644958 L 543.7745438110749 205.3884547231271 L 560.3753447882737 220.9182351791532 L 560.3753447882737 228.95087882736166 L 566.8014610749185 231.62843013029325 L 571.0855363192181 228.95087882736166 L 602.1450972312703 243.94514902280136 L 609.6422306188924 243.94514902280136 L 612.855288762215 249.30024820846913 L 616.6038571661238 246.6226969055375 L 621.4234426710098 248.22922768729651 L 623.0299734527687 246.08719006514664 L 648.734435179153 239.12556351791537 L 650.876472801303 233.77046775244307 L 657.3025890879478 234.8414848534203 L 656.2315685667752 245.55167980456037 L 663.1931951140066 251.97779609120528 L 660.5156472312703 260.01043973941375 L 656.7670788273617 262.68798762214993 L 656.7670788273617 271.79165179153097 L 644.4503565146581 281.4308262214985 L 642.3083188925082 289.99898013029326 L 635.8822026058633 294.8185656351792 L 634.2756752442997 299.10264429967435 L 640.7017915309445 311.41936319218246 L 633.7401649837133 316.7744623778502 L 634.811185504886 318.91650000000004 L 630.5271068403908 317.84547947882743 L 623.5654802931597 325.342615602606 L 615.5328366449512 325.87812517915313 L 613.9263092833876 330.1622024755701 L 615.5328366449512 336.05280850162876 L 612.855288762215 336.05280850162876 L 612.3197785016287 329.0911829804561 L 600.5385664495113 334.4462794299675 L 596.2544912052117 341.94341452768737 L 595.1834706840391 338.73035672638446 L 589.2928646579805 340.33688545602615 L 585.5442962540717 355.33115541205217 L 587.1508270358306 362.29278083061894 L 587.1508270358306 376.2160315309447 L 559.8398345276873 376.2160315309447 L 555.0202490228013 369.2544060097721 L 557.6977969055374 352.1180975081434 L 546.9876019543974 352.1180975081434 L 533.0643522801303 341.94341452768737 L 534.6708796416938 334.4462794299675 L 531.9933317589575 329.0911829804561 L 518.6055923452768 326.94914433224767 L 515.9280444625407 318.38098973941374 524.4961983713355 314.0969144951141 "></path><title>ALPES-MARITIMES</title></g>
<g onmouseout="javascript:passout(this)" onmouseover="javascript:passon(this)" ident="1" title="VAUCLUSE" transform="matrix(1, 0, 0, 1, 0, 0)" stroke-miterlimit="10" stroke-linecap="butt" stroke-linejoin="miter" stroke-width="0.5" fill="#EFF2F9" stroke="#7f7f7f"   onclick="tailCarte='../358-VAUCLUSE';parent.cartechoisie(tailCarte);parent.document.getElementById('menucartelaX').style.display='none'" style="color:blue;cursor:pointer"  id="4"><path id="p4" d="M 277.62625211726385 228.95087882736166 L 264.7740229641694 227.3443514657981 L 263.70300244299676 218.77619755700334 L 270.12911872964173 207.53049576547238 L 276.55523501628664 203.24641710097728 L 289.9429744299674 213.42110179153104 L 282.98135130293156 217.70517703583073 L 278.16176237785015 229.4863890879479 L 279.2327828990228 232.1639369706841 L 288.3364470684039 226.8088412052118 L 292.6205223127036 231.62843013029325 L 296.3690907166124 231.09291986970692 L 303.33071726384367 225.73782068403915 L 303.86622752443 240.7320908794789 L 313.50539956026057 243.94514902280136 L 317.25396693811075 240.7320908794789 L 334.3902754397394 245.016169543974 L 336.5323140879479 254.65534397394146 L 342.4229200114006 254.65534397394146 L 346.7069971368078 261.08146026058637 L 352.0620935179153 262.15247736156357 L 353.66862258957656 273.39817915309453 L 358.48820912052116 270.72063127035835 L 355.27515131921825 295.8895861563518 L 368.66289244299674 301.7801921824105 L 361.7012669218241 314.0969144951141 L 361.16575734527686 321.0585376221499 L 363.8433055700326 319.4520102605864 L 364.37881514657977 316.7744623778502 L 376.6955371172638 317.84547947882743 L 391.68980765472315 335.5172985830619 L 372.4114598208469 349.97605885993494 L 353.66862258957656 349.97605885993494 L 328.49966941368075 336.588318078176 L 317.78947651465796 334.98178900651476 L 309.2213232899023 337.65933723127046 L 291.01399495114003 327.4846542508144 L 286.72991628664494 319.4520102605864 L 265.8450400651466 305.52875716612385 L 247.10220488599347 304.4577400651467 L 258.88341693811077 289.99898013029326 L 248.17322198697067 270.72063127035835 L 242.28261596091204 273.39817915309453 L 240.67608859934853 268.04308338762223 L 241.74710912052117 253.0488131921825 L 231.0369141693811 236.4480156351792 L 231.0369141693811 223.59578306188934 L 249.77975276872965 226.27333094462549 L 253.52832117263844 230.5574096091206 L 255.67035879478829 243.94514902280136 L 264.23851270358307 236.4480156351792 L 279.2327828990228 232.1639369706841 277.62625211726385 228.9508788273616 "></path><title>VAUCLUSE</title></g>
<g onmouseout="javascript:passout(this)" onmouseover="javascript:passon(this)" ident="1" title="VAR" transform="matrix(1, 0, 0, 1, 0, 0)" stroke-miterlimit="10" stroke-linecap="butt" stroke-linejoin="miter" stroke-width="0.5" fill="#EFF2F9" stroke="#7f7f7f"   onclick="tailCarte='../358-VAR';parent.cartechoisie(tailCarte);parent.document.getElementById('menucartelaX').style.display='none'" style="color:blue;cursor:pointer"  id="5"><path id="p5" d="M 385.7992016286645 430.30250423452776 L 395.9738828990228 424.94740846905546 L 390.6187871335504 415.8437442996743 L 384.7281811074919 417.9857819218242 L 385.2636913680782 400.8494741042346 L 400.25796156351794 397.63641596091213 L 385.7992016286645 384.24867586319226 L 387.9412392508143 371.9319542345278 L 378.8375754234528 366.57685778501633 L 383.12165374592837 363.89930956026063 L 382.0506332247557 358.544213281759 L 385.7992016286645 351.5825879315962 L 397.5804136807817 348.36953013029324 L 398.1159239413681 344.0854528338763 L 391.68980765472315 335.5172985830619 L 395.4383760586319 331.7687312052118 L 402.93550944625406 331.7687312052118 L 405.0775470684039 336.588318078176 L 411.50366335504884 336.05280850162876 L 411.50366335504884 331.2332216286646 L 415.787742019544 330.1622024755701 L 416.32324885993484 336.588318078176 L 431.85302931596084 345.69198190553755 L 431.85302931596084 340.87239503257337 L 441.49220374592835 331.2332216286646 L 445.776278990228 332.30424078175906 L 462.3770799674267 316.7744623778502 L 474.6938022801303 330.1622024755701 L 481.6554254071661 329.62669255700337 L 484.33297328990227 321.0585376221499 L 498.2562263843648 315.16793159609125 L 502.5403016286645 319.9875205211727 L 509.5019281758958 314.0969144951141 L 513.2504965798046 315.7034418566776 L 515.9280444625407 318.38098973941374 L 518.6055923452768 326.94914433224767 L 531.9933317589575 329.0911829804561 L 534.6708796416938 334.4462794299675 L 533.0643522801303 341.94341452768737 L 546.9876019543974 352.1180975081434 L 557.6977969055374 352.1180975081434 L 555.0202490228013 369.2544060097721 L 559.8398345276873 376.2160315309447 L 553.4137182410423 385.8552049348535 L 539.4904685667752 390.13928257328996 L 535.7419001628665 389.06826273615644 L 529.8512941368078 404.0625322475571 L 526.102725732899 405.669063029316 L 523.9606881107492 409.9531382736157 L 512.7149863192183 417.9857819218242 L 514.3215136807818 420.6633332247558 L 525.0317086319219 417.9857819218242 L 528.2447667752442 420.6633332247558 L 525.0317086319219 424.94740846905546 L 527.1737462540716 433.51556237785024 L 519.6766094462541 439.40616840390885 L 519.6766094462541 480.10490032573296 L 446.84729951140065 480.10490032573296 L 446.84729951140065 468.3236882736157 L 449.5248473941368 467.2526711726385 L 450.59586791530944 461.3620651465799 L 442.56322426710096 458.6845172638437 L 435.6015977198697 460.8265548859936 L 434.5305771986971 460.2910446254072 L 435.6015977198697 458.1490070032574 L 418.4652899022801 453.8649283387623 L 418.4652899022801 459.7555343648209 L 425.426913029316 461.3620651465799 L 423.28487540716617 464.57512328990236 L 416.8587591205212 462.9685925081434 L 411.50366335504884 468.859198534202 L 406.14856758957654 466.1816506514659 L 398.65143078175896 465.11063013029326 L 399.18694104234527 454.9359488599349 L 400.25796156351794 452.2584009771988 L 398.1159239413681 451.7228907166124 L 390.6187871335504 451.7228907166124 L 383.6571640065147 444.7612641693812 385.7992016286645 430.30250423452776 "></path><title>VAR</title></g>
<g onmouseout="javascript:passout(this)" onmouseover="javascript:passon(this)" ident="1" title="BOUCHES-DU-RHONE" transform="matrix(1, 0, 0, 1, 0, 0)" stroke-miterlimit="10" stroke-linecap="butt" stroke-linejoin="miter" stroke-width="0.5" fill="#EFF2F9" stroke="#7f7f7f"   onclick="tailCarte='../358-BOUCHES-DU-RHONE';parent.cartechoisie(tailCarte);parent.document.getElementById('menucartelaX').style.display='none'" style="color:blue;cursor:pointer"  id="6"><path id="p6" d="M 265.8450400651466 305.52875716612385 L 286.72991628664494 319.4520102605864 L 291.01399495114003 327.4846542508144 L 309.2213232899023 337.65933723127046 L 317.78947651465796 334.98178900651476 L 328.49966941368075 336.588318078176 L 353.66862258957656 349.97605885993494 L 372.4114598208469 349.97605885993494 L 391.68980765472315 335.5172985830619 L 398.1159239413681 344.0854528338763 L 397.5804136807817 348.36953013029324 L 385.7992016286645 351.5825879315962 L 382.0506332247557 358.544213281759 L 383.12165374592837 363.89930956026063 L 378.8375754234528 366.57685778501633 L 387.9412392508143 371.9319542345278 L 385.7992016286645 384.24867586319226 L 400.25796156351794 397.63641596091213 L 385.2636913680782 400.8494741042346 L 384.7281811074919 417.9857819218242 L 390.6187871335504 415.8437442996743 L 395.9738828990228 424.94740846905546 L 385.7992016286645 430.30250423452776 L 383.6571640065147 444.7612641693812 L 379.3730853420195 442.61922654723134 L 376.16002754071667 442.61922654723134 L 374.5534984690554 447.97432231270363 L 370.26942117263843 446.3677949511401 L 364.9143250651466 438.33515130293165 L 359.5592286156352 439.9416786644952 L 349.3845452931596 439.40616840390885 L 348.8490357166124 448.50983257329 L 336.5323140879479 448.50983257329 L 336.5323140879479 438.33515130293165 L 340.2808814657981 431.9090350162867 L 321.53804389250814 431.9090350162867 L 321.00253431596093 417.4502750814333 L 292.6205223127036 417.4502750814333 L 266.9160605863192 416.914764820847 L 266.3805503257329 419.59231270358316 L 254.59933827361561 415.308234039088 L 236.39200993485343 416.3792545602607 L 225.68181840390878 413.7017066775245 L 223.53978078175896 408.3466109120522 L 229.9658970684039 402.9915151465799 L 225.14630814332247 397.63641596091213 L 214.43611661237784 394.95886807817595 L 199.97735667752443 397.1009057003258 L 176.95043941368078 396.0298885993486 L 178.0214599348534 389.06826273615644 L 178.55697019543973 386.92622408794796 L 189.26716172638436 381.5711279804561 L 187.12512410423452 377.8225602605864 L 190.87369250814334 381.0356180618893 L 210.68754820846905 367.1123673615636 L 209.08102084690555 364.9703290553747 L 205.86796270358306 365.5058386319219 L 203.7259216612378 363.3637999837134 L 211.7585687296417 348.9050397068405 L 217.64917475570033 347.2985109771988 L 231.0369141693811 349.44054928338767 L 229.9658970684039 342.4789241042346 L 234.7854825732899 330.1622024755701 L 234.7854825732899 315.7034418566776 L 233.17895179153095 314.0969144951141 L 247.10220488599347 304.4577400651467 265.8450400651466 305.52875716612385 "></path><title>BOUCHES-DU-RHONE</title></g>



</g>
</g>








<script><![CDATA[


]]></script>


</svg>