<?xml version="1.0" encoding="UTF-8" standalone="no"?>

<!DOCTYPE svg PUBLIC "-//W3C//DTD SVG 1.1//EN"
  "http://www.w3.org/Graphics/SVG/1.1/DTD/svg11.dtd"
[
    <!ENTITY ns_flows "http://ns.adobe.com/Flows/1.0/">
	<!ENTITY ns_svg "http://www.w3.org/2000/svg">
	<!ENTITY ns_xlink "http://www.w3.org/1999/xlink">
]>

<svg id="gene"  
xmlns="http://www.w3.org/2000/svg"
xmlns:xlink="http://www.w3.org/1999/xlink"
xmlns:xul="http://www.mozilla.org/keymaster/gatekeeper/there.is.only.xul"

   xmlns:dc="http://purl.org/dc/elements/1.1/"
   xmlns:cc="http://web.resource.org/cc/"
   xmlns:rdf="http://www.w3.org/1999/02/22-rdf-syntax-ns#"
   xmlns:svg="http://www.w3.org/2000/svg"
 

   xmlns:sodipodi="http://inkscape.sourceforge.net/DTD/sodipodi-0.dtd"
   xmlns:inkscape="http://www.inkscape.org/namespaces/inkscape"


>


<script id="scrpt"  language="javascript" ><![CDATA[
var brsrici="ei"


function affichN(){
//brsrici=document.getElementById("totalsvg").getAttribute("name")
if(brsrici=="ei"){window.SVGaffichN()}else{
top.frames.Num0.frames.couches.zoom.SVGaffichN()
}
}
var strokewidthpas
var strokepas
var opacpas
function passon(a){
strokepas=a.getAttribute('stroke')
a.setAttribute('stroke','navy');
opacpas=a.getAttribute('fill-opacity')
a.setAttribute('fill-opacity','0.5')  
}
function passout(a){
a.setAttribute('fill-opacity',opacpas)
a.setAttribute('stroke',strokepas);
}
function svggeneral(){

brsrici=document.getElementById("totalsvg").getAttribute("name")
if(brsrici=="ei"){window.SVGgeneral()}else{
top.frames.Num0.frames[2].indic1()
}}
function svgdown(a){
//brsrici=document.getElementById("totalsvg").getAttribute("name")
if(brsrici=="ei"){window.SVGdown()}else{
top.frames.Num0.frames.couches.zoom.selxsvg();top.frames.Num0.frames.couches.zoom.rien();
}}
function svgclick1(){
//brsrici=document.getElementById("totalsvg").getAttribute("name")
if(brsrici=="ei"){window.SVGclick1()}else{
top.frames.Num0.frames.couches.zoom.valNoDatx(NoDatx);top.frames.Num0.frames.couches.zoom.transDATA();top.frames.Num0.frames.couches.zoom.carte()
}
}
function svgclick2(){
//brsrici=document.getElementById("totalsvg").getAttribute("name")
if(brsrici=="ei"){window.SVGclick2()}else{
top.frames.Num0.frames.couches.zoom.valNoDatx2(NoDatx);top.frames.Num0.frames.couches.zoom.transDATA();top.frames.Num0.frames.couches.zoom.carte()
}}
function svgout(){
//brsrici=document.getElementById("totalsvg").getAttribute("name")
if(brsrici=="ei"){window.SVGout()}else{
//top.frames.Num0.frames.couches.zoom0()
//<image x="10" Y="10" width="300" height="300" xlink:href="fonds france contour.jpg" ></image>
}}
]]></script>

  <metadata
     id="metadata7">
    <rdf:RDF>
      <cc:Work
         rdf:about="">
        <dc:format>image/svg+xml</dc:format>
        <dc:type
           rdf:resource="http://purl.org/dc/dcmitype/StillImage" />
      </cc:Work>
    </rdf:RDF>
  </metadata>

<defs>
<radialGradient id="grad1" >
 <stop class="begin" offset="0" style="stop-color:#5555AA"/>
 <stop class="end" offset="1" style="stop-color:white"/>
</radialGradient>
</defs>

<g space="preserve" opacity="1" transform="matrix(0.3, 0, 0, 0.3, 0, 0)"  name="ns" id="totalsvg">






	 
	 

	
<rect y="-150" x="-150" height="800" width="800" style="fill: url(#grad1) ; fill-opacity: 1; fill-rule: evenodd; stroke: rgb(0, 0, 0); stroke-width: 0.5; stroke-linecap: butt; stroke-linejoin: miter; stroke-opacity: 1;"  transform="matrix(1, 0, 0, 1, 0, 0)" fill="#EBEFF8" id="rectmove"></rect>


<g space="preserve" opacity="1" transform="matrix(1, 0, 0, 1, -160, -15)"   id="calageAires">




<image opacity="0" href="transparent.png" height="0" width="0" y="-60" x="0" transform="matrix(1, 0, 0, 1, 0, 0)" id="imagesfond1"/>

<image opacity="0" href="transparent.png" height="0" width="0" y="-60" x="0" transform="matrix(1, 0, 0, 1, 0, 0)" id="imagesfond2"/>


<g onmouseout="javascript:passout(this)" onmouseover="javascript:passon(this)" ident="1" title="DEUX-SEVRES" transform="matrix(1, 0, 0, 1, 0, 0)" stroke-miterlimit="10" stroke-linecap="butt" stroke-linejoin="miter" stroke-width="0.5" fill="#EFF2F9" stroke="#7f7f7f"  onclick="tailCarte='../358-DEUX-SEVRES';parent.cartechoisie(tailCarte);parent.document.getElementById('menucartelaX').style.display='none'" style="color:blue;cursor:pointer" id="1"><path stroke-width="1" stroke="gray" id="p1" d="M 337.7752593973037 231.6783915939731 L 340.45414796193495 243.46550340999212 L 346.34770320380653 255.25261189532122 L 418.6776961141951 288.4708315622522 L 428.857473592387 301.8652743854085 L 440.1088039651071 285.25616621728796 L 460.4683589214909 275.61216685170507 L 465.82613671689137 279.8983884218875 L 472.25546740682 277.2195011895322 L 474.93435796986523 264.36083314829506 L 471.7196926249009 264.36083314829506 L 470.1123582870738 267.03972371134023 L 459.39680269627286 259.0030586835845 L 470.6481363996828 228.99950436161782 L 463.6830242664552 225.24906090404446 L 453.50324678826325 233.82150404440927 L 447.0739160983346 229.53528247422688 L 447.6096942109437 222.57017034099925 L 443.85925075337036 215.06928342585257 L 441.71613830293416 189.35195400475823 L 449.2170252180809 177.0290640761301 L 446.5381379857256 167.9208428231563 L 436.3583605075337 168.45662093576533 L 447.6096942109437 150.77595654242668 L 442.78769452815226 127.73750436161782 L 446.5381379857256 125.05863045202227 L 448.6812504361618 127.73750436161782 L 451.89591578112606 123.98708088818404 L 443.85925075337036 118.0935249801745 L 447.0739160983346 111.12841950832683 L 435.28680428231564 78.98173275178436 L 423.49969579698654 77.91018318794619 L 427.78591736716896 73.6239516256939 L 422.9639176843775 69.87352815226018 L 418.6776961141951 74.69553449643143 L 408.4979186360032 71.48085249801755 L 381.70903298969074 80.0532823156226 L 382.24481076923075 78.44595796986522 L 384.92369933386203 76.83863362410796 L 384.387921554322 74.15972640761305 L 380.63747743061066 74.15972640761305 L 370.99347849801745 78.44595796986522 L 372.6008117367169 85.41106344171294 L 361.885257145123 92.37616891356072 L 337.7752593973037 89.69729500396517 L 324.38081490880256 96.1266256938938 L 334.5605923869945 106.84218794607455 L 332.9532613798573 111.66419429024597 L 343.6688143061063 126.1301800158605 L 346.88348065027753 127.20172957969874 L 348.4908139888977 128.809053925456 L 344.7403698651864 138.45306994448856 L 354.92014667724027 149.70440031720864 L 351.70548033306903 153.45484377478198 L 357.0632574623315 158.81262157018244 L 352.7770358921491 164.706177478192 L 359.7421463600317 164.1703993655829 L 360.2779238065028 186.673063441713 L 354.38436889770026 188.28039777954012 L 359.7421463600317 202.21061871530543 L 353.8485911181602 213.99772720063447 L 358.13481302141156 213.99772720063447 L 361.885257145123 208.63994940523406 L 368.3145898701031 215.06928342585257 L 351.70548033306903 227.92794813639978 L 346.34770320380653 225.7848390166535 L 337.7752593973037 231.6783915939731 337.7752593973037 231.6783915939731 "></path><title>DEUX-SEVRES</title></g>
<g onmouseout="javascript:passout(this)" onmouseover="javascript:passon(this)" ident="1" title="VIENNE" transform="matrix(1, 0, 0, 1, 0, 0)" stroke-miterlimit="10" stroke-linecap="butt" stroke-linejoin="miter" stroke-width="0.5" fill="#EFF2F9" stroke="#7f7f7f"   onclick="tailCarte='../358-VIENNE';parent.cartechoisie(tailCarte);parent.document.getElementById('menucartelaX').style.display='none'" style="color:blue;cursor:pointer"  id="2"><path stroke-width="1" stroke="gray" id="p2" d="M 447.0739160983346 111.12841950832683 L 443.85925075337036 118.0935249801745 L 451.89591578112606 123.98708088818404 L 448.6812504361618 127.73750436161782 L 446.5381379857256 125.05863045202227 L 442.78769452815226 127.73750436161782 L 447.6096942109437 150.77595654242668 L 436.3583605075337 168.45662093576533 L 446.5381379857256 167.9208428231563 L 449.2170252180809 177.0290640761301 L 441.71613830293416 189.35195400475823 L 443.85925075337036 215.06928342585257 L 447.6096942109437 222.57017034099925 L 447.0739160983346 229.53528247422688 L 453.50324678826325 233.82150404440927 L 463.6830242664552 225.24906090404446 L 470.6481363996828 228.99950436161782 L 459.39680269627286 259.0030586835845 L 470.1123582870738 267.03972371134023 L 471.7196926249009 264.36083314829506 L 474.93435796986523 264.36083314829506 L 472.25546740682 277.2195011895322 L 482.4352448850119 285.25616621728796 L 499.58013449643147 284.18460999206985 L 501.72324361617757 287.9350534496432 L 510.2956867565424 284.18460999206985 L 510.2956867565424 279.36261030927847 L 506.00946518636 279.8983884218875 L 506.545243298969 275.07638873909605 L 511.9030210943696 270.7901671689136 L 514.5819083267248 270.2543890563046 L 520.4754642347343 280.96994464710554 L 537.620350515464 279.36261030927847 L 538.691906740682 274.540610626487 L 548.871684218874 270.7901671689136 L 556.9083492466297 271.32594528152265 L 563.3376832672483 269.18283283108656 L 554.7652401268834 255.25261189532122 L 576.1963479777954 240.25083806502784 L 586.9119035685964 240.78661617763686 L 591.7339032513878 225.7848390166535 L 602.4494555114989 230.0710605868359 L 615.308123552736 211.85461808088826 L 604.592567961935 205.4252840602697 L 605.128346074544 197.924397145123 L 598.6990120539255 189.88773211736725 L 587.9834564631245 190.95928501189542 L 587.4476816812054 185.0657324345758 L 575.1247917525773 179.17217652656626 L 569.7670139571769 170.59973338620154 L 575.1247917525773 157.7410653449644 L 560.123014591594 135.77419270420307 L 556.9083492466297 126.1301800158605 L 545.1212407613006 115.4146177636797 L 542.9781283108643 101.4844068199842 L 531.7267979381443 94.51930134813648 L 526.3690201427438 95.59085091197466 L 529.5836854877082 103.09173116574158 L 491.5434661379858 107.37796272799369 L 490.4719132434576 85.41106344171294 L 475.47013608247426 81.66063996827927 L 474.93435796986523 75.23130927835058 L 452.4316938937351 59.69374068199846 L 447.0739160983346 60.765290245836695 L 442.25191641554323 71.48085249801755 L 445.46658176050755 73.08817684377482 L 443.85925075337036 76.83863362410796 L 436.3583605075337 72.55240206185573 L 435.28680428231564 78.98173275178436 447.0739160983346 111.12841950832683 "></path><title>VIENNE</title></g>
<g onmouseout="javascript:passout(this)" onmouseover="javascript:passon(this)" ident="1" title="CHARENTES" transform="matrix(1, 0, 0, 1, 0, 0)" stroke-miterlimit="10" stroke-linecap="butt" stroke-linejoin="miter" stroke-width="0.5" fill="#EFF2F9" stroke="#7f7f7f"   onclick="tailCarte='../800-CHARENTES';parent.cartechoisie(tailCarte);parent.document.getElementById('menucartelaX').style.display='none'" style="color:blue;cursor:pointer"  id="3"><path id="p3" d="M 436.3583605075337 452.9545945598732 L 424.03547390959557 445.98948409199056 L 422.9639176843775 439.0243736241079 L 405.8190314036479 431.52348437747827 L 397.7823647105472 434.20237494052344 L 398.31814249008727 429.380375257732 L 402.60436272799365 428.30881903251395 L 402.06858794607456 425.62993180015866 L 394.03192091990485 419.2005977795401 L 403.67591895321175 413.3070418715306 L 398.8539202696273 402.0557114988105 L 403.67591895321175 397.76948992862816 L 396.175031704996 382.7677127676448 L 384.92369933386203 370.9806009516258 L 379.56592220459953 369.3732699444886 L 380.1016999841396 366.15860126883433 L 384.387921554322 364.55127026169714 L 380.1016999841396 353.29993655828713 L 383.8521441078509 347.4063806502776 L 375.81547808088817 345.79904964314045 L 377.4228110864393 340.4412718477399 L 405.2832532910389 334.0119378271214 L 409.56947486122124 340.4412718477399 L 418.6776961141951 339.3697156225219 L 424.03547390959557 321.1532731165742 L 422.4281395717685 311.5092737509914 L 427.78591736716896 309.90194274385414 L 428.857473592387 301.8652743854085 L 440.1088039651071 285.25616621728796 L 460.4683589214909 275.61216685170507 L 465.82613671689137 279.8983884218875 L 472.25546740682 277.2195011895322 L 482.4352448850119 285.25616621728796 L 499.58013449643147 284.18460999206985 L 501.72324361617757 287.9350534496432 L 510.2956867565424 284.18460999206985 L 510.2956867565424 279.36261030927847 L 506.00946518636 279.8983884218875 L 506.545243298969 275.07638873909605 L 511.9030210943696 270.7901671689136 L 514.5819083267248 270.2543890563046 L 520.4754642347343 280.96994464710554 L 537.620350515464 279.36261030927847 L 538.691906740682 274.540610626487 L 548.871684218874 270.7901671689136 L 556.9083492466297 271.32594528152265 L 557.4441273592387 289.5423877874703 L 564.4092394924663 294.9001655828708 L 567.6239048374306 292.2212750198256 L 573.5174607454401 306.1514959555909 L 567.0881267248217 315.25971720856467 L 555.8367930214116 314.18816431403656 L 551.0147933386202 339.3697156225219 L 541.3707973037273 338.83393750991286 L 517.7965770023791 373.65949151467095 L 514.0461302141158 371.5163790642348 L 510.2956867565424 376.33837874702624 L 509.22413053132436 390.2685996827915 L 477.07746708961145 413.8428199841396 L 473.3270236320381 423.4868193497225 L 475.47013608247426 441.1674844091991 L 466.8976929421095 442.2390399682792 L 454.5748030134814 456.16926090404445 L 450.288581443299 451.8830390007931 L 444.39502553528945 451.8830390007931 L 439.57302918318794 458.31237168913566 436.3583605075337 452.9545945598732 "></path><title>CHARENTES</title></g>
<g onmouseout="javascript:passout(this)" onmouseover="javascript:passon(this)" ident="1" title="CHARENTES-MARITIMES" transform="matrix(1, 0, 0, 1, 0, 0)" stroke-miterlimit="10" stroke-linecap="butt" stroke-linejoin="miter" stroke-width="0.5" fill="#EFF2F9" stroke="#7f7f7f"   onclick="tailCarte='../800-CHARENTES-MARITIMES';parent.cartechoisie(tailCarte);parent.document.getElementById('menucartelaX').style.display='none'" style="color:blue;cursor:pointer"  id="4"><path id="p4" d="M 340.45414796193495 243.46550340999212 L 346.34770320380653 255.25261189532122 L 418.6776961141951 288.4708315622522 L 428.857473592387 301.8652743854085 L 427.78591736716896 309.90194274385414 L 422.4281395717685 311.5092737509914 L 424.03547390959557 321.1532731165742 L 418.6776961141951 339.3697156225219 L 409.56947486122124 340.4412718477399 L 405.2832532910389 334.0119378271214 L 377.4228110864393 340.4412718477399 L 375.81547808088817 345.79904964314045 L 383.8521441078509 347.4063806502776 L 380.1016999841396 353.29993655828713 L 384.387921554322 364.55127026169714 L 380.1016999841396 366.15860126883433 L 379.56592220459953 369.3732699444886 L 384.92369933386203 370.9806009516258 L 396.175031704996 382.7677127676448 L 403.67591895321175 397.76948992862816 L 398.8539202696273 402.0557114988105 L 403.67591895321175 413.3070418715306 L 394.03192091990485 419.2005977795401 L 402.06858794607456 425.62993180015866 L 402.60436272799365 428.30881903251395 L 398.31814249008727 429.380375257732 L 397.7823647105472 434.20237494052344 L 405.8190314036479 431.52348437747827 L 422.9639176843775 439.0243736241079 L 424.03547390959557 445.98948409199056 L 436.3583605075337 452.9545945598732 L 439.57302918318794 458.31237168913566 L 428.857473592387 477.6003697541634 L 421.8923614591594 474.9214811895322 L 414.3914745440127 480.2792586518637 L 386.5310326724822 462.5985935923871 L 380.63747743061066 467.95637082157026 L 376.35125586042824 453.4903723394132 L 380.1016999841396 448.1325948770818 L 378.49436664551945 441.1674844091991 L 369.92192303885804 436.3454850594767 L 364.02836793021413 437.41704028548776 L 356.5274800158604 433.6665968279144 L 356.5274800158604 427.23726280729585 L 354.92014667724027 426.1657065820778 L 351.70548033306903 431.52348437747827 L 336.1679263917526 429.380375257732 L 330.81014892942113 407.94926407613013 L 316.8799279936559 389.1970434575734 L 293.8414858049167 369.3732699444886 L 268.12415638382237 349.5494931007138 L 266.51682204599524 350.6210493259319 L 265.9810439333862 356.5146052339414 L 263.83793148295007 350.6210493259319 L 263.83793148295007 332.4046068199842 L 280.44704298176055 332.94038493259325 L 276.1608214115781 319.545942109437 L 279.37548675654244 317.4028296590009 L 283.1259302141158 320.6174950039652 L 290.62682045995246 307.758830293418 L 286.34059888977004 302.93683061062654 L 286.34059888977004 290.6139440126884 L 293.3057076923077 290.0781659000794 L 291.69837335448057 279.8983884218875 L 282.0543773195877 262.2177240285488 L 270.26726550356864 258.46728057097545 L 276.1608214115781 245.07283774781928 L 286.87637700237906 236.50039127676456 L 285.804820777161 224.71328279143543 L 314.2010407613006 217.74817398889775 L 309.37904107850915 227.39217002379073 L 317.95148421887393 227.92794813639978 L 320.09459333862014 225.7848390166535 L 323.3092620142744 228.99950436161782 L 325.9881492466297 222.57017034099925 L 332.9532613798573 223.10594845360833 L 332.41748326724826 226.8563952418716 L 337.7752593973037 231.6783915939731 340.45414796193495 243.46550340999212  M 273.4819308485329 312.58082997620943 L 267.58837827121334 301.3294962727995 L 266.51682204599524 292.2212750198256 L 258.4801570182395 291.14972212529744 L 248.30037954004757 279.36261030927847 L 243.47837985725616 277.7552793021413 L 246.15726708961142 288.4708315622522 L 245.6214889770024 297.04327470261705 L 256.33704456780333 308.8303865186361 L 261.6948223632038 313.6523862014275 L 266.51682204599524 329.725716256939 273.4819308485329 312.58082997620943  M 233.29860237906425 234.89306026962737 L 237.58482394924664 241.85816907216503 L 245.08571419508328 241.85816907216503 L 242.40682363203808 245.07283774781928 L 255.8012664551943 247.2159468675655 L 267.05260015860426 256.3241681205393 L 262.7663785884219 260.6103896907217 L 255.26548834258526 257.9315024583664 L 247.76460142743855 252.57372466296596 L 237.04904583663762 247.2159468675655 L 231.155493259318 248.82328120539265 L 224.72615923869947 239.1792818398098 233.29860237906425 234.89306026962737 "></path><title>CHARENTES-MARITIMES</title></g>



</g>
</g>








<script><![CDATA[


]]></script>


</svg>